<svg width="180" height="52" viewBox="0 0 180 52" fill="none" xmlns="http://www.w3.org/2000/svg">
<g id="Group">
<path id="BG" d="M173.333 52H6.66667C3.00167 52 0 49.0734 0 45.5V6.5C0 2.92663 3.00167 2.74817e-06 6.66667 2.74817e-06H173.333C176.998 2.74817e-06 180 2.92663 180 6.5V45.5C180 49.0734 176.998 52 173.333 52Z" fill="white"/>
<path id="Border" d="M173.333 1.04162C176.42 1.04162 178.932 3.4905 178.932 6.5V45.5C178.932 48.5095 176.42 50.9584 173.333 50.9584H6.66667C3.58 50.9584 1.06833 48.5095 1.06833 45.5V6.5C1.06833 3.4905 3.58 1.04162 6.66667 1.04162H173.333ZM173.333 2.74817e-06H6.66667C3.00167 2.74817e-06 0 2.92663 0 6.5V45.5C0 49.0734 3.00167 52 6.66667 52H173.333C176.998 52 180 49.0734 180 45.5V6.5C180 2.92663 176.998 2.74817e-06 173.333 2.74817e-06Z" fill="#313E50"/>
<g id="Icon">
<path id="Vector" d="M12.9152 9.80032C12.5235 10.2001 12.2969 10.8224 12.2969 11.6284V40.3779C12.2969 41.1839 12.5235 41.8063 12.9152 42.2061L13.0119 42.2938L29.5352 26.1901V25.8098L13.0119 9.70607L12.9152 9.80032Z" fill="black"/>
<path id="Vector_2" d="M37.0368 31.5607L31.5352 26.19V25.8098L37.0435 20.4392L37.1668 20.509L43.6902 24.1279C45.5518 25.1549 45.5518 26.8449 43.6902 27.8784L37.1668 31.4908L37.0368 31.5607Z" fill="black"/>
<path id="Vector_3" d="M36.1657 32.4908L30.5341 27L13.9141 43.2061C14.5324 43.8398 15.5407 43.9162 16.6874 43.2825L36.1657 32.4908Z" fill="black"/>
<path id="Vector_4" d="M36.1657 19.5091L16.6874 8.71751C15.5407 8.09025 14.5324 8.16663 13.9141 8.80038L30.5341 25L36.1657 19.5091Z" fill="black"/>
</g>
<g id="GET IT ON">
<path id="G" d="M63.2234 13.3168C63.2234 14.4023 62.8901 15.2717 62.2334 15.9201C61.4784 16.6887 60.4951 17.0754 59.2901 17.0754C58.1384 17.0754 57.155 16.6822 56.3484 15.9071C55.54 15.1206 55.1367 14.1553 55.1367 12.9999C55.1367 11.8446 55.54 10.8793 56.3484 10.0993C57.155 9.31769 58.1384 8.92444 59.2901 8.92444C59.8634 8.92444 60.41 9.03981 60.9317 9.25431C61.4517 9.47044 61.875 9.76294 62.1817 10.1237L61.4851 10.8094C60.95 10.1936 60.2217 9.88969 59.2901 9.88969C58.4501 9.88969 57.7217 10.1757 57.1034 10.7526C56.4917 11.3311 56.185 12.0802 56.185 12.9999C56.185 13.9197 56.4917 14.6753 57.1034 15.2538C57.7217 15.8242 58.4501 16.1167 59.2901 16.1167C60.1817 16.1167 60.9317 15.8242 61.5234 15.2473C61.9134 14.8654 62.1351 14.3389 62.1934 13.6662H59.2901V12.7269H63.1634C63.2101 12.9301 63.2234 13.1267 63.2234 13.3168Z" fill="black" stroke="black" stroke-width="0.16" stroke-miterlimit="10"/>
<path id="E" d="M69.3676 10.0603H65.7292V12.5303H69.0092V13.4695H65.7292V15.9395H69.3676V16.8966H64.6992V9.10315H69.3676V10.0603Z" fill="black" stroke="black" stroke-width="0.16" stroke-miterlimit="10"/>
<path id="T" d="M73.7031 16.8966H72.6731V10.0603H70.4414V9.10315H75.9364V10.0603H73.7031V16.8966Z" fill="black" stroke="black" stroke-width="0.16" stroke-miterlimit="10"/>
<path id="I" d="M79.9141 16.8966V9.10315H80.9424V16.8966H79.9141Z" fill="black" stroke="black" stroke-width="0.16" stroke-miterlimit="10"/>
<path id="T_2" d="M85.4999 16.8966H84.4783V10.0603H82.2383V9.10315H87.7399V10.0603H85.4999V16.8966Z" fill="black" stroke="black" stroke-width="0.16" stroke-miterlimit="10"/>
<path id="O" d="M98.1466 15.8941C97.3582 16.6822 96.3816 17.0754 95.2166 17.0754C94.0449 17.0754 93.0682 16.6822 92.2799 15.8941C91.4932 15.1076 91.1016 14.1423 91.1016 12.9999C91.1016 11.8576 91.4932 10.8923 92.2799 10.1058C93.0682 9.31769 94.0449 8.92444 95.2166 8.92444C96.3749 8.92444 97.3516 9.31769 98.1399 10.1123C98.9332 10.9053 99.3249 11.8641 99.3249 12.9999C99.3249 14.1423 98.9332 15.1076 98.1466 15.8941ZM93.0416 15.2408C93.6349 15.8242 94.3566 16.1167 95.2166 16.1167C96.0699 16.1167 96.7982 15.8242 97.3849 15.2408C97.9766 14.6574 98.2766 13.9083 98.2766 12.9999C98.2766 12.0916 97.9766 11.3424 97.3849 10.7591C96.7982 10.1757 96.0699 9.88319 95.2166 9.88319C94.3566 9.88319 93.6349 10.1757 93.0416 10.7591C92.4499 11.3424 92.1499 12.0916 92.1499 12.9999C92.1499 13.9083 92.4499 14.6574 93.0416 15.2408Z" fill="black" stroke="black" stroke-width="0.16" stroke-miterlimit="10"/>
<path id="N" d="M100.77 16.8966V9.10315H102.02L105.906 15.1644H105.951L105.906 13.6661V9.10315H106.935V16.8966H105.861L101.791 10.5364H101.746L101.791 12.0411V16.8966H100.77Z" fill="black" stroke="black" stroke-width="0.16" stroke-miterlimit="10"/>
</g>
<g id="Google Play">
<path id="Google Play_2" d="M90.8454 28.2783C87.7137 28.2783 85.1554 30.602 85.1554 33.8082C85.1554 36.9883 87.7137 39.3364 90.8454 39.3364C93.9837 39.3364 96.5421 36.9883 96.5421 33.8082C96.5421 30.602 93.9837 28.2783 90.8454 28.2783ZM90.8454 37.1589C89.1271 37.1589 87.6487 35.776 87.6487 33.8082C87.6487 31.8143 89.1271 30.4558 90.8454 30.4558C92.5637 30.4558 94.0487 31.8143 94.0487 33.8082C94.0487 35.776 92.5637 37.1589 90.8454 37.1589ZM78.4304 28.2783C75.2921 28.2783 72.7404 30.602 72.7404 33.8082C72.7404 36.9883 75.2921 39.3364 78.4304 39.3364C81.5671 39.3364 84.1204 36.9883 84.1204 33.8082C84.1204 30.602 81.5671 28.2783 78.4304 28.2783ZM78.4304 37.1589C76.7104 37.1589 75.2271 35.776 75.2271 33.8082C75.2271 31.8143 76.7104 30.4558 78.4304 30.4558C80.1487 30.4558 81.6271 31.8143 81.6271 33.8082C81.6271 35.776 80.1487 37.1589 78.4304 37.1589ZM63.6571 29.9732V32.3229H69.4121C69.2437 33.6359 68.7937 34.6012 68.1037 35.2739C67.2637 36.0864 65.9554 36.9883 63.6571 36.9883C60.1154 36.9883 57.3421 34.2014 57.3421 30.7483C57.3421 27.2952 60.1154 24.5083 63.6571 24.5083C65.5721 24.5083 66.9654 25.2379 67.9937 26.1837L69.6921 24.5278C68.2537 23.1888 66.3404 22.1602 63.6571 22.1602C58.8004 22.1602 54.7188 26.013 54.7188 30.7483C54.7188 35.4835 58.8004 39.3364 63.6571 39.3364C66.2821 39.3364 68.2537 38.4979 69.8037 36.9249C71.3921 35.3763 71.8871 33.1988 71.8871 31.4405C71.8871 30.8945 71.8404 30.3924 71.7571 29.9732H63.6571ZM124.067 31.7948C123.599 30.5582 122.154 28.2783 119.21 28.2783C116.294 28.2783 113.865 30.5192 113.865 33.8082C113.865 36.9054 116.269 39.3364 119.49 39.3364C122.095 39.3364 123.599 37.7878 124.217 36.8859L122.284 35.6298C121.639 36.5495 120.76 37.1589 119.49 37.1589C118.229 37.1589 117.324 36.595 116.744 35.4835L124.329 32.4237L124.067 31.7948ZM116.334 33.6359C116.269 31.5039 118.032 30.4119 119.295 30.4119C120.285 30.4119 121.125 30.8945 121.405 31.5852L116.334 33.6359ZM110.169 39H112.662V22.75H110.169V39ZM106.085 29.51H106.002C105.442 28.8633 104.374 28.2783 103.02 28.2783C100.18 28.2783 97.5837 30.7093 97.5837 33.826C97.5837 36.9249 100.18 39.3364 103.02 39.3364C104.374 39.3364 105.442 38.7465 106.002 38.0803H106.085V38.8733C106.085 40.9874 104.927 42.1233 103.059 42.1233C101.535 42.1233 100.59 41.0508 100.2 40.1489L98.0321 41.0313C98.6571 42.497 100.312 44.3008 103.059 44.3008C105.982 44.3008 108.449 42.6238 108.449 38.5434V28.6147H106.085V29.51ZM103.234 37.1589C101.515 37.1589 100.077 35.7565 100.077 33.826C100.077 31.8777 101.515 30.4558 103.234 30.4558C104.927 30.4558 106.262 31.8777 106.262 33.826C106.262 35.7565 104.927 37.1589 103.234 37.1589ZM135.74 22.75H129.777V39H132.264V32.8429H135.74C138.502 32.8429 141.21 30.8945 141.21 27.7957C141.21 24.6984 138.495 22.75 135.74 22.75ZM135.805 30.5825H132.264V25.0104H135.805C137.662 25.0104 138.722 26.5135 138.722 27.7957C138.722 29.0534 137.662 30.5825 135.805 30.5825ZM151.177 28.2474C149.38 28.2474 147.512 29.0209 146.744 30.7353L148.95 31.6372C149.425 30.7353 150.299 30.4428 151.222 30.4428C152.512 30.4428 153.82 31.1984 153.84 32.5325V32.7032C153.39 32.4497 152.427 32.0743 151.242 32.0743C148.865 32.0743 146.444 33.3499 146.444 35.7305C146.444 37.908 148.39 39.3104 150.579 39.3104C152.252 39.3104 153.175 38.5743 153.755 37.7179H153.84V38.974H156.242V32.7405C156.242 29.8594 154.035 28.2474 151.177 28.2474ZM150.877 37.1524C150.064 37.1524 148.93 36.7592 148.93 35.776C148.93 34.5183 150.344 34.0357 151.567 34.0357C152.662 34.0357 153.175 34.2713 153.84 34.5817C153.645 36.0864 152.317 37.1524 150.877 37.1524ZM164.992 28.6033L162.134 35.6477H162.049L159.094 28.6033H156.412L160.852 38.4475L158.319 43.9254H160.917L167.759 28.6033H164.992ZM142.577 39H145.07V22.75H142.577V39Z" fill="black"/>
</g>
</g>
</svg>
