<svg width="308" height="59" viewBox="0 0 308 59" fill="none" xmlns="http://www.w3.org/2000/svg">
<path fill-rule="evenodd" clip-rule="evenodd" d="M23.5318 2.90597L19.2214 11.5643L17.6311 14.6355L16.7371 16.3263L14.8844 19.8134L14.2791 20.923L13.6139 22.1382L11.7152 25.5197L8.46126 30.909L7.14255 33.0224L4.32393 37.3549L2.52183 39.9967L0.0245315 43.5261V43.717L2.15808 47.4994L2.91399 48.8731L3.50899 49.8863V49.9869L4.00114 50.7752L4.80722 52.2546L5.8572 54.1498L6.18548 54.6513L6.83507 54.5138L8.10214 54.3112L8.68289 54.1927L8.68004 54.2805L8.67729 54.3681L7.83099 55.2924L7.09904 56.1862V56.3105L7.9407 58.1722L8.31523 58.9119L9.47481 58.9004L14.2263 58.5362L17.2884 58.3316L23.9406 58.0124L30.0648 57.7806L41.1517 57.7792L46.1144 58.0126L51.1827 58.3265L53.5057 58.5326L56.2511 58.7654L57.5181 58.9632L58.186 58.9648L59.1293 57.3269L59.5468 56.5872L60.6057 54.7907L61.8243 52.6773L62.1842 52.0433L64.4343 48.1783V47.9689L62.6539 45.8116L62.7274 45.7381L65.61 46.3051L65.6595 46.2556L65.709 46.2061L67.1704 44.2236L67.4164 43.7669L65.3318 40.6704L62.6352 36.6152L61.7807 35.2415L60.9562 33.9734L60.0859 32.5997L58.2209 29.6409L56.6071 26.9991L54.7925 24.0403L54.1203 22.8779L52.8881 20.7645L52.0493 19.2851L51.2106 17.8057L48.5191 12.7334L45.9934 7.66119L43.7629 2.90597L42.6557 0.369851L42.4188 0.129659L29.9729 0.0528358L29.2475 2.0606L28.9239 2.98057L28.7703 2.69463L28.2953 1.21522L27.8719 0H24.8909L23.5318 2.90597ZM39.1248 15.2696L39.5241 16.1409L39.9234 17.0122L37.7487 21.5042L35.8352 25.3563L35.6942 25.8367L34.9462 27.8867L35.8598 29.8522L37.8967 33.8678L39.543 36.8266L41.0269 39.257L42.6176 41.6875L45.052 44.9633L46.9764 47.1824L48.2752 48.5423L48.2032 48.6143L46.22 48.3756L44.7972 48.2312L44.6051 48.0278L42.0299 44.1179L40.2014 41.3033L38.3879 39.0457L38.0826 38.7936L35.0275 38.5765L32.2822 38.4534L29.5369 38.3304L25.4351 38.4695L22.2512 38.674L20.3506 38.9028L18.3443 39.2075L16.9717 39.4446L14.7543 39.9366L13.7555 40.2389L13.9424 39.891L14.5431 39.1166L16.0742 37.0172L18.6611 36.8838L23.6717 36.5703L24.7853 36.4489L26.1634 36.2272L27.5415 36.0056L29.6636 32.811L30.8222 31.0146L32.624 27.9501L33.8971 25.6254L35.2983 22.7881L36.3263 20.4475L37.3246 17.9113L38.2325 15.1311L38.5072 13.9487H38.6186L39.1248 15.2696Z" fill="#80FF80"/>
<path fill-rule="evenodd" clip-rule="evenodd" d="M24.5211 0.711804V0.864288L22.6733 4.69943L18.3649 13.2618L17.4994 14.9741L17.2095 15.3224H17.3554L16.9433 15.9036L16.4173 16.9603L15.282 19.1357L14.7846 20.1304L14.6485 20.2361L14.1701 21.1872L13.6251 22.1382L12.9939 23.3006L12.5149 24.146L12.088 24.8977L11.0584 26.6446L10.4739 27.6331L10.3475 28.003H10.1609V28.1896L9.1578 29.8082L8.67821 30.5919L8.53735 30.909L8.20749 31.1664L8.31308 31.1714L8.41867 31.1764L8.18943 31.3316L7.27513 32.9167L6.67644 33.6518V33.8409L5.72613 35.1736V35.3032L5.30377 35.7569V36.034H5.09259V36.2248L3.56154 38.4703L3.35036 38.8253L1.32864 41.6875L0 43.5734L0.44221 44.4349L1.15082 45.703L1.7398 46.7597L2.11 47.3937L2.63415 48.3448L3.10561 49.178L3.66713 50.2051L3.87894 50.5639L5.23355 52.9943L5.42995 53.3642L5.62635 53.734L6.13075 54.5794L6.62364 54.5469L8.1019 54.3144L8.68289 54.1927L8.68004 54.2805L8.67729 54.3681L7.83099 55.2924L7.09904 56.1862L7.0988 56.2472V56.3082L7.71407 57.6439L8.24983 58.8617L8.59859 58.9956L10.9528 58.7532L12.959 58.6414L13.987 58.5315L17.2882 58.3414L19.1888 58.2205L26.8969 57.8876L33.1267 57.7261L41.3627 57.8023L46.0086 58.0083L50.021 58.2233L52.344 58.4321L54.9837 58.6633L56.8843 58.8632L58.17 58.9921L59.1293 57.3269L59.5527 56.5872L61.8187 52.6773L62.3467 51.7263L62.9328 50.7752L64.434 48.176V48.0725L64.4343 47.9689L62.6539 45.8116L62.7274 45.7381L65.61 46.3051L65.6595 46.2556L65.709 46.2061L67.1704 44.2236L67.2943 43.993L67.4186 43.7623L65.6522 41.1591L62.2694 36.034L61.4401 34.7131L60.2824 32.9167L59.3395 31.4373L58.9433 30.8647V30.7489L57.6157 28.6899L56.6821 27.1048L56.198 26.4508V26.3144L54.5902 23.7233L52.8896 20.7645L52.0493 19.2851L51.2106 17.8057L48.4891 12.6788L45.4746 6.60448L44.4407 4.38537L43.7727 2.90597L43.211 1.68567L42.6641 0.369851L42.4188 0.129659L30.0161 0.00591759L29.8214 0.369851L29.8066 0.581194L29.3602 1.84925L29.0902 2.37761L28.9393 3.00868L28.7703 2.69463L28.2953 1.21522L27.8719 0H24.9607L24.5211 0.711804ZM39.1248 15.2696L39.5241 16.1409L39.9225 17.011L37.9117 21.1872L35.8297 25.414L35.2699 26.9991L34.9715 27.9406L35.8598 29.8522L37.8967 33.8678L39.543 36.8266L41.0269 39.257L42.6258 41.6875L45.052 44.9633L46.9764 47.1824L48.2752 48.5423L48.2032 48.6143L46.3254 48.3889L45.1639 48.2787L44.7146 48.1887L42.0949 44.2236L40.2014 41.3033L38.3879 39.0457L38.0789 38.7908L34.9217 38.5762L32.2822 38.4534L29.6422 38.3314L25.4858 38.4662L22.2512 38.674L20.3506 38.9028L18.3443 39.2075L16.9717 39.4446L14.7543 39.9366L13.7555 40.2389L13.9424 39.891L14.5431 39.1166L16.0976 36.9851L17.077 36.9742L18.4497 36.8892L19.8224 36.7815L22.3565 36.6617L24.7851 36.4505L26.1634 36.2272L27.5415 36.0056L29.6636 32.811L30.8222 31.0146L32.624 27.9501L33.8971 25.6254L35.3106 22.7722L36.5834 19.8134L37.6257 17.066L38.4589 14.3053V13.9487H38.6186L39.1248 15.2696Z" fill="#00FF00"/>
<path fill-rule="evenodd" clip-rule="evenodd" d="M24.5211 0.711804V0.864288L22.6733 4.69943L18.3649 13.2618L17.4994 14.9741L17.2095 15.3224H17.3554L16.9433 15.9036L16.4173 16.9603L15.282 19.1357L14.7846 20.1304L14.6485 20.2361L14.1701 21.1872L13.6251 22.1382L12.9939 23.3006L12.5149 24.146L12.0921 24.8904L10.548 27.5275L10.3193 28.0013L10.1609 28.003V28.1896L9.1578 29.8082L8.67821 30.5919L8.53735 30.909L8.20749 31.1664L8.31308 31.1714L8.41867 31.1764L8.18943 31.3316L7.27513 32.9167L6.67644 33.6518V33.8409L5.72613 35.1736V35.3032L5.30377 35.7569V36.034H5.09259V36.2248L3.56154 38.4703L3.35036 38.8253L1.32864 41.6875L0 43.5734L0.44221 44.4349L1.15082 45.703L1.7398 46.7597L2.11 47.3937L2.69476 48.4504L3.32798 49.6128L3.48077 49.8242L4.1162 50.9866L5.23524 52.9943L5.42995 53.3642L5.62635 53.734L6.13075 54.5794L6.62364 54.5469L8.1019 54.3144L8.68289 54.1927L8.68169 54.2805L8.68085 54.3681L7.99441 55.1078L7.0988 56.1939V56.3082L7.71407 57.6439L8.24983 58.8617L8.59859 58.9956L10.9528 58.7532L12.959 58.6414L13.987 58.5315L17.2882 58.3414L19.1888 58.2205L26.8969 57.8876L33.1267 57.7261L41.4683 57.8021L46.0086 58.0083L50.021 58.2233L52.344 58.4321L54.9837 58.6633L56.8843 58.8632L58.17 58.9921L59.1293 57.3269L59.5527 56.5872L61.8187 52.6773L62.3467 51.7263L62.9328 50.7752L64.434 48.176V48.0725L64.4343 47.9689L62.6539 45.8116L62.7274 45.7381L65.61 46.3051L65.6595 46.2556L65.709 46.2061L67.1704 44.2236L67.4279 43.7449L66.966 43.1197L62.3591 36.1925L61.0023 34.0358L60.0035 32.494L59.1435 31.1203L58.8905 30.7073L57.6157 28.6899L56.6821 27.1048L56.198 26.4508V26.3144L54.5902 23.7233L52.8896 20.7645L52.0493 19.2851L51.2106 17.8057L48.4891 12.6788L45.4746 6.60448L44.4407 4.38537L43.7727 2.90597L43.211 1.68567L42.6641 0.369851L42.4188 0.129659L30.0161 0.00591759L29.8214 0.369851L29.8066 0.581194L29.3602 1.84925L29.0902 2.37761L28.9393 3.00868L28.7703 2.69463L28.2953 1.21522L27.8719 0H24.9607L24.5211 0.711804ZM39.1248 15.2696L39.5241 16.1409L39.9225 17.011L37.9117 21.1872L35.8328 25.414L35.2699 26.9991L34.9715 27.9406L35.8598 29.8522L37.8967 33.8678L39.5496 36.8266L41.0248 39.257L42.6258 41.6875L45.052 44.9633L46.9764 47.1824L48.2752 48.5423L48.2032 48.6143L46.3254 48.3889L45.1639 48.2787L44.7146 48.1887L42.0949 44.2236L40.2014 41.3033L38.3879 39.0457L38.0789 38.7908L34.9217 38.5762L32.2822 38.4534L29.6422 38.3314L25.4858 38.4662L22.2512 38.674L20.3506 38.9028L18.3443 39.2075L16.9717 39.4446L14.7543 39.9366L13.7555 40.2389L13.9424 39.891L14.5431 39.1166L16.0976 36.9851L17.077 36.9742L18.4497 36.8892L19.7168 36.7807L22.3565 36.6617L24.7851 36.4505L27.5354 36.0065L29.0402 33.7621L30.6153 31.3316L32.2056 28.6899L33.7802 25.8367L35.3138 22.7722L36.5834 19.8134L37.6257 17.066L38.4589 14.3053V13.9487H38.6186L39.1248 15.2696Z" fill="#53B136"/>
<path fill-rule="evenodd" clip-rule="evenodd" d="M34.5552 0.120712L34.9224 0.0245505L34.0777 0.0287772L34.5552 0.120712ZM27.4512 1.21526L25.4644 6.23551L23.6002 10.5144L21.5378 14.9526L19.8482 18.3341L17.5638 22.6016L15.4086 26.3651L13.0822 30.1693L10.4424 34.2905L7.48868 38.7287L4.34982 43.2137L4.22501 43.5392L4.51253 43.4364L9.47525 42.3861L15.8175 41.2239L20.9845 40.4807L23.3075 40.2487L29.9073 40.1268L34.2888 40.3816L38.618 40.7899L39.861 40.9275L39.6739 40.6035L38.7236 39.4744L38.0901 38.7897L36.0839 38.6689L35.2391 38.5763L31.2267 38.4117L26.0528 38.4285L22.146 38.6855L21.7237 38.7597L20.351 38.8993L18.3443 39.2075L16.9717 39.4446L14.7543 39.9366L13.7521 40.2401L13.8887 39.9967L14.5083 39.1514L16.0615 37.0425L16.034 37.0149L16.0065 36.9873L11.587 37.2794L11.3989 37.1032L13.8278 33.3394L15.6181 30.4863L18.6448 25.4141L20.9464 21.2929L23.87 15.3753L25.791 10.9896L27.2452 7.44989L28.851 3.32425V2.86109L28.4543 1.74362L27.9828 0.264214L27.8369 0.105284L27.4512 1.21526ZM40.389 4.17406L38.3327 10.5144L36.5406 15.4809L34.6369 20.2362L32.349 24.8857L30.4076 28.2672L28.1792 31.7544L26.074 34.8188L24.9184 36.3605L24.9969 36.4357L27.3199 36.0181L27.549 35.9989L28.6926 34.2905L28.777 34.0791L28.9183 33.9735L30.3646 31.6487L30.4525 31.6135L30.5404 31.5782V31.3911L31.4907 29.921V29.7846L32.0887 28.9012L33.0214 27.2105L33.5497 26.2346L35.3138 22.7722L36.5834 19.8134L37.6257 17.066L38.4589 14.3053V13.9487H38.6186L39.1273 15.2696L39.9598 17.066L41.9565 13.0806L41.9901 13.1183L42.0237 13.1562L44.5801 18.256L47.04 22.8779L49.4719 27.2105L51.9789 31.3957L53.9107 34.2905L55.6108 36.7209L58.5262 40.6966L62.2467 45.4917L62.4117 45.6757L65.5206 46.2894L65.5615 46.2485L65.6025 46.2075L64.2584 44.5406L61.176 40.3988L58.705 36.9323L54.9824 31.3317L52.7437 27.7388L50.8203 24.4452L47.3203 18.017L43.4438 10.1973L40.9243 4.70242L40.6513 4.01556H40.4783L40.389 4.17406ZM47.9752 11.7296H48.0807L47.9502 11.5182H47.8447L47.9752 11.7296ZM35.5214 26.3651L34.961 27.917L35.871 29.8523L37.6847 33.4451L39.4374 36.6153L41.0269 39.257L42.9107 42.0899L45.1444 45.069L46.8858 47.092L47.8043 48.0365L48.3323 48.6293L47.0652 48.4912L45.5869 48.2993L44.6737 48.2043L44.7946 48.5196L47.118 52.0605V52.34L44.3199 52.2001L39.8851 51.9539L27.6367 51.9376L23.8354 52.2136L20.351 52.5244L15.9104 53.042L11.3759 53.6906L8.7924 54.1039H8.68332L8.68237 54.236L8.68085 54.3681L7.99441 55.1078L7.07984 56.2174H7.32196L10.5311 55.7023L13.8044 55.2795L16.6553 54.9577L18.9783 54.7383L22.7796 54.4264L27.2143 54.1648L38.9348 54.1662L43.5807 54.43L48.3323 54.7435L53.5062 55.1681L55.4068 55.3683L55.8819 55.372V55.2106L53.5389 52.5717L50.537 49.0845L48.1028 46.1257L45.0441 42.1989L43.452 39.8911L42.0696 37.672L40.1287 34.2905L37.2453 28.4763L35.9922 25.5197L35.9169 25.4303L35.8417 25.3408L35.5214 26.3651ZM8.30373 31.0839L8.22834 31.2058L8.47215 31.055V30.9618H8.37901L8.30373 31.0839ZM60.118 32.7582H60.2236L60.0931 32.5469H59.9875L60.118 32.7582ZM61.0683 34.2376H61.1739L61.0434 34.0263H60.9378L61.0683 34.2376ZM22.8323 36.6857L23.0963 36.5791H22.5684L22.8323 36.6857ZM1.54599 41.334L1.4706 41.456L1.7144 41.3052V41.212H1.62127L1.54599 41.334ZM66.5893 44.9269L66.5139 45.0488L66.6357 44.9734L66.7577 44.898V44.8048H66.6645L66.5893 44.9269ZM32.3706 57.7672L32.441 57.8376L32.5114 57.7672L32.5818 57.6968H32.3003L32.3706 57.7672ZM33.5009 57.8187L33.7609 57.7135L33.1273 57.7213L33.5009 57.8187ZM37.9317 57.8201L38.1957 57.7135H37.6677L37.9317 57.8201ZM38.9171 57.7672L38.9876 57.8376L39.058 57.7672L39.1283 57.6968H38.8468L38.9171 57.7672ZM28.1118 57.9228L28.587 57.8312H27.6367L28.1118 57.9228ZM42.7888 57.9236L43.1584 57.8269H42.4192L42.7888 57.9236ZM45.2525 57.9786L45.323 58.049L45.3934 57.9786L45.4637 57.9081H45.1822L45.2525 57.9786ZM22.9511 58.1414L23.0787 58.0138L22.674 58.0305L22.9511 58.1414ZM47.0256 58.1414L47.1531 58.0138L46.7484 58.0305L47.0256 58.1414ZM20.417 58.2471L20.5445 58.1194L20.1398 58.1361L20.417 58.2471ZM16.5321 58.4013L16.6026 58.4716L16.673 58.4013L16.7433 58.3308H16.4618L16.5321 58.4013ZM51.6935 58.4013L51.7639 58.4716L51.8344 58.4013L51.9047 58.3308H51.6232L51.6935 58.4013ZM53.1718 58.5069L53.2422 58.5773L53.3126 58.5069L53.3829 58.4365H53.1014L53.1718 58.5069ZM13.3644 58.6126L13.4349 58.683L13.5053 58.6126L13.5756 58.5421H13.2941L13.3644 58.6126ZM54.1221 58.6126L54.1925 58.683L54.2629 58.6126L54.3332 58.5421H54.0517L54.1221 58.6126ZM58.1421 58.8755L58.0667 58.9975L58.1885 58.922L58.3105 58.8467V58.7535H58.2174L58.1421 58.8755ZM9.24643 58.9296L9.31686 59L9.38729 58.9296L9.45761 58.8591H9.17611L9.24643 58.9296ZM57.2898 58.9296L57.3602 59L57.4306 58.9296L57.5009 58.8591H57.2194L57.2898 58.9296Z" fill="#19470E"/>
<path fill-rule="evenodd" clip-rule="evenodd" d="M34.5552 0.120712L34.9224 0.0245505L34.0777 0.0287772L34.5552 0.120712ZM47.9752 11.7296H48.0807L47.9502 11.5182H47.8447L47.9752 11.7296ZM35.1863 27.2985L35.2568 27.2281L35.3271 27.1576L35.2568 27.0872L35.1863 27.0168V27.2985ZM31.9558 28.9704L31.8804 29.0924L32.0023 29.0169L32.1242 28.9416V28.8484H32.0311L31.9558 28.9704ZM35.8199 29.9403L35.8903 29.8699L35.9606 29.7994L35.8903 29.729L35.8199 29.6586V29.9403ZM31.0055 30.5555L30.9301 30.6775L31.052 30.602L31.1739 30.5267V30.4335H31.0808L31.0055 30.5555ZM8.30373 31.0839L8.22834 31.2058L8.47215 31.055V30.9618H8.37901L8.30373 31.0839ZM60.118 32.7582H60.2236L60.0931 32.5469H59.9875L60.118 32.7582ZM37.4037 33.1104L37.4742 33.0401L37.5445 32.9696L37.4742 32.8991L37.4037 32.8287V33.1104ZM61.0683 34.2376H61.1739L61.0434 34.0263H60.9378L61.0683 34.2376ZM28.3758 34.6075L28.7454 34.3174V34.2376H28.6657L28.3758 34.6075ZM26.2464 36.2102L26.3168 36.2806L26.3872 36.2102L26.4576 36.1397H26.1761L26.2464 36.2102ZM25.6128 36.3159L25.6833 36.3863L25.7537 36.3159L25.824 36.2454H25.5425L25.6128 36.3159ZM22.8323 36.6857L23.0963 36.5791H22.5684L22.8323 36.6857ZM58.5341 36.7738H58.6397L58.5092 36.5624H58.4036L58.5341 36.7738ZM55.6832 36.8794H55.7888L55.6583 36.6681H55.5527L55.6832 36.8794ZM27.1615 38.4822L27.4255 38.3755H26.8976L27.1615 38.4822ZM27.5135 38.4293L27.5839 38.4997L27.6543 38.4293L27.7246 38.3588H27.4431L27.5135 38.4293ZM30.5536 38.4865L30.6811 38.3588L30.2764 38.3755L30.5536 38.4865ZM30.9628 38.4822L31.2267 38.3755H30.6988L30.9628 38.4822ZM25.0629 38.5922L25.1905 38.4645L24.7858 38.4812L25.0629 38.5922ZM33.4265 38.535L33.4969 38.6054L33.5673 38.535L33.6377 38.4645H33.3562L33.4265 38.535ZM23.0787 38.6407L23.1491 38.711L23.2195 38.6407L23.2899 38.5702H23.0084L23.0787 38.6407ZM21.1781 38.852L21.2485 38.9224L21.3189 38.852L21.3893 38.7815H21.1077L21.1781 38.852ZM20.2058 39.0148L20.3334 38.8872L19.9286 38.9039L20.2058 39.0148ZM38.5777 39.4156H38.6833L38.5527 39.2042H38.4472L38.5777 39.4156ZM16.8489 39.486L16.9193 39.5564L16.9897 39.486L17.0601 39.4156H16.7786L16.8489 39.486ZM57.6894 39.6269H57.795L57.6645 39.4156H57.5589L57.6894 39.6269ZM58.0062 40.0496H58.1118L57.9813 39.8382H57.8757L58.0062 40.0496ZM13.6888 40.1716L13.6134 40.2936L13.8572 40.1428V40.0496H13.7641L13.6888 40.1716ZM58.3229 40.4723H58.4285L58.298 40.2609H58.1924L58.3229 40.4723ZM39.4099 40.4464L39.7795 40.7365L39.4897 40.3666H39.4099V40.4464ZM61.3851 40.7893H61.4906L61.3601 40.5779H61.2545L61.3851 40.7893ZM58.6397 40.895H58.7453L58.6148 40.6836H58.5092L58.6397 40.895ZM39.0227 40.8598L39.0932 40.9301L39.1636 40.8598L39.2339 40.7893H38.9524L39.0227 40.8598ZM61.7018 41.212H61.8074L61.6769 41.0006H61.5713L61.7018 41.212ZM1.54599 41.334L1.4706 41.456L1.7144 41.3052V41.212H1.62127L1.54599 41.334ZM42.6957 41.846H42.8013L42.6708 41.6347H42.5652L42.6957 41.846ZM62.2298 41.9517H62.3354L62.2049 41.7403H62.0993L62.2298 41.9517ZM43.0124 42.2687H43.118L42.9875 42.0574H42.8819L43.0124 42.2687ZM59.6956 42.2687H59.8012L59.6707 42.0574H59.5651L59.6956 42.2687ZM62.5465 42.3744H62.6521L62.5216 42.163H62.416L62.5465 42.3744ZM43.3292 42.6914H43.4348L43.3043 42.48H43.1987L43.3292 42.6914ZM62.8633 42.7971H62.9689L62.8384 42.5857H62.7328L62.8633 42.7971ZM63.1801 43.2197H63.2857L63.1552 43.0084H63.0496L63.1801 43.2197ZM46.4969 44.1708H46.6025L46.472 43.9594H46.3664L46.4969 44.1708ZM61.1739 44.1708H61.2795L61.149 43.9594H61.0434L61.1739 44.1708ZM61.5962 44.6991H61.7018L61.5713 44.4878H61.4657L61.5962 44.6991ZM66.5893 44.9269L66.5139 45.0488L66.6357 44.9734L66.7577 44.898V44.8048H66.6645L66.5893 44.9269ZM47.236 45.1218H47.3416L47.2111 44.9105H47.1055L47.236 45.1218ZM62.3354 45.6502H62.4409L62.3104 45.4388H62.2049L62.3354 45.6502ZM48.9255 47.2353H49.0311L48.9005 47.0239H48.795L48.9255 47.2353ZM49.4534 47.8693H49.559L49.4285 47.6579H49.3229L49.4534 47.8693ZM49.8758 48.3976H49.9814L49.8509 48.1863H49.7453L49.8758 48.3976ZM45.8861 48.3625L45.9565 48.4328L46.0269 48.3625L46.0972 48.292H45.8157L45.8861 48.3625ZM48.1739 48.4774L48.5434 48.7675L48.2536 48.3976H48.1739V48.4774ZM47.5755 48.5738L47.6459 48.6442L47.7164 48.5738L47.7867 48.5033H47.5052L47.5755 48.5738ZM50.9317 49.6657H51.0373L50.9068 49.4544H50.8012L50.9317 49.6657ZM51.4472 50.2738L51.8167 50.5639L51.5269 50.1941H51.4472V50.2738ZM52.1987 51.1451H52.3043L52.1738 50.9338H52.0682L52.1987 51.1451ZM52.7142 51.7533L53.0838 52.0433L52.794 51.6735H52.7142V51.7533ZM29.4977 52.0125L29.6253 51.8848L29.2205 51.9015L29.4977 52.0125ZM37.0898 52.0047L37.5621 51.9135L36.5062 51.9165L37.0898 52.0047ZM26.5631 52.061L26.6336 52.1313L26.704 52.061L26.7743 51.9905H26.4928L26.5631 52.061ZM40.677 52.1108L41.1522 52.0192H40.2019L40.677 52.1108ZM43.1056 52.2174L43.4751 52.1207H42.736L43.1056 52.2174ZM23.3955 52.2723L23.4659 52.3427L23.5363 52.2723L23.6066 52.2018H23.3251L23.3955 52.2723ZM45.1118 52.3251L45.3758 52.2185H44.8478L45.1118 52.3251ZM46.8012 52.4308L47.0652 52.3242H46.5372L46.8012 52.4308ZM21.1561 52.5408L21.2837 52.4132L20.8789 52.4299L21.1561 52.5408ZM53.8029 52.9415H53.9085L53.5262 52.5188H53.4206L53.8029 52.9415ZM13.998 53.329L14.0684 53.3994L14.1388 53.329L14.2092 53.2585H13.9276L13.998 53.329ZM54.2981 53.5497L54.6676 53.8397L54.3778 53.4699H54.2981V53.5497ZM32.0318 54.1259L32.1594 53.9982L31.7547 54.0149L32.0318 54.1259ZM8.68332 54.3504L8.75375 54.2801L8.82407 54.2096L8.75375 54.1391L8.68332 54.0687V54.3504ZM28.6398 54.2236L29.2205 54.1356H28.059L28.6398 54.2236ZM37.4075 54.2232L37.9845 54.1356L36.7174 54.1377L37.4075 54.2232ZM25.824 54.2801L25.8944 54.3504L25.9649 54.2801L26.0352 54.2096H25.7537L25.824 54.2801ZM40.479 54.3372L40.6066 54.2096L40.2019 54.2263L40.479 54.3372ZM23.7122 54.3857L23.7827 54.4561L23.8531 54.3857L23.9234 54.3153H23.6419L23.7122 54.3857ZM42.5776 54.4365L42.9472 54.3398H42.2081L42.5776 54.4365ZM22.0228 54.4914L22.0932 54.5618L22.1636 54.4914L22.234 54.4209H21.9525L22.0228 54.4914ZM44.5838 54.5442L44.8478 54.4376H44.3199L44.5838 54.5442ZM46.0621 54.6499L46.3261 54.5433H45.7981L46.0621 54.6499ZM55.2484 54.6064L55.618 54.8965L55.3281 54.5266H55.2484V54.6064ZM19.4886 54.7028L19.5591 54.7731L19.6295 54.7028L19.6998 54.6323H19.4183L19.4886 54.7028ZM47.7647 54.7599L47.8923 54.6323L47.4875 54.649L47.7647 54.7599ZM49.1374 54.8656L49.2649 54.7379L48.8602 54.7546L49.1374 54.8656ZM50.3913 54.9669L50.6552 54.8603H50.1273L50.3913 54.9669ZM51.7771 55.0769L51.9047 54.9493L51.5 54.966L51.7771 55.0769ZM15.1595 55.1254L15.2299 55.1958L15.3003 55.1254L15.3706 55.055H15.0891L15.1595 55.1254ZM52.855 55.1254L52.9254 55.1958L52.9958 55.1254L53.0662 55.055H52.7847L52.855 55.1254ZM54.1001 55.2883L54.2277 55.1606L53.8229 55.1773L54.1001 55.2883ZM55.2616 55.394L55.3891 55.2663L54.9844 55.283L55.2616 55.394ZM8.82407 55.9708L8.8945 56.0412L8.96493 55.9708L9.03525 55.9003H8.75375L8.82407 55.9708ZM32.3706 57.7672L32.441 57.8376L32.5114 57.7672L32.5818 57.6968H32.3003L32.3706 57.7672ZM33.5009 57.8187L33.7609 57.7135L33.1273 57.7213L33.5009 57.8187ZM37.9317 57.8201L38.1957 57.7135H37.6677L37.9317 57.8201ZM38.9171 57.7672L38.9876 57.8376L39.058 57.7672L39.1283 57.6968H38.8468L38.9171 57.7672ZM28.1118 57.9228L28.587 57.8312H27.6367L28.1118 57.9228ZM42.7888 57.9236L43.1584 57.8269H42.4192L42.7888 57.9236ZM45.2525 57.9786L45.323 58.049L45.3934 57.9786L45.4637 57.9081H45.1822L45.2525 57.9786ZM22.9511 58.1414L23.0787 58.0138L22.674 58.0305L22.9511 58.1414ZM47.0256 58.1414L47.1531 58.0138L46.7484 58.0305L47.0256 58.1414ZM20.417 58.2471L20.5445 58.1194L20.1398 58.1361L20.417 58.2471ZM16.5321 58.4013L16.6026 58.4716L16.673 58.4013L16.7433 58.3308H16.4618L16.5321 58.4013ZM51.6935 58.4013L51.7639 58.4716L51.8344 58.4013L51.9047 58.3308H51.6232L51.6935 58.4013ZM53.1718 58.5069L53.2422 58.5773L53.3126 58.5069L53.3829 58.4365H53.1014L53.1718 58.5069ZM13.3644 58.6126L13.4349 58.683L13.5053 58.6126L13.5756 58.5421H13.2941L13.3644 58.6126ZM54.1221 58.6126L54.1925 58.683L54.2629 58.6126L54.3332 58.5421H54.0517L54.1221 58.6126ZM58.1421 58.8755L58.0667 58.9975L58.1885 58.922L58.3105 58.8467V58.7535H58.2174L58.1421 58.8755ZM9.24643 58.9296L9.31686 59L9.38729 58.9296L9.45761 58.8591H9.17611L9.24643 58.9296ZM57.2898 58.9296L57.3602 59L57.4306 58.9296L57.5009 58.8591H57.2194L57.2898 58.9296Z" fill="white"/>
<path fill-rule="evenodd" clip-rule="evenodd" d="M35.1863 27.2985L35.2568 27.2281L35.3271 27.1576L35.2568 27.0872L35.1863 27.0168V27.2985ZM35.8199 29.9403L35.8903 29.8699L35.9606 29.7994L35.8903 29.729L35.8199 29.6586V29.9403ZM31.0055 30.5555L30.9301 30.6775L31.052 30.602L31.1739 30.5267V30.4335H31.0808L31.0055 30.5555ZM37.4037 33.1104L37.4742 33.0401L37.5445 32.9696L37.4742 32.8991L37.4037 32.8287V33.1104ZM61.0683 34.2376H61.1739L61.0434 34.0263H60.9378L61.0683 34.2376ZM28.3758 34.6075L28.7454 34.3174V34.2376H28.6657L28.3758 34.6075ZM26.2464 36.2102L26.3168 36.2806L26.3872 36.2102L26.4576 36.1397H26.1761L26.2464 36.2102ZM22.707 36.6343L22.8455 36.6898L22.9731 36.5621L22.7708 36.5705L22.5684 36.5791L22.707 36.6343ZM58.5341 36.7738H58.6397L58.5092 36.5624H58.4036L58.5341 36.7738ZM55.6832 36.8794H55.7888L55.6583 36.6681H55.5527L55.6832 36.8794ZM27.2803 38.4862L27.4079 38.3586L27.0031 38.3753L27.2803 38.4862ZM27.5135 38.4293L27.5839 38.4997L27.6543 38.4293L27.7246 38.3588H27.4431L27.5135 38.4293ZM30.5536 38.4865L30.6811 38.3588L30.2764 38.3755L30.5536 38.4865ZM30.9628 38.4822L31.2267 38.3755H30.6988L30.9628 38.4822ZM24.9793 38.5347L25.0497 38.6051L25.1905 38.4645L25.0497 38.4642H24.909L24.9793 38.5347ZM21.1781 38.852L21.2485 38.9224L21.3189 38.852L21.3893 38.7815H21.1077L21.1781 38.852ZM20.2058 39.0148L20.3334 38.8872L19.9286 38.9039L20.2058 39.0148ZM38.5777 39.4156H38.6833L38.5527 39.2042H38.4472L38.5777 39.4156ZM57.6894 39.6269H57.795L57.6645 39.4156H57.5589L57.6894 39.6269ZM58.0062 40.0496H58.1118L57.9813 39.8382H57.8757L58.0062 40.0496ZM13.6888 40.1716L13.6134 40.2936L13.8572 40.1428V40.0496H13.7641L13.6888 40.1716ZM58.3229 40.4723H58.4285L58.298 40.2609H58.1924L58.3229 40.4723ZM39.4099 40.4464L39.7795 40.7365L39.4897 40.3666H39.4099V40.4464ZM61.3851 40.7893H61.4906L61.3601 40.5779H61.2545L61.3851 40.7893ZM58.6397 40.895H58.7453L58.6148 40.6836H58.5092L58.6397 40.895ZM39.0227 40.8598L39.0932 40.9301L39.1636 40.8598L39.2339 40.7893H38.9524L39.0227 40.8598ZM61.7018 41.212H61.8074L61.6769 41.0006H61.5713L61.7018 41.212ZM1.54599 41.334L1.4706 41.456L1.7144 41.3052V41.212H1.62127L1.54599 41.334ZM42.6957 41.846H42.8013L42.6708 41.6347H42.5652L42.6957 41.846ZM62.2298 41.9517H62.3354L62.2049 41.7403H62.0993L62.2298 41.9517ZM43.0124 42.2687H43.118L42.9875 42.0574H42.8819L43.0124 42.2687ZM59.6956 42.2687H59.8012L59.6707 42.0574H59.5651L59.6956 42.2687ZM62.5465 42.3744H62.6521L62.5216 42.163H62.416L62.5465 42.3744ZM43.3292 42.6914H43.4348L43.3043 42.48H43.1987L43.3292 42.6914ZM62.8633 42.7971H62.9689L62.8384 42.5857H62.7328L62.8633 42.7971ZM63.1801 43.2197H63.2857L63.1552 43.0084H63.0496L63.1801 43.2197ZM46.4969 44.1708H46.6025L46.472 43.9594H46.3664L46.4969 44.1708ZM61.1739 44.1708H61.2795L61.149 43.9594H61.0434L61.1739 44.1708ZM61.5962 44.6991H61.7018L61.5713 44.4878H61.4657L61.5962 44.6991ZM47.236 45.1218H47.3416L47.2111 44.9105H47.1055L47.236 45.1218ZM62.3354 45.6502H62.4409L62.3104 45.4388H62.2049L62.3354 45.6502ZM48.9255 47.2353H49.0311L48.9005 47.0239H48.795L48.9255 47.2353ZM49.4534 47.8693H49.559L49.4285 47.6579H49.3229L49.4534 47.8693ZM49.8758 48.3976H49.9814L49.8509 48.1863H49.7453L49.8758 48.3976ZM48.1739 48.4774L48.5434 48.7675L48.2536 48.3976H48.1739V48.4774ZM50.9317 49.6657H51.0373L50.9068 49.4544H50.8012L50.9317 49.6657ZM51.4472 50.2738L51.8167 50.5639L51.5269 50.1941H51.4472V50.2738ZM52.1987 51.1451H52.3043L52.1738 50.9338H52.0682L52.1987 51.1451ZM52.7142 51.7533L53.0838 52.0433L52.794 51.6735H52.7142V51.7533ZM29.4977 52.0125L29.6253 51.8848L29.2205 51.9015L29.4977 52.0125ZM37.0898 52.0047L37.5621 51.9135L36.5062 51.9165L37.0898 52.0047ZM26.5631 52.061L26.6336 52.1313L26.704 52.061L26.7743 51.9905H26.4928L26.5631 52.061ZM40.677 52.1108L41.1522 52.0192H40.2019L40.677 52.1108ZM43.1056 52.2174L43.4751 52.1207H42.736L43.1056 52.2174ZM23.3955 52.2723L23.4659 52.3427L23.5363 52.2723L23.6066 52.2018H23.3251L23.3955 52.2723ZM45.1118 52.3251L45.3758 52.2185H44.8478L45.1118 52.3251ZM46.8012 52.4308L47.0652 52.3242H46.5372L46.8012 52.4308ZM21.1561 52.5408L21.2837 52.4132L20.8789 52.4299L21.1561 52.5408ZM53.8029 52.9415H53.9085L53.5262 52.5188H53.4206L53.8029 52.9415ZM13.998 53.329L14.0684 53.3994L14.1388 53.329L14.2092 53.2585H13.9276L13.998 53.329ZM54.2981 53.5497L54.6676 53.8397L54.3778 53.4699H54.2981V53.5497ZM32.0318 54.1259L32.1594 53.9982L31.7547 54.0149L32.0318 54.1259ZM8.68332 54.3504L8.75375 54.2801L8.82407 54.2096L8.75375 54.1391L8.68332 54.0687V54.3504ZM28.6398 54.2236L29.2205 54.1356H28.059L28.6398 54.2236ZM37.4075 54.2232L37.9845 54.1356L36.7174 54.1377L37.4075 54.2232ZM25.824 54.2801L25.8944 54.3504L25.9649 54.2801L26.0352 54.2096H25.7537L25.824 54.2801ZM40.479 54.3372L40.6066 54.2096L40.2019 54.2263L40.479 54.3372ZM23.7122 54.3857L23.7827 54.4561L23.8531 54.3857L23.9234 54.3153H23.6419L23.7122 54.3857ZM42.5776 54.4365L42.9472 54.3398H42.2081L42.5776 54.4365ZM22.0228 54.4914L22.0932 54.5618L22.1636 54.4914L22.234 54.4209H21.9525L22.0228 54.4914ZM44.5838 54.5442L44.8478 54.4376H44.3199L44.5838 54.5442ZM46.0621 54.6499L46.3261 54.5433H45.7981L46.0621 54.6499ZM55.2484 54.6064L55.618 54.8965L55.3281 54.5266H55.2484V54.6064ZM19.4886 54.7028L19.5591 54.7731L19.6295 54.7028L19.6998 54.6323H19.4183L19.4886 54.7028ZM47.7647 54.7599L47.8923 54.6323L47.4875 54.649L47.7647 54.7599ZM49.1374 54.8656L49.2649 54.7379L48.8602 54.7546L49.1374 54.8656ZM50.3913 54.9669L50.6552 54.8603H50.1273L50.3913 54.9669ZM51.7771 55.0769L51.9047 54.9493L51.5 54.966L51.7771 55.0769ZM15.1595 55.1254L15.2299 55.1958L15.3003 55.1254L15.3706 55.055H15.0891L15.1595 55.1254ZM52.855 55.1254L52.9254 55.1958L52.9958 55.1254L53.0662 55.055H52.7847L52.855 55.1254ZM54.1001 55.2883L54.2277 55.1606L53.8229 55.1773L54.1001 55.2883ZM55.2616 55.394L55.3891 55.2663L54.9844 55.283L55.2616 55.394ZM8.82407 55.9708L8.8945 56.0412L8.96493 55.9708L9.03525 55.9003H8.75375L8.82407 55.9708ZM32.3706 57.7672L32.441 57.8376L32.5114 57.7672L32.5818 57.6968H32.3003L32.3706 57.7672ZM38.9171 57.7672L38.9876 57.8376L39.058 57.7672L39.1283 57.6968H38.8468L38.9171 57.7672ZM28.0103 57.9241L28.2702 57.8188L27.6367 57.8267L28.0103 57.9241ZM42.8984 57.9241L43.1584 57.8188L42.5248 57.8267L42.8984 57.9241ZM20.2278 58.1896L20.2982 58.26L20.3686 58.1896L20.4389 58.1192H20.1574L20.2278 58.1896ZM16.5321 58.4013L16.6026 58.4716L16.673 58.4013L16.7433 58.3308H16.4618L16.5321 58.4013ZM58.1421 58.8755L58.0667 58.9975L58.1885 58.922L58.3105 58.8467V58.7535H58.2174L58.1421 58.8755Z" fill="#AAAAAA"/>
<path fill-rule="evenodd" clip-rule="evenodd" d="M35.1851 27.2982L35.2556 27.2278L35.3259 27.1574L35.2556 27.0869L35.1851 27.0165V27.2982ZM35.8187 29.94L35.8891 29.8696L35.9594 29.7992L35.8891 29.7287L35.8187 29.6583V29.94ZM31.0043 30.5552L30.9289 30.6772L31.0508 30.6017L31.1727 30.5264V30.4332H31.0796L31.0043 30.5552ZM37.4025 33.1102L37.473 33.0398L37.5433 32.9693L37.473 32.8988L37.4025 32.8284V33.1102ZM28.3746 34.6072L28.7442 34.3171V34.2374H28.6645L28.3746 34.6072ZM58.5329 36.7735H58.6385L58.508 36.5621H58.4024L58.5329 36.7735ZM55.682 36.8792H55.7876L55.6571 36.6678H55.5515L55.682 36.8792ZM27.5123 38.429L27.5827 38.4994L27.6531 38.429L27.7234 38.3586H27.4419L27.5123 38.429ZM30.5524 38.4862L30.68 38.3586L30.2752 38.3753L30.5524 38.4862ZM21.1769 38.8517L21.2473 38.9221L21.3177 38.8517L21.3881 38.7812H21.1066L21.1769 38.8517ZM20.2046 39.0146L20.3322 38.8869L19.9274 38.9036L20.2046 39.0146ZM38.5765 39.4153H38.6821L38.5516 39.2039H38.446L38.5765 39.4153ZM57.6882 39.6266H57.7938L57.6633 39.4153H57.5577L57.6882 39.6266ZM58.005 40.0493H58.1106L57.9801 39.838H57.8745L58.005 40.0493ZM13.6876 40.1714L13.6122 40.2933L13.856 40.1425V40.0493H13.7629L13.6876 40.1714ZM58.3218 40.472H58.4273L58.2968 40.2607H58.1912L58.3218 40.472ZM39.4087 40.4461L39.7783 40.7362L39.4885 40.3663H39.4087V40.4461ZM61.3839 40.789H61.4894L61.3589 40.5777H61.2533L61.3839 40.789ZM58.6385 40.8947H58.7441L58.6136 40.6833H58.508L58.6385 40.8947ZM39.0215 40.8595L39.092 40.9299L39.1624 40.8595L39.2327 40.789H38.9512L39.0215 40.8595ZM61.7006 41.2117H61.8062L61.6757 41.0004H61.5701L61.7006 41.2117ZM62.2286 41.9514H62.3342L62.2037 41.7401H62.0981L62.2286 41.9514ZM43.0112 42.2684H43.1168L42.9863 42.0571H42.8807L43.0112 42.2684ZM59.6944 42.2684H59.8L59.6695 42.0571H59.5639L59.6944 42.2684ZM62.5453 42.3741H62.6509L62.5204 42.1627H62.4148L62.5453 42.3741ZM43.328 42.6911H43.4336L43.3031 42.4798H43.1975L43.328 42.6911ZM62.8621 42.7968H62.9677L62.8372 42.5854H62.7316L62.8621 42.7968ZM63.1789 43.2195H63.2845L63.154 43.0081H63.0484L63.1789 43.2195ZM46.4957 44.1705H46.6013L46.4708 43.9592H46.3652L46.4957 44.1705ZM61.1727 44.1705H61.2783L61.1478 43.9592H61.0422L61.1727 44.1705ZM61.595 44.6989H61.7006L61.5701 44.4875H61.4645L61.595 44.6989ZM47.2348 45.1215H47.3404L47.2099 44.9102H47.1043L47.2348 45.1215ZM62.3342 45.6499H62.4398L62.3092 45.4386H62.2037L62.3342 45.6499ZM48.9243 47.235H49.0299L48.8994 47.0236H48.7938L48.9243 47.235ZM49.4522 47.869H49.5578L49.4273 47.6577H49.3217L49.4522 47.869ZM49.8746 48.3974H49.9802L49.8497 48.186H49.7441L49.8746 48.3974ZM48.1727 48.4771L48.5422 48.7672L48.2524 48.3974H48.1727V48.4771ZM50.9305 49.6654H51.0361L50.9056 49.4541H50.8L50.9305 49.6654ZM51.446 50.2736L51.8155 50.5636L51.5257 50.1938H51.446V50.2736ZM52.1976 51.1448H52.3031L52.1726 50.9335H52.067L52.1976 51.1448ZM52.713 51.753L53.0826 52.043L52.7928 51.6732H52.713V51.753ZM29.4965 52.0122L29.6241 51.8845L29.2193 51.9012L29.4965 52.0122ZM37.0886 52.0045L37.5609 51.9133L36.505 51.9162L37.0886 52.0045ZM26.562 52.0607L26.6324 52.1311L26.7028 52.0607L26.7731 51.9902H26.4916L26.562 52.0607ZM40.6758 52.1106L41.151 52.0189H40.2007L40.6758 52.1106ZM43.1044 52.2171L43.4739 52.1204H42.7348L43.1044 52.2171ZM23.3943 52.272L23.4647 52.3424L23.5351 52.272L23.6054 52.2015H23.3239L23.3943 52.272ZM45.1106 52.3249L45.3746 52.2182H44.8466L45.1106 52.3249ZM46.8 52.4305L47.064 52.3239H46.536L46.8 52.4305ZM21.1549 52.5405L21.2825 52.4129L20.8777 52.4296L21.1549 52.5405ZM53.8017 52.9412H53.9073L53.525 52.5186H53.4194L53.8017 52.9412ZM13.9968 53.3287L14.0672 53.3991L14.1376 53.3287L14.208 53.2583H13.9265L13.9968 53.3287ZM54.2969 53.5494L54.6665 53.8395L54.3766 53.4696H54.2969V53.5494ZM32.0307 54.1256L32.1582 53.998L31.7535 54.0147L32.0307 54.1256ZM28.6386 54.2234L29.2193 54.1353H28.0578L28.6386 54.2234ZM37.4063 54.2229L37.9833 54.1353L36.7162 54.1374L37.4063 54.2229ZM25.8228 54.2798L25.8933 54.3502L25.9637 54.2798L26.034 54.2093H25.7525L25.8228 54.2798ZM40.4778 54.337L40.6054 54.2093L40.2007 54.226L40.4778 54.337ZM23.711 54.3855L23.7815 54.4558L23.8519 54.3855L23.9222 54.315H23.6407L23.711 54.3855ZM42.5764 54.4362L42.946 54.3395H42.2069L42.5764 54.4362ZM22.0216 54.4911L22.092 54.5615L22.1625 54.4911L22.2328 54.4206H21.9513L22.0216 54.4911ZM44.5826 54.544L44.8466 54.4373H44.3187L44.5826 54.544ZM46.0609 54.6496L46.3249 54.543H45.7969L46.0609 54.6496ZM55.2472 54.6061L55.6168 54.8962L55.3269 54.5263H55.2472V54.6061ZM19.4874 54.7025L19.5579 54.7729L19.6283 54.7025L19.6986 54.632H19.4171L19.4874 54.7025ZM47.7635 54.7596L47.8911 54.632L47.4864 54.6487L47.7635 54.7596ZM49.1362 54.8653L49.2637 54.7377L48.859 54.7544L49.1362 54.8653ZM50.3901 54.9667L50.654 54.86H50.1261L50.3901 54.9667ZM51.7759 55.0767L51.9035 54.949L51.4988 54.9657L51.7759 55.0767ZM15.1583 55.1252L15.2287 55.1955L15.2991 55.1252L15.3694 55.0547H15.0879L15.1583 55.1252ZM52.8538 55.1252L52.9242 55.1955L52.9947 55.1252L53.065 55.0547H52.7835L52.8538 55.1252ZM54.0989 55.288L54.2265 55.1604L53.8217 55.177L54.0989 55.288ZM55.2604 55.3937L55.3879 55.266L54.9832 55.2827L55.2604 55.3937ZM8.82288 55.9705L8.89331 56.0409L8.96374 55.9705L9.03406 55.9001H8.75256L8.82288 55.9705ZM32.3694 57.767L32.4398 57.8373L32.5102 57.767L32.5806 57.6965H32.2991L32.3694 57.767ZM38.916 57.767L38.9864 57.8373L39.0568 57.767L39.1271 57.6965H38.8456L38.916 57.767ZM28.0402 57.8726L28.1106 57.943L28.1811 57.8726L28.2514 57.8021H27.9699L28.0402 57.8726ZM42.6116 57.8726L42.682 57.943L42.7524 57.8726L42.8228 57.8021H42.5413L42.6116 57.8726Z" fill="#808080"/>
<path d="M296.633 51.9808C296.422 51.9808 296.212 51.9621 296.001 51.9247C295.79 51.8873 295.561 51.8437 295.312 51.7938L295.48 49.6816C295.654 49.7315 295.84 49.7564 296.038 49.7564C296.559 49.7564 296.974 49.5446 297.284 49.1209C297.594 48.6847 297.818 48.0492 297.954 47.2143C298.09 46.3794 298.183 45.3513 298.233 44.1301L298.419 38.7095H307.999V51.7938H305.618V40.1674L306.176 40.7656H299.982L300.503 40.1488L300.372 44.0367C300.335 45.3327 300.248 46.4729 300.112 47.4573C299.976 48.4417 299.765 49.2704 299.479 49.9433C299.207 50.6038 298.841 51.1085 298.382 51.4574C297.923 51.8063 297.34 51.9808 296.633 51.9808Z" fill="#2E3537"/>
<path d="M280.741 51.7938L286.601 38.7095H288.982L294.861 51.7938H292.331L287.289 39.9992H288.257L283.234 51.7938H280.741ZM283.439 48.7657L284.09 46.8592H291.121L291.773 48.7657H283.439Z" fill="#2E3537"/>
<path d="M274.249 51.7938V40.1674L274.826 40.7656H269.952V38.7095H280.965V40.7656H276.091L276.649 40.1674V51.7938H274.249Z" fill="#2E3537"/>
<path d="M265.466 51.7938V38.7095H267.847V51.7938H265.466Z" fill="#2E3537"/>
<path d="M250.261 51.7938V38.7095H261.776V51.7938H259.395V40.1674L259.953 40.7656H252.084L252.642 40.1674V51.7938H250.261Z" fill="#2E3537"/>
<path d="M234.126 51.7938L239.986 38.7095H242.367L248.245 51.7938H245.715L240.674 39.9992H241.641L236.619 51.7938H234.126ZM236.823 48.7657L237.474 46.8592H244.506L245.157 48.7657H236.823Z" fill="#2E3537"/>
<path d="M231.623 51.7938L227.214 45.4199L229.167 44.2049L234.357 51.7938H231.623ZM223.01 51.7938V38.7095H225.391V51.7938H223.01ZM224.665 46.2797V44.1862H229.056V46.2797H224.665ZM229.39 45.532L227.177 45.233L231.623 38.7095H234.19L229.39 45.532Z" fill="#2E3537"/>
<path d="M202.592 51.7938V38.7095H204.973V47.9994L211.967 38.7095H214.218V51.7938H211.837V42.5226L204.843 51.7938H202.592ZM208.377 37.8309C207.261 37.8309 206.418 37.5942 205.847 37.1206C205.289 36.6471 205.004 35.9804 204.992 35.1206H206.684C206.697 35.5817 206.846 35.9368 207.131 36.186C207.428 36.4353 207.844 36.5599 208.377 36.5599C208.91 36.5599 209.326 36.4353 209.624 36.186C209.934 35.9368 210.095 35.5817 210.107 35.1206H211.781C211.769 35.9804 211.478 36.6471 210.907 37.1206C210.337 37.5942 209.493 37.8309 208.377 37.8309Z" fill="#2E3537"/>
<path d="M187.295 51.7938V38.7095H189.676V47.9994L196.671 38.7095H198.922V51.7938H196.54V42.5226L189.546 51.7938H187.295Z" fill="#2E3537"/>
<path d="M173.416 51.7938V38.7095H179.239C180.702 38.7095 181.843 39.0023 182.661 39.588C183.48 40.1612 183.889 40.9899 183.889 42.074C183.889 43.1457 183.499 43.9744 182.717 44.5601C181.936 45.1333 180.907 45.4199 179.629 45.4199L179.964 44.747C181.415 44.747 182.537 45.0398 183.331 45.6255C184.125 46.2112 184.522 47.0585 184.522 48.1676C184.522 49.3016 184.106 50.1926 183.275 50.8405C182.444 51.4761 181.217 51.7938 179.592 51.7938H173.416ZM175.797 49.9246H179.518C180.361 49.9246 181 49.7689 181.434 49.4573C181.868 49.1333 182.085 48.6411 182.085 47.9807C182.085 47.3202 181.868 46.8405 181.434 46.5414C181 46.2299 180.361 46.0741 179.518 46.0741H175.797V49.9246ZM175.797 44.2984H179.034C179.815 44.2984 180.411 44.1426 180.82 43.8311C181.229 43.5071 181.434 43.046 181.434 42.4479C181.434 41.8248 181.229 41.3575 180.82 41.046C180.411 40.7344 179.815 40.5787 179.034 40.5787H175.797V44.2984Z" fill="#2E3537"/>
<path d="M163.729 51.9807C162.712 51.9807 161.776 51.8124 160.92 51.476C160.064 51.1395 159.32 50.6722 158.688 50.0741C158.055 49.4635 157.565 48.7532 157.218 47.9432C156.871 47.1208 156.697 46.2235 156.697 45.2516C156.697 44.2796 156.871 43.3886 157.218 42.5786C157.565 41.7562 158.055 41.0459 158.688 40.4477C159.32 39.8371 160.064 39.3636 160.92 39.0271C161.776 38.6907 162.706 38.5225 163.71 38.5225C164.727 38.5225 165.658 38.6907 166.501 39.0271C167.357 39.3636 168.101 39.8371 168.733 40.4477C169.366 41.0459 169.855 41.7562 170.203 42.5786C170.55 43.3886 170.724 44.2796 170.724 45.2516C170.724 46.2235 170.55 47.1208 170.203 47.9432C169.855 48.7656 169.366 49.4759 168.733 50.0741C168.101 50.6722 167.357 51.1395 166.501 51.476C165.658 51.8124 164.734 51.9807 163.729 51.9807ZM163.71 49.8498C164.368 49.8498 164.975 49.7376 165.533 49.5133C166.092 49.289 166.575 48.9713 166.984 48.56C167.394 48.1363 167.71 47.6504 167.933 47.1021C168.169 46.5413 168.287 45.9245 168.287 45.2516C168.287 44.5787 168.169 43.968 167.933 43.4197C167.71 42.859 167.394 42.373 166.984 41.9618C166.575 41.5381 166.092 41.2141 165.533 40.9898C164.975 40.7655 164.368 40.6533 163.71 40.6533C163.053 40.6533 162.445 40.7655 161.887 40.9898C161.342 41.2141 160.858 41.5381 160.436 41.9618C160.027 42.373 159.705 42.859 159.469 43.4197C159.246 43.968 159.134 44.5787 159.134 45.2516C159.134 45.912 159.246 46.5226 159.469 47.0834C159.705 47.6441 160.027 48.1363 160.436 48.56C160.846 48.9713 161.329 49.289 161.887 49.5133C162.445 49.7376 163.053 49.8498 163.71 49.8498Z" fill="#2E3537"/>
<path d="M143.992 38.7095H146.782L149.852 43.0834L152.921 38.7095H155.749L151.377 44.99L156.102 51.7938H153.237L149.852 47.0274L146.485 51.7938H143.694L148.401 45.0834L143.992 38.7095Z" fill="#2E3537"/>
<path d="M129.814 51.7938L135.674 38.7095H138.055L143.934 51.7938H141.404L136.363 39.9992H137.33L132.307 51.7938H129.814ZM132.512 48.7657L133.163 46.8592H140.195L140.846 48.7657H132.512Z" fill="#2E3537"/>
<path d="M118.935 51.7938V38.7095H124.292C125.445 38.7095 126.431 38.8964 127.25 39.2702C128.081 39.6441 128.72 40.1799 129.166 40.8777C129.612 41.5756 129.836 42.4042 129.836 43.3638C129.836 44.3233 129.612 45.152 129.166 45.8498C128.72 46.5476 128.081 47.0835 127.25 47.4573C126.431 47.8311 125.445 48.0181 124.292 48.0181H120.274L121.353 46.8779V51.7938H118.935ZM121.353 47.1395L120.274 45.9619H124.18C125.247 45.9619 126.047 45.7376 126.58 45.289C127.126 44.828 127.399 44.1862 127.399 43.3638C127.399 42.5289 127.126 41.8871 126.58 41.4385C126.047 40.9899 125.247 40.7656 124.18 40.7656H120.274L121.353 39.5693V47.1395Z" fill="#2E3537"/>
<path d="M110.133 51.7938V40.1674L110.71 40.7656H105.836V38.7095H116.849V40.7656H111.975L112.533 40.1674V51.7938H110.133Z" fill="#2E3537"/>
<path d="M100.126 51.9807C99.1342 51.9807 98.2102 51.8187 97.3545 51.4947C96.5112 51.1582 95.7733 50.6909 95.1408 50.0928C94.5207 49.4822 94.0371 48.7656 93.6898 47.9432C93.3426 47.1208 93.1689 46.2235 93.1689 45.2516C93.1689 44.2796 93.3426 43.3824 93.6898 42.5599C94.0371 41.7375 94.5269 41.0272 95.1594 40.429C95.7919 39.8184 96.5298 39.3511 97.3731 39.0271C98.2164 38.6907 99.1404 38.5225 100.145 38.5225C101.211 38.5225 102.185 38.7094 103.066 39.0832C103.946 39.4446 104.69 39.9867 105.298 40.7094L103.735 42.1861C103.264 41.6752 102.737 41.2951 102.154 41.0459C101.571 40.7842 100.939 40.6533 100.257 40.6533C99.5744 40.6533 98.9481 40.7655 98.3777 40.9898C97.8196 41.2141 97.3297 41.5319 96.9081 41.9431C96.4988 42.3543 96.1764 42.8403 95.9407 43.4011C95.7175 43.9618 95.6059 44.5787 95.6059 45.2516C95.6059 45.9245 95.7175 46.5413 95.9407 47.1021C96.1764 47.6628 96.4988 48.1488 96.9081 48.56C97.3297 48.9713 97.8196 49.289 98.3777 49.5133C98.9481 49.7376 99.5744 49.8498 100.257 49.8498C100.939 49.8498 101.571 49.7252 102.154 49.4759C102.737 49.2143 103.264 48.8217 103.735 48.2983L105.298 49.7937C104.69 50.504 103.946 51.0461 103.066 51.4199C102.185 51.7937 101.205 51.9807 100.126 51.9807Z" fill="#2E3537"/>
<path d="M242.122 23.6732V10.5889H244.503V19.8787L251.498 10.5889H253.749V23.6732H251.368V14.402L244.373 23.6732H242.122ZM247.907 9.71033C246.791 9.71033 245.948 9.47357 245.378 9.00004C244.819 8.52651 244.534 7.85983 244.522 7H246.215C246.227 7.46107 246.376 7.81621 246.661 8.06544C246.959 8.31467 247.374 8.43928 247.907 8.43928C248.441 8.43928 248.856 8.31467 249.154 8.06544C249.464 7.81621 249.625 7.46107 249.638 7H251.312C251.299 7.85983 251.008 8.52651 250.437 9.00004C249.867 9.47357 249.024 9.71033 247.907 9.71033Z" fill="#2E3537"/>
<path d="M226.826 23.6732V10.5889H229.207V19.8788L236.202 10.5889H238.453V23.6732H236.072V14.402L229.077 23.6732H226.826Z" fill="#2E3537"/>
<path d="M220.736 10.5889H223.155V23.6732H220.736V10.5889ZM214.002 23.6732H211.584V10.5889H214.002V23.6732ZM220.922 18.0656H213.798V15.9908H220.922V18.0656Z" fill="#2E3537"/>
<path d="M196.306 23.6732V10.5889H198.687V19.8787L205.681 10.5889H207.932V23.6732H205.551V14.402L198.557 23.6732H196.306ZM202.091 9.71033C200.975 9.71033 200.132 9.47357 199.561 9.00004C199.003 8.52651 198.718 7.85983 198.705 7H200.398C200.411 7.46107 200.559 7.81621 200.845 8.06544C201.142 8.31467 201.558 8.43928 202.091 8.43928C202.624 8.43928 203.04 8.31467 203.337 8.06544C203.647 7.81621 203.809 7.46107 203.821 7H205.495C205.483 7.85983 205.191 8.52651 204.621 9.00004C204.051 9.47357 203.207 9.71033 202.091 9.71033Z" fill="#2E3537"/>
<path d="M190.238 23.6732V10.5889H192.619V23.6732H190.238Z" fill="#2E3537"/>
<path d="M174.725 23.6732V10.5889H177.106V21.6171H183.672V10.5889H186.072V23.6732H174.725ZM185.775 26.5518V23.0751L186.314 23.6732H183.672V21.6171H188.007V26.5518H185.775Z" fill="#2E3537"/>
<path d="M158.59 23.6732L164.45 10.5889H166.831L172.709 23.6732H170.179L165.138 11.8786H166.105L161.083 23.6732H158.59ZM161.287 20.6451L161.938 18.7386H168.97L169.621 20.6451H161.287Z" fill="#2E3537"/>
<path d="M146.385 23.6732V10.5889H152.207C153.671 10.5889 154.812 10.8817 155.63 11.4674C156.449 12.0406 156.858 12.8693 156.858 13.9534C156.858 15.0251 156.467 15.8538 155.686 16.4394C154.905 17.0127 153.875 17.2993 152.598 17.2993L152.933 16.6264C154.384 16.6264 155.506 16.9192 156.3 17.5049C157.094 18.0906 157.491 18.9379 157.491 20.047C157.491 21.181 157.075 22.0719 156.244 22.7199C155.413 23.3555 154.185 23.6732 152.561 23.6732H146.385ZM148.766 21.804H152.486C153.33 21.804 153.968 21.6483 154.402 21.3367C154.837 21.0127 155.054 20.5205 155.054 19.8601C155.054 19.1996 154.837 18.7199 154.402 18.4208C153.968 18.1093 153.33 17.9535 152.486 17.9535H148.766V21.804ZM148.766 16.1778H152.003C152.784 16.1778 153.379 16.022 153.789 15.7105C154.198 15.3865 154.402 14.9254 154.402 14.3273C154.402 13.7042 154.198 13.2369 153.789 12.9254C153.379 12.6138 152.784 12.4581 152.003 12.4581H148.766V16.1778Z" fill="#2E3537"/>
<path d="M136.697 23.8601C135.68 23.8601 134.744 23.6918 133.888 23.3554C133.032 23.0189 132.288 22.5516 131.656 21.9535C131.023 21.3429 130.533 20.6326 130.186 19.8226C129.839 19.0001 129.665 18.1029 129.665 17.131C129.665 16.159 129.839 15.268 130.186 14.458C130.533 13.6356 131.023 12.9253 131.656 12.3271C132.288 11.7165 133.032 11.243 133.888 10.9065C134.744 10.5701 135.674 10.4019 136.678 10.4019C137.695 10.4019 138.625 10.5701 139.469 10.9065C140.324 11.243 141.068 11.7165 141.701 12.3271C142.333 12.9253 142.823 13.6356 143.171 14.458C143.518 15.268 143.691 16.159 143.691 17.131C143.691 18.1029 143.518 19.0001 143.171 19.8226C142.823 20.645 142.333 21.3553 141.701 21.9535C141.068 22.5516 140.324 23.0189 139.469 23.3554C138.625 23.6918 137.701 23.8601 136.697 23.8601ZM136.678 21.7292C137.336 21.7292 137.943 21.617 138.501 21.3927C139.059 21.1684 139.543 20.8506 139.952 20.4394C140.362 20.0157 140.678 19.5298 140.901 18.9815C141.137 18.4207 141.254 17.8039 141.254 17.131C141.254 16.458 141.137 15.8474 140.901 15.2991C140.678 14.7384 140.362 14.2524 139.952 13.8412C139.543 13.4175 139.059 13.0935 138.501 12.8692C137.943 12.6449 137.336 12.5327 136.678 12.5327C136.021 12.5327 135.413 12.6449 134.855 12.8692C134.309 13.0935 133.826 13.4175 133.404 13.8412C132.995 14.2524 132.672 14.7384 132.437 15.2991C132.214 15.8474 132.102 16.458 132.102 17.131C132.102 17.7914 132.214 18.402 132.437 18.9628C132.672 19.5235 132.995 20.0157 133.404 20.4394C133.813 20.8506 134.297 21.1684 134.855 21.3927C135.413 21.617 136.021 21.7292 136.678 21.7292Z" fill="#2E3537"/>
<path d="M124.58 10.5889H126.999V23.6732H124.58V10.5889ZM117.846 23.6732H115.428V10.5889H117.846V23.6732ZM124.766 18.0656H117.641V15.9908H124.766V18.0656Z" fill="#2E3537"/>
<path d="M109.357 10.5889H111.775V23.6732H109.357V10.5889ZM102.622 23.6732H100.204V10.5889H102.622V23.6732ZM109.543 18.0656H102.418V15.9908H109.543V18.0656Z" fill="#2E3537"/>
<path d="M94.1553 23.6732V10.5889H96.5364V23.6732H94.1553Z" fill="#2E3537"/>
</svg>
