<svg width="57" height="66" viewBox="0 0 57 66" fill="none" xmlns="http://www.w3.org/2000/svg">
<path fill-rule="evenodd" clip-rule="evenodd" d="M21.2358 3.41891L20.6457 4.83781L19.5506 7.32955L18.4553 9.82129L16.964 12.7283L15.4728 15.6353L14.2577 17.7118L13.0427 19.7882L11.3482 22.3504L9.65379 24.9128L7.99637 27.1263L6.33895 29.3399L5.08588 30.8626L3.83281 32.3854L2.91959 33.4236L2.00637 34.4618L2.00318 34.625L2 34.7881L3.01967 36.1583L4.03935 37.5283L5.2837 39.3877L6.52818 41.247L6.73596 41.4194L6.94389 41.5921L8.52102 41.3113L10.0981 41.0306L12.7283 40.6218L15.3585 40.2132L18.0579 39.9353L20.7572 39.6574L24.5273 39.4892L28.2974 39.3208L32.1409 39.4889L35.9845 39.6568L37.1958 39.6549L38.4071 39.6529L38.397 39.5491L38.3869 39.4453L35.5885 35.5693L32.7901 31.6932L29.8192 31.7246L26.8482 31.7562L22.0031 31.9712L17.1581 32.1862L15.2201 32.3254L13.282 32.4645L10.9287 32.8073L8.57542 33.1499L7.08425 33.4049L5.59309 33.6597L5.78384 33.4378L5.97474 33.2159L7.16953 31.7195L8.36418 30.2229L9.51827 28.6741L10.6724 27.125L11.7819 25.5331L12.8915 23.9411L14.212 21.8647L15.5325 19.7882L16.59 17.9462L17.6474 16.1041L18.8138 13.8625L19.9801 11.6209L21.0754 9.19835L22.1708 6.77583L23.0905 4.46239L24.0104 2.14895V2.07448V2H22.9181H21.8259L21.2358 3.41891ZM26.1528 2.1185L26.0681 2.20322L25.682 3.03726L25.2961 3.87116L25.187 4.21612L25.0781 4.56095L24.489 6.01447L23.9 7.46798L23.4548 8.50621L23.0098 9.54443L22.5963 10.4442L22.1827 11.344L21.0435 13.6281L19.9044 15.9122L19.317 16.9983L18.7297 18.0844L18.1445 19.0748L17.5595 20.0651L17.4611 20.2727L17.3627 20.4804L17.1219 20.8546L16.8812 21.2287L16.3429 22.1004L15.8045 22.9721L14.1972 25.3747L12.5899 27.7773L11.9916 28.6813L11.3932 29.5852L12.4069 29.5145L13.4205 29.4436L17.8502 29.1274L22.28 28.8111L22.5391 28.591L22.7983 28.3709L23.413 27.3327L24.0279 26.2944L24.1922 26.0228L24.3564 25.7512L24.6754 25.2179L24.9942 24.6845L25.2637 24.209L25.5331 23.7335L25.8286 23.2144L26.1242 22.6953L26.5896 21.8647L27.0551 21.0341L28.8205 17.5041L30.5861 13.9742L30.8496 13.3513L31.1133 12.7283L31.4457 11.967L31.7782 11.2056L31.9031 10.9287L32.0279 10.6519L32.6565 9.15752L33.2852 7.66331V7.53512V7.40693L33.611 6.67616L33.937 5.94525L34.0309 5.67988L34.1249 5.41451L34.236 5.54145L34.3473 5.66839L34.665 6.42976L34.9827 7.19112L35.3228 7.95249L35.663 8.71385L35.9476 9.33678L36.2323 9.95972L37.386 12.313L38.5397 14.6663L39.1118 15.7046L39.6839 16.7428L39.995 17.2965L40.3059 17.8502L40.625 18.4039L40.9441 18.9577L41.1368 19.3037L41.3296 19.6498L41.5641 20.0232L41.7986 20.3965L42.455 21.4767L43.1113 22.5568L43.9085 23.7652L44.7056 24.9735L45.3621 25.9109L46.0185 26.8482L46.2581 27.1942L46.4979 27.5403L47.5326 28.9246L48.5674 30.3089L49.7312 31.7624L50.8948 33.2159L52.23 34.7657L53.5651 36.3155L53.7083 36.323L53.8514 36.3306L54.578 35.5949L55.3046 34.8591L55.0065 34.5912L54.7083 34.3234L53.2268 32.593L51.7453 30.8626L50.6884 29.528L49.6315 28.1933L48.9682 27.3125L48.3048 26.4315L48.0279 26.0321L47.7511 25.6326L47.4742 25.2439L47.1974 24.8553L45.8275 22.8063L44.4574 20.7573L44.1504 20.2727L43.8433 19.7882L43.1818 18.6808L42.5201 17.5734L42.2445 17.0889L41.9689 16.6044L41.5019 15.7738L41.0352 14.9432L39.3927 11.6209L37.7501 8.29856L37.3864 7.49885L37.0228 6.699V6.61996V6.54078L36.8214 6.10458L36.6201 5.66839L36.3295 4.90703L36.0389 4.14566L35.5561 3.10744L35.0731 2.06921L30.6554 2.0515L26.2376 2.03378L26.1528 2.1185ZM34.6243 12.537L34.4218 13.0052L33.4581 15.0124L32.4943 17.0196L31.3671 19.2744L30.2397 21.5291V21.7073V21.8853L31.8476 24.5745L33.4553 27.2635L35.1499 29.8244L36.8446 32.3854L38.4496 34.5641L40.0547 36.7427L41.4276 38.4402L42.8006 40.1374L43.8521 41.3833L44.9036 42.6292L44.9084 42.7082L44.9133 42.7873L43.0099 42.5475L41.1064 42.3077L38.7531 42.0907L36.3998 41.8736L33.2159 41.7143L30.0321 41.5548L26.2252 41.6391L22.4184 41.7233L20.5496 41.8704L18.6808 42.0175L16.271 42.2871L13.8612 42.5568L11.1996 42.9902L8.53804 43.4238L8.35878 43.5345L8.17951 43.6454L8.7803 44.4523L9.38122 45.2593L9.41043 45.2992L9.43964 45.3391L11.9146 45.0523L14.3895 44.7654L16.8812 44.4958L19.373 44.2261L21.7955 44.0039L24.218 43.7816L28.717 43.707L33.2159 43.6324L35.3616 43.7928L37.5073 43.9534L39.3761 44.1627L41.2449 44.372L43.9443 44.7816L46.6436 45.1914L47.0731 45.2715L47.5025 45.3517L48.8135 43.5752L50.1245 41.7986L51.3352 40.089L52.5459 38.3795L52.4803 38.2202L52.4145 38.061L49.1451 33.8389L45.8755 29.6168L44.3269 27.4416L42.7783 25.2666L41.4496 23.1503L40.1211 21.0341L37.5855 16.6736L35.05 12.313L34.9384 12.1909L34.8269 12.069L34.6243 12.537Z" fill="#808085"/>
<path fill-rule="evenodd" clip-rule="evenodd" d="M21.2358 3.41891L20.6457 4.83781L19.5506 7.32955L18.4553 9.82129L16.964 12.7283L15.4728 15.6353L14.2577 17.7118L13.0427 19.7882L11.3482 22.3504L9.65379 24.9128L7.99637 27.1263L6.33895 29.3399L5.08588 30.8626L3.83281 32.3854L2.91959 33.4236L2.00637 34.4618L2.00318 34.625L2 34.7881L3.01967 36.1583L4.03935 37.5283L5.2837 39.3877L6.52818 41.247L6.73596 41.4194L6.94389 41.5921L8.52102 41.3113L10.0981 41.0306L12.7283 40.6218L15.3585 40.2132L18.0579 39.9353L20.7573 39.6574L24.5273 39.4892L28.2974 39.3208L32.1409 39.4889L35.9845 39.6568L37.1958 39.6549L38.4071 39.6529L38.397 39.5491L38.3869 39.4453L35.5885 35.5693L32.7901 31.6932L29.8192 31.7246L26.8482 31.7562L22.0031 31.9712L17.1581 32.1862L15.2201 32.3254L13.282 32.4646L10.9287 32.8073L8.57542 33.1499L7.08425 33.4049L5.59309 33.6598L5.78384 33.4378L5.97474 33.2159L7.16953 31.7195L8.36418 30.223L9.51827 28.6741L10.6724 27.125L11.7819 25.5331L12.8915 23.9411L14.212 21.8647L15.5325 19.7882L16.59 17.9462L17.6474 16.1041L18.8138 13.8625L19.9801 11.6209L21.0754 9.19836L22.1708 6.77583L23.0905 4.46239L24.0104 2.14895V2.07448V2H22.9181H21.8259L21.2358 3.41891ZM34.6243 12.537L34.4218 13.0052L33.4581 15.0124L32.4943 17.0196L31.3671 19.2744L30.2397 21.5291V21.7073V21.8853L31.8476 24.5745L33.4553 27.2635L35.1499 29.8244L36.8446 32.3854L38.4496 34.5641L40.0547 36.7427L41.4276 38.4402L42.8006 40.1374L43.8521 41.3833L44.9036 42.6292L44.9084 42.7082L44.9133 42.7873L43.0099 42.5475L41.1064 42.3077L38.7531 42.0907L36.3998 41.8736L33.2159 41.7143L30.0321 41.5548L26.2252 41.6391L22.4184 41.7233L20.5496 41.8704L18.6808 42.0175L16.271 42.2871L13.8612 42.5568L11.1996 42.9902L8.53804 43.4238L8.35878 43.5345L8.17951 43.6454L8.7803 44.4523L9.38122 45.2593L9.41043 45.2992L9.43964 45.3391L11.9146 45.0523L14.3895 44.7654L16.8812 44.4958L19.373 44.2261L21.7955 44.0039L24.218 43.7816L28.717 43.707L33.2159 43.6324L35.3616 43.7928L37.5073 43.9534L39.3761 44.1627L41.2449 44.372L43.9443 44.7816L46.6436 45.1914L47.0731 45.2715L47.5025 45.3517L48.8135 43.5752L50.1245 41.7986L51.3352 40.089L52.5459 38.3795L52.4803 38.2202L52.4145 38.061L49.1451 33.8389L45.8755 29.6168L44.3269 27.4416L42.7783 25.2666L41.4496 23.1503L40.1211 21.0341L37.5855 16.6736L35.05 12.313L34.9384 12.1909L34.8269 12.069L34.6243 12.537ZM53.0114 32.4546L53.097 32.593H53.1662H53.2354L53.1499 32.4546L53.0643 32.3162H52.9951H52.9259L53.0114 32.4546ZM50.7965 33.1467L50.8821 33.2852H50.9513H51.0205L50.935 33.1467L50.8494 33.0083H50.7802H50.711L50.7965 33.1467ZM53.842 33.4236L53.9276 33.562H53.9968H54.066L53.9804 33.4236L53.8949 33.2852H53.8257H53.7565L53.842 33.4236ZM55.0879 34.8079L55.1734 34.9463H55.2426H55.3119L55.2263 34.8079L55.1408 34.6695H55.0715H55.0023L55.0879 34.8079ZM52.4577 35.0848L52.5433 35.2232H52.6125H52.6817L52.5961 35.0848L52.5106 34.9463H52.4414H52.3722L52.4577 35.0848ZM7.65791 52.4923L7.46798 52.7346L7.71023 52.5446L7.95249 52.3546V52.3024V52.2501H7.90016H7.84797L7.65791 52.4923ZM35.9845 52.8038L36.0701 52.9422H36.1393H36.2085L36.123 52.8038L36.0374 52.6654H35.9682H35.899L35.9845 52.8038ZM31.9701 54.3265L32.0556 54.4649H32.1248H32.1941L32.1085 54.3265L32.023 54.1881H31.9537H31.8845L31.9701 54.3265ZM42.0755 55.2955L42.161 55.434H42.2302H42.2994L42.2139 55.2955L42.1283 55.1571H42.0591H41.9899L42.0755 55.2955ZM7.39877 55.3478V55.4L7.64102 55.5901L7.88327 55.78L7.69335 55.5378L7.50328 55.2955H7.45109H7.39877V55.3478ZM15.1508 63.3245V63.509L15.2432 63.4168L15.3354 63.3245L15.2432 63.2321L15.1508 63.1399V63.3245Z" fill="#00A750"/>
<path d="M6.84272 56.4027C6.23228 56.4027 5.70521 56.2699 5.26151 56.0042C4.82064 55.7385 4.4801 55.3669 4.23988 54.8893C4.00249 54.4117 3.88379 53.8564 3.88379 53.2233C3.88379 52.5903 4.00249 52.0349 4.23988 51.5573C4.4801 51.0797 4.82064 50.7081 5.26151 50.4424C5.70521 50.1768 6.23228 50.0439 6.84272 50.0439C7.54359 50.0439 8.13142 50.2178 8.60621 50.5654C9.08382 50.913 9.42013 51.3835 9.61513 51.977L8.4536 52.2992C8.34055 51.929 8.14979 51.6421 7.88131 51.4386C7.61283 51.2323 7.26664 51.1292 6.84272 51.1292C6.45554 51.1292 6.13195 51.2154 5.87195 51.3878C5.61478 51.5601 5.42119 51.8032 5.29119 52.1169C5.16119 52.4306 5.09619 52.7994 5.09619 53.2233C5.09619 53.6472 5.16119 54.016 5.29119 54.3297C5.42119 54.6434 5.61478 54.8865 5.87195 55.0589C6.13195 55.2313 6.45554 55.3175 6.84272 55.3175C7.26664 55.3175 7.61283 55.2143 7.88131 55.008C8.14979 54.8017 8.34055 54.5148 8.4536 54.1474L9.61513 54.4696C9.42013 55.0631 9.08382 55.5337 8.60621 55.8813C8.13142 56.2289 7.54359 56.4027 6.84272 56.4027Z" fill="#808285"/>
<path d="M10.2094 56.2755L12.2612 53.1894L10.2688 50.1711H11.6846L12.9818 52.2059L14.262 50.1711H15.6864L13.694 53.1894L15.7373 56.2755H14.3214L12.9818 54.1729L11.6338 56.2755H10.2094Z" fill="#808285"/>
<path d="M16.6688 56.2755V50.1711H17.8219V56.2755H16.6688Z" fill="#808285"/>
<path d="M18.9232 57.2929V55.1988C19.1069 55.1988 19.2623 55.1535 19.3895 55.0631C19.5195 54.9698 19.6255 54.8398 19.7074 54.6731C19.7894 54.5035 19.8544 54.3057 19.9024 54.0796C19.9505 53.8535 19.9858 53.6077 20.0084 53.342C20.0367 53.0029 20.0621 52.6694 20.0847 52.3416C20.1073 52.0109 20.1299 51.669 20.1525 51.3157C20.1751 50.9596 20.2006 50.5753 20.2288 50.1626L24.2815 50.1711V55.1988H24.7478V57.2929H23.5947V56.2755H20.0762V57.2929H18.9232ZM20.6443 55.1988H23.1284V51.2479L21.2802 51.2394C21.2604 51.5192 21.2434 51.7763 21.2293 52.0109C21.218 52.2455 21.2039 52.4829 21.1869 52.7231C21.1699 52.9633 21.1473 53.2318 21.1191 53.5285C21.0908 53.8253 21.0625 54.0697 21.0343 54.2619C21.006 54.4513 20.9622 54.6166 20.9029 54.7579C20.8463 54.8992 20.7602 55.0461 20.6443 55.1988Z" fill="#808285"/>
<path d="M25.7638 53.6642V52.774H28.3073V53.6642H25.7638Z" fill="#808285"/>
<path d="M31.8082 56.4027C31.3758 56.4027 30.9957 56.3391 30.6678 56.2119C30.3428 56.0847 30.0687 55.9222 29.8454 55.7244C29.6222 55.5238 29.4484 55.3146 29.324 55.097L30.299 54.4188C30.3669 54.5601 30.4629 54.7 30.5873 54.8384C30.7116 54.9769 30.877 55.0914 31.0833 55.1818C31.2896 55.2722 31.5482 55.3175 31.859 55.3175C32.153 55.3175 32.3889 55.2751 32.567 55.1903C32.7478 55.1055 32.8778 54.9967 32.957 54.8639C33.0389 54.731 33.0799 54.5911 33.0799 54.4442C33.0799 54.2492 33.022 54.0994 32.9061 53.9948C32.7931 53.8903 32.6461 53.8182 32.4652 53.7786C32.2844 53.7362 32.0936 53.7122 31.8929 53.7066C31.6979 53.7009 31.5566 53.6967 31.469 53.6939C31.3843 53.691 31.3263 53.6896 31.2952 53.6896C31.267 53.6896 31.2401 53.6896 31.2147 53.6896V52.6044C31.2514 52.6044 31.3051 52.6044 31.3758 52.6044C31.4492 52.6044 31.5227 52.6044 31.5962 52.6044C31.6725 52.6016 31.7347 52.5987 31.7827 52.5959C32.0795 52.5818 32.3268 52.5168 32.5246 52.4009C32.7252 52.285 32.8256 52.1042 32.8256 51.8583C32.8256 51.6322 32.7365 51.4528 32.5585 51.3199C32.3833 51.1871 32.1473 51.1207 31.8506 51.1207C31.5708 51.1207 31.3207 51.1815 31.1002 51.303C30.8826 51.4217 30.7229 51.5531 30.6212 51.6972L29.8327 50.8494C30.0447 50.6289 30.3287 50.4396 30.6848 50.2813C31.0409 50.1231 31.4408 50.0439 31.8845 50.0439C32.153 50.0439 32.4158 50.0793 32.673 50.1499C32.9301 50.2178 33.1619 50.3237 33.3682 50.4679C33.5745 50.6092 33.7384 50.7914 33.8599 51.0147C33.9843 51.238 34.0464 51.505 34.0464 51.8159C34.0464 52.0787 33.9998 52.3274 33.9065 52.562C33.8133 52.7937 33.679 52.9887 33.5038 53.147C33.7582 53.2601 33.9546 53.424 34.0931 53.6387C34.2316 53.8535 34.3008 54.122 34.3008 54.4442C34.3008 54.8483 34.1877 55.1973 33.9617 55.4913C33.7384 55.7823 33.4374 56.007 33.0587 56.1653C32.6828 56.3235 32.266 56.4027 31.8082 56.4027Z" fill="#808285"/>
<path d="M34.979 56.2755L36.8442 50.1711H38.5653L40.4305 56.2755H39.2436L37.5818 50.8918H37.8023L36.166 56.2755H34.979ZM36.0981 55.0038V53.927H39.3199V55.0038H36.0981Z" fill="#808285"/>
<path d="M40.8512 56.2755L42.903 53.1894L40.9106 50.1711H42.3264L43.6236 52.2059L44.9038 50.1711H46.3282L44.3358 53.1894L46.3791 56.2755H44.9632L43.6236 54.1729L42.2756 56.2755H40.8512Z" fill="#808285"/>
<path d="M47.3106 56.2755V50.1711H48.4637V56.2755H47.3106Z" fill="#808285"/>
<path d="M49.565 57.2929V55.1988C49.7487 55.1988 49.9041 55.1535 50.0313 55.0631C50.1613 54.9698 50.2673 54.8398 50.3492 54.6731C50.4312 54.5035 50.4962 54.3057 50.5442 54.0796C50.5923 53.8535 50.6276 53.6077 50.6502 53.342C50.6785 53.0029 50.7039 52.6694 50.7265 52.3416C50.7491 52.0109 50.7717 51.669 50.7943 51.3157C50.817 50.9596 50.8424 50.5753 50.8707 50.1626L54.9233 50.1711V55.1988H55.3896V57.2929H54.2365V56.2755H50.718V57.2929H49.565ZM51.2861 55.1988H53.7702V51.2479L51.922 51.2394C51.9022 51.5192 51.8852 51.7763 51.8711 52.0109C51.8598 52.2455 51.8457 52.4829 51.8287 52.7231C51.8117 52.9633 51.7891 53.2318 51.7609 53.5285C51.7326 53.8253 51.7044 54.0697 51.6761 54.2619C51.6478 54.4513 51.604 54.6166 51.5447 54.7579C51.4882 54.8992 51.402 55.0461 51.2861 55.1988Z" fill="#808285"/>
<path d="M6.02221 62.9404C5.75844 62.9404 5.53235 62.8815 5.34394 62.7638C5.15554 62.646 5.01109 62.4859 4.91061 62.2833C4.81012 62.0808 4.75988 61.8523 4.75988 61.598C4.75988 61.3405 4.81169 61.1105 4.91532 60.908C5.02051 60.7054 5.1681 60.5461 5.35807 60.4299C5.54805 60.3137 5.77257 60.2556 6.03163 60.2556C6.33151 60.2556 6.58272 60.3317 6.78526 60.484C6.98936 60.6348 7.11968 60.8412 7.1762 61.1034L6.53562 61.273C6.49794 61.1411 6.43199 61.0383 6.33779 60.9645C6.24516 60.8907 6.13996 60.8538 6.02221 60.8538C5.88718 60.8538 5.77649 60.8868 5.69014 60.9527C5.60379 61.0171 5.5402 61.1058 5.49938 61.2188C5.45856 61.3303 5.43815 61.4567 5.43815 61.598C5.43815 61.8194 5.48682 61.9991 5.58416 62.1373C5.68308 62.2739 5.82909 62.3422 6.02221 62.3422C6.16665 62.3422 6.27656 62.3092 6.35192 62.2433C6.42728 62.1773 6.4838 62.0831 6.52149 61.9607L7.1762 62.0973C7.10398 62.3673 6.96738 62.5754 6.76641 62.7214C6.56545 62.8674 6.31738 62.9404 6.02221 62.9404Z" fill="#808285"/>
<path d="M8.55161 62.8697V60.8915H7.71791V60.3263H10.0259V60.8915H9.19219V62.8697H8.55161Z" fill="#808285"/>
<path d="M12.0043 62.9404C11.7516 62.9404 11.5404 62.8815 11.3708 62.7638C11.2013 62.646 11.0733 62.4859 10.9869 62.2833C10.9022 62.0808 10.8598 61.8523 10.8598 61.598C10.8598 61.3436 10.9022 61.1152 10.9869 60.9127C11.0717 60.7101 11.1966 60.55 11.3614 60.4322C11.5263 60.3145 11.7296 60.2556 11.9714 60.2556C12.2147 60.2556 12.4267 60.3137 12.6073 60.4299C12.7878 60.5461 12.9275 60.7054 13.0265 60.908C13.1269 61.1089 13.1772 61.3389 13.1772 61.598C13.1772 61.8523 13.1277 62.0808 13.0288 62.2833C12.9315 62.4859 12.7949 62.646 12.619 62.7638C12.4432 62.8815 12.2383 62.9404 12.0043 62.9404ZM10.7514 64.0002V60.3263H11.3167V62.069H11.3967V64.0002H10.7514ZM11.9007 62.3705C12.0389 62.3705 12.1519 62.3359 12.2399 62.2668C12.3278 62.1978 12.3929 62.1051 12.4353 61.9889C12.4777 61.8712 12.4989 61.7409 12.4989 61.598C12.4989 61.4567 12.4769 61.3279 12.433 61.2118C12.389 61.094 12.3207 61.0006 12.2281 60.9315C12.137 60.8609 12.02 60.8255 11.8772 60.8255C11.7437 60.8255 11.6354 60.8577 11.5522 60.9221C11.4705 60.9865 11.4109 61.0767 11.3732 61.1929C11.3355 61.3091 11.3167 61.4441 11.3167 61.598C11.3167 61.7519 11.3355 61.8869 11.3732 62.0031C11.4109 62.1193 11.4721 62.2095 11.5569 62.2739C11.6432 62.3383 11.7578 62.3705 11.9007 62.3705Z" fill="#808285"/>
<path d="M14.6845 62.9404C14.5024 62.9404 14.3478 62.9059 14.2206 62.8368C14.095 62.7661 13.9992 62.6727 13.9333 62.5565C13.8689 62.4388 13.8367 62.3092 13.8367 62.1679C13.8367 62.0502 13.8548 61.9426 13.8909 61.8453C13.927 61.7479 13.9851 61.6624 14.0652 61.5886C14.1468 61.5132 14.2559 61.4504 14.3925 61.4002C14.4867 61.3656 14.599 61.335 14.7293 61.3083C14.8596 61.2816 15.0072 61.2565 15.172 61.233C15.3369 61.2078 15.5182 61.1804 15.7161 61.1505L15.4853 61.2777C15.4853 61.127 15.4492 61.0163 15.3769 60.9456C15.3047 60.875 15.1838 60.8397 15.0143 60.8397C14.9201 60.8397 14.8219 60.8624 14.7199 60.908C14.6178 60.9535 14.5464 61.0343 14.5056 61.1505L13.9262 60.9668C13.9906 60.7564 14.1115 60.5853 14.2889 60.4534C14.4663 60.3215 14.7081 60.2556 15.0143 60.2556C15.2388 60.2556 15.4382 60.2901 15.6125 60.3592C15.7867 60.4283 15.9186 60.5476 16.0081 60.7172C16.0583 60.8114 16.0882 60.9056 16.0976 60.9998C16.107 61.094 16.1117 61.1992 16.1117 61.3154V62.8697H15.5512V62.3469L15.6313 62.4552C15.5073 62.6264 15.373 62.7504 15.2286 62.8274C15.0857 62.9027 14.9044 62.9404 14.6845 62.9404ZM14.8211 62.4364C14.9389 62.4364 15.0378 62.416 15.1179 62.3752C15.1995 62.3328 15.2639 62.2849 15.311 62.2315C15.3597 62.1781 15.3926 62.1334 15.4099 62.0973C15.4429 62.0282 15.4617 61.9481 15.4664 61.8571C15.4727 61.7644 15.4759 61.6875 15.4759 61.6263L15.6643 61.6734C15.4743 61.7048 15.3204 61.7315 15.2027 61.7534C15.0849 61.7738 14.9899 61.7927 14.9177 61.81C14.8455 61.8272 14.7819 61.8461 14.7269 61.8665C14.6641 61.8916 14.6131 61.9191 14.5739 61.9489C14.5362 61.9772 14.5079 62.0086 14.4891 62.0431C14.4718 62.0777 14.4632 62.1161 14.4632 62.1585C14.4632 62.2166 14.4773 62.2668 14.5056 62.3092C14.5354 62.3501 14.577 62.3815 14.6304 62.4034C14.6838 62.4254 14.7473 62.4364 14.8211 62.4364Z" fill="#808285"/>
<path d="M16.7241 62.8697L17.6332 61.5839L16.7429 60.3263H17.4966L18.0053 61.0799L18.5045 60.3263H19.2582L18.3679 61.5839L19.2817 62.8697H18.5281L18.0053 62.0879L17.4777 62.8697H16.7241Z" fill="#808285"/>
<path d="M20.996 62.9404C20.74 62.9404 20.5155 62.8831 20.3224 62.7685C20.1293 62.6539 19.9786 62.4961 19.8702 62.2951C19.7635 62.0926 19.7101 61.8602 19.7101 61.598C19.7101 61.3327 19.765 61.0995 19.8749 60.8985C19.9848 60.696 20.1364 60.5382 20.3295 60.4252C20.5226 60.3121 20.7447 60.2556 20.996 60.2556C21.2519 60.2556 21.4764 60.3129 21.6695 60.4275C21.8642 60.5421 22.0157 60.7007 22.124 60.9032C22.2324 61.1042 22.2865 61.3358 22.2865 61.598C22.2865 61.8618 22.2316 62.0949 22.1217 62.2975C22.0134 62.4984 21.8618 62.6562 21.6672 62.7708C21.474 62.8839 21.2503 62.9404 20.996 62.9404ZM20.996 62.3422C21.2016 62.3422 21.3547 62.2731 21.4552 62.135C21.5573 61.9952 21.6083 61.8162 21.6083 61.598C21.6083 61.3719 21.5565 61.1914 21.4528 61.0563C21.3508 60.9213 21.1985 60.8538 20.996 60.8538C20.8562 60.8538 20.7416 60.8852 20.6521 60.948C20.5626 61.0108 20.4959 61.0979 20.4519 61.2094C20.4095 61.3209 20.3883 61.4504 20.3883 61.598C20.3883 61.8257 20.4394 62.007 20.5414 62.142C20.645 62.2755 20.7966 62.3422 20.996 62.3422Z" fill="#808285"/>
<path d="M23.0823 62.8697V60.3263H24.274C24.3682 60.3263 24.4506 60.3317 24.5213 60.3427C24.592 60.3522 24.6508 60.3639 24.6979 60.3781C24.8141 60.4126 24.9201 60.4801 25.0159 60.5806C25.1116 60.6811 25.1595 60.8271 25.1595 61.0186C25.1595 61.1317 25.1415 61.2235 25.1054 61.2942C25.0693 61.3633 25.0214 61.4206 24.9617 61.4661C24.9334 61.4865 24.9052 61.5038 24.8769 61.5179C24.8487 61.5321 24.8204 61.543 24.7921 61.5509C24.8581 61.5603 24.9177 61.5776 24.9711 61.6027C25.0559 61.6404 25.1297 61.7001 25.1925 61.7817C25.2553 61.8618 25.2867 61.9811 25.2867 62.1397C25.2867 62.3092 25.2451 62.4537 25.1619 62.573C25.0802 62.6923 24.957 62.7755 24.7921 62.8226C24.7356 62.8383 24.6689 62.8501 24.592 62.858C24.5166 62.8658 24.4373 62.8697 24.3541 62.8697H23.0823ZM23.7323 62.3846H24.307C24.34 62.3846 24.3737 62.3815 24.4083 62.3752C24.4444 62.3673 24.4766 62.3579 24.5048 62.3469C24.5503 62.3281 24.5825 62.2959 24.6014 62.2504C24.6218 62.2048 24.632 62.1585 24.632 62.1114C24.632 62.0455 24.6171 61.9937 24.5872 61.956C24.559 61.9183 24.5268 61.8916 24.4907 61.8759C24.4609 61.8618 24.4279 61.8539 24.3918 61.8523C24.3572 61.8492 24.329 61.8476 24.307 61.8476H23.7323V62.3846ZM23.7323 61.3531H24.1233C24.1735 61.3531 24.2206 61.3507 24.2646 61.346C24.3101 61.3397 24.3478 61.3295 24.3776 61.3154C24.4185 61.2965 24.4491 61.2667 24.4695 61.2259C24.4899 61.1835 24.5001 61.1364 24.5001 61.0846C24.5001 61.0296 24.4883 60.9802 24.4648 60.9362C24.4428 60.8907 24.4059 60.8601 24.3541 60.8444C24.3195 60.8318 24.2756 60.8247 24.2222 60.8232C24.1704 60.8216 24.1374 60.8208 24.1233 60.8208H23.7323V61.3531Z" fill="#808285"/>
<path d="M26.7487 62.9404C26.5665 62.9404 26.4119 62.9059 26.2847 62.8368C26.1591 62.7661 26.0633 62.6727 25.9974 62.5565C25.933 62.4388 25.9008 62.3092 25.9008 62.1679C25.9008 62.0502 25.9189 61.9426 25.955 61.8453C25.9911 61.7479 26.0492 61.6624 26.1293 61.5886C26.2109 61.5132 26.32 61.4504 26.4566 61.4002C26.5508 61.3656 26.6631 61.335 26.7934 61.3083C26.9237 61.2816 27.0713 61.2565 27.2362 61.233C27.401 61.2078 27.5824 61.1804 27.7802 61.1505L27.5494 61.2777C27.5494 61.127 27.5133 61.0163 27.4411 60.9456C27.3688 60.875 27.2479 60.8397 27.0784 60.8397C26.9842 60.8397 26.886 60.8624 26.784 60.908C26.6819 60.9535 26.6105 61.0343 26.5697 61.1505L25.9903 60.9668C26.0547 60.7564 26.1756 60.5853 26.353 60.4534C26.5304 60.3215 26.7722 60.2556 27.0784 60.2556C27.3029 60.2556 27.5023 60.2901 27.6766 60.3592C27.8508 60.4283 27.9827 60.5476 28.0722 60.7172C28.1225 60.8114 28.1523 60.9056 28.1617 60.9998C28.1711 61.094 28.1758 61.1992 28.1758 61.3154V62.8697H27.6153V62.3469L27.6954 62.4552C27.5714 62.6264 27.4371 62.7504 27.2927 62.8274C27.1498 62.9027 26.9685 62.9404 26.7487 62.9404ZM26.8853 62.4364C27.003 62.4364 27.1019 62.416 27.182 62.3752C27.2636 62.3328 27.328 62.2849 27.3751 62.2315C27.4238 62.1781 27.4568 62.1334 27.474 62.0973C27.507 62.0282 27.5258 61.9481 27.5305 61.8571C27.5368 61.7644 27.54 61.6875 27.54 61.6263L27.7284 61.6734C27.5384 61.7048 27.3845 61.7315 27.2668 61.7534C27.149 61.7738 27.054 61.7927 26.9818 61.81C26.9096 61.8272 26.846 61.8461 26.7911 61.8665C26.7283 61.8916 26.6772 61.9191 26.638 61.9489C26.6003 61.9772 26.572 62.0086 26.5532 62.0431C26.5359 62.0777 26.5273 62.1161 26.5273 62.1585C26.5273 62.2166 26.5414 62.2668 26.5697 62.3092C26.5995 62.3501 26.6411 62.3815 26.6945 62.4034C26.7479 62.4254 26.8115 62.4364 26.8853 62.4364Z" fill="#808285"/>
<path d="M31.5172 62.8697L31.5219 60.3263H32.1719V61.5509L33.0339 60.3263H33.8252L32.9067 61.598L33.8864 62.8697H33.0527L32.1719 61.6451V62.8697H31.5172Z" fill="#808285"/>
<path d="M35.502 62.9404C35.2461 62.9404 35.0216 62.8831 34.8284 62.7685C34.6353 62.6539 34.4846 62.4961 34.3763 62.2951C34.2695 62.0926 34.2161 61.8602 34.2161 61.598C34.2161 61.3327 34.2711 61.0995 34.381 60.8985C34.4909 60.696 34.6424 60.5382 34.8355 60.4252C35.0286 60.3121 35.2508 60.2556 35.502 60.2556C35.7579 60.2556 35.9824 60.3129 36.1756 60.4275C36.3702 60.5421 36.5218 60.7007 36.6301 60.9032C36.7384 61.1042 36.7926 61.3358 36.7926 61.598C36.7926 61.8618 36.7376 62.0949 36.6277 62.2975C36.5194 62.4984 36.3679 62.6562 36.1732 62.7708C35.9801 62.8839 35.7564 62.9404 35.502 62.9404ZM35.502 62.3422C35.7077 62.3422 35.8608 62.2731 35.9612 62.135C36.0633 61.9952 36.1143 61.8162 36.1143 61.598C36.1143 61.3719 36.0625 61.1914 35.9589 61.0563C35.8568 60.9213 35.7045 60.8538 35.502 60.8538C35.3623 60.8538 35.2477 60.8852 35.1582 60.948C35.0687 61.0108 35.0019 61.0979 34.958 61.2094C34.9156 61.3209 34.8944 61.4504 34.8944 61.598C34.8944 61.8257 34.9454 62.007 35.0475 62.142C35.1511 62.2755 35.3026 62.3422 35.502 62.3422Z" fill="#808285"/>
<path d="M37.5884 62.8697V60.3263H38.1065L38.992 61.9748L39.8775 60.3263H40.3956V62.8697H39.7833V61.6027L39.1051 62.8697H38.879L38.2007 61.6027V62.8697H37.5884Z" fill="#808285"/>
<path d="M41.3346 62.8697V60.3263H43.6049V62.8697H42.9644V60.9244H41.9752V62.8697H41.3346Z" fill="#808285"/>
<path d="M45.2539 62.9404C45.0718 62.9404 44.9172 62.9059 44.79 62.8368C44.6644 62.7661 44.5686 62.6727 44.5027 62.5565C44.4383 62.4388 44.4061 62.3092 44.4061 62.1679C44.4061 62.0502 44.4242 61.9426 44.4603 61.8453C44.4964 61.7479 44.5545 61.6624 44.6345 61.5886C44.7162 61.5132 44.8253 61.4504 44.9619 61.4002C45.0561 61.3656 45.1684 61.335 45.2987 61.3083C45.429 61.2816 45.5766 61.2565 45.7414 61.233C45.9063 61.2078 46.0876 61.1804 46.2855 61.1505L46.0547 61.2777C46.0547 61.127 46.0186 61.0163 45.9463 60.9456C45.8741 60.875 45.7532 60.8397 45.5836 60.8397C45.4894 60.8397 45.3913 60.8624 45.2893 60.908C45.1872 60.9535 45.1158 61.0343 45.0749 61.1505L44.4956 60.9668C44.56 60.7564 44.6809 60.5853 44.8583 60.4534C45.0357 60.3215 45.2775 60.2556 45.5836 60.2556C45.8082 60.2556 46.0076 60.2901 46.1818 60.3592C46.3561 60.4283 46.488 60.5476 46.5775 60.7172C46.6277 60.8114 46.6576 60.9056 46.667 60.9998C46.6764 61.094 46.6811 61.1992 46.6811 61.3154V62.8697H46.1206V62.3469L46.2007 62.4552C46.0766 62.6264 45.9424 62.7504 45.798 62.8274C45.6551 62.9027 45.4737 62.9404 45.2539 62.9404ZM45.3905 62.4364C45.5083 62.4364 45.6072 62.416 45.6873 62.3752C45.7689 62.3328 45.8333 62.2849 45.8804 62.2315C45.9291 62.1781 45.962 62.1334 45.9793 62.0973C46.0123 62.0282 46.0311 61.9481 46.0358 61.8571C46.0421 61.7644 46.0452 61.6875 46.0452 61.6263L46.2337 61.6734C46.0437 61.7048 45.8898 61.7315 45.7721 61.7534C45.6543 61.7738 45.5593 61.7927 45.4871 61.81C45.4149 61.8272 45.3513 61.8461 45.2963 61.8665C45.2335 61.8916 45.1825 61.9191 45.1432 61.9489C45.1056 61.9772 45.0773 62.0086 45.0585 62.0431C45.0412 62.0777 45.0326 62.1161 45.0326 62.1585C45.0326 62.2166 45.0467 62.2668 45.0749 62.3092C45.1048 62.3501 45.1464 62.3815 45.1998 62.4034C45.2532 62.4254 45.3167 62.4364 45.3905 62.4364Z" fill="#808285"/>
<path d="M47.5714 62.8697V60.3263H48.212V61.2965H49.2576V60.3263H49.8982V62.8697H49.2576V61.8947H48.212V62.8697H47.5714Z" fill="#808285"/>
<path d="M50.8865 59.973V59.4078H51.527V59.973H50.8865ZM50.8865 62.8697V60.3263H51.527V62.8697H50.8865Z" fill="#808285"/>
<path d="M54.0135 62.8697V62.0596H53.6037C53.5504 62.0596 53.4774 62.0588 53.3847 62.0572C53.2937 62.0541 53.2081 62.0455 53.128 62.0313C52.9255 61.9952 52.7591 61.9073 52.6287 61.7676C52.5 61.6278 52.4356 61.4379 52.4356 61.1976C52.4356 60.9637 52.4976 60.7753 52.6217 60.6324C52.7457 60.4895 52.9114 60.3985 53.1186 60.3592C53.2034 60.342 53.2905 60.3325 53.38 60.331C53.4711 60.3278 53.5457 60.3263 53.6037 60.3263H54.6541V62.8697H54.0135ZM52.3744 62.8697L52.949 61.9277H53.6085L53.0432 62.8697H52.3744ZM53.5331 61.565H54.0135V60.8208H53.5331C53.5048 60.8208 53.4734 60.8224 53.4389 60.8255C53.4059 60.8287 53.3714 60.835 53.3353 60.8444C53.2913 60.8569 53.2505 60.8805 53.2128 60.915C53.1751 60.948 53.1445 60.9888 53.121 61.0375C53.0974 61.0846 53.0856 61.1364 53.0856 61.1929C53.0856 61.2824 53.1123 61.3586 53.1657 61.4214C53.2191 61.4826 53.2787 61.5226 53.3447 61.5415C53.3777 61.5509 53.4106 61.5572 53.4436 61.5603C53.4781 61.5635 53.508 61.565 53.5331 61.565Z" fill="#808285"/>
</svg>
