<svg xmlns="http://www.w3.org/2000/svg" width="154" height="66" viewBox="0 0 154 66" fill="none">
<path d="M62 33C62 50.1208 48.1208 64 31 64C13.8792 64 0 50.1208 0 33C0 15.8792 13.8792 2 31 2C48.1208 2 62 15.8792 62 33Z" fill="#FFCB08"/>
<path fill-rule="evenodd" clip-rule="evenodd" d="M31 50C40.3888 50 48 42.3888 48 33C48 23.6112 40.3888 16 31 16C21.6112 16 14 23.6112 14 33C14 42.3888 21.6112 50 31 50ZM31 54C42.598 54 52 44.598 52 33C52 21.402 42.598 12 31 12C19.402 12 10 21.402 10 33C10 44.598 19.402 54 31 54Z" fill="black"/>
<path d="M39 33C39 34.1046 38.1046 35 37 35C35.8954 35 35 34.1046 35 33C35 31.8954 35.8954 31 37 31C38.1046 31 39 31.8954 39 33Z" fill="black"/>
<path d="M44 33C44 34.1046 43.1046 35 42 35C40.8954 35 40 34.1046 40 33C40 31.8954 40.8954 31 42 31C43.1046 31 44 31.8954 44 33Z" fill="black"/>
<path fill-rule="evenodd" clip-rule="evenodd" d="M20.7952 26.7282C21.4977 27.1673 21.7112 28.0927 21.2722 28.7952C19.1513 32.1886 19.5954 38.6942 24.7559 41.7045C25.4715 42.122 25.7132 43.0404 25.2958 43.756C24.8783 44.4716 23.9599 44.7133 23.2443 44.2959C16.4049 40.3062 15.8491 31.8118 18.7282 27.2052C19.1672 26.5027 20.0927 26.2891 20.7952 26.7282Z" fill="black"/>
<path fill-rule="evenodd" clip-rule="evenodd" d="M68.2607 22H80.9417C82.3224 22 83.4417 23.1193 83.4417 24.5C83.4417 25.8807 82.3224 27 80.9417 27H68.8437C68.812 27.0409 68.7698 27.1043 68.7196 27.2001C68.5177 27.5852 68.3603 28.2137 68.3604 28.9375C68.3604 29.6633 68.5178 30.2168 68.6747 30.4991C69.4991 30.4927 70.4598 30.4543 71.5493 30.4108C72.3884 30.3773 73.3037 30.3408 74.292 30.3135C76.5694 30.2505 79.1095 30.2442 81.3101 30.5193C83.2829 30.7659 84.3924 32.2155 84.9084 33.4557C85.422 34.6905 85.5524 36.1077 85.4644 37.3761C85.3757 38.6553 85.048 40.0309 84.4152 41.2021C83.8022 42.3365 82.6738 43.6623 80.8519 43.966C79.1926 44.2425 76.4803 44.2281 73.9742 44.172C72.9499 44.1491 71.9397 44.1183 70.9818 44.0892C69.4494 44.0426 68.0506 44 66.9409 44C65.5602 44 64.4409 42.8807 64.4409 41.5C64.4409 40.1193 65.5602 39 66.9409 39C68.1144 39 69.6606 39.0467 71.2641 39.0952C72.2063 39.1236 73.1683 39.1527 74.0861 39.1732C76.5992 39.2295 78.7195 39.219 79.8675 39.0588C79.9029 39.0144 79.9537 38.941 80.0163 38.8252C80.2383 38.4144 80.4254 37.7665 80.4764 37.0302C80.5251 36.3288 80.4357 35.7656 80.3158 35.4377C78.5876 35.2552 76.5189 35.2538 74.4302 35.3115C73.6037 35.3344 72.7488 35.368 71.9213 35.4005C70.6216 35.4516 69.3895 35.5 68.4413 35.5C66.4255 35.5 65.0632 34.2654 64.3315 32.9763C63.6297 31.7401 63.3604 30.2664 63.3604 28.9375C63.3603 27.5988 63.6331 26.1336 64.2915 24.8781C64.9548 23.613 66.173 22.3033 68.0819 22.026L68.2607 22ZM79.8112 39.1177C79.8112 39.1177 79.8158 39.1125 79.8259 39.1057C79.8164 39.1148 79.8112 39.1177 79.8112 39.1177ZM68.9102 26.9335C68.9102 26.9335 68.9042 26.9404 68.8905 26.9475C68.9031 26.9359 68.9102 26.9335 68.9102 26.9335Z" fill="black"/>
<path fill-rule="evenodd" clip-rule="evenodd" d="M99 38.5C102.314 38.5 105 35.8137 105 32.5C105 29.1863 102.314 26.5 99 26.5C95.6863 26.5 93 29.1863 93 32.5C93 35.8137 95.6863 38.5 99 38.5ZM99 43.5C105.075 43.5 110 38.5751 110 32.5C110 26.4249 105.075 21.5 99 21.5C92.9249 21.5 88 26.4249 88 32.5C88 38.5751 92.9249 43.5 99 43.5Z" fill="black"/>
<path fill-rule="evenodd" clip-rule="evenodd" d="M111.5 24.5C111.5 23.1193 112.619 22 114 22H131C132.381 22 133.5 23.1193 133.5 24.5C133.5 25.8807 132.381 27 131 27H125V41.5C125 42.8807 123.881 44 122.5 44C121.119 44 120 42.8807 120 41.5V27H114C112.619 27 111.5 25.8807 111.5 24.5Z" fill="black"/>
<path fill-rule="evenodd" clip-rule="evenodd" d="M142.472 21.0002C143.429 20.9894 144.308 21.526 144.736 22.382L153.736 40.382C154.353 41.6169 153.853 43.1186 152.618 43.7361C151.383 44.3535 149.881 43.853 149.264 42.618L142.564 29.2187L136.26 42.5675C135.671 43.816 134.181 44.3502 132.932 43.7606C131.684 43.171 131.149 41.681 131.739 40.4325L140.239 22.4325C140.648 21.5671 141.515 21.0109 142.472 21.0002Z" fill="black"/>
<path d="M144.5 38C144.5 39.1046 143.605 40 142.5 40C141.395 40 140.5 39.1046 140.5 38C140.5 36.8954 141.395 36 142.5 36C143.605 36 144.5 36.8954 144.5 38Z" fill="black"/>
</svg>