<svg width="176" height="50" viewBox="0 0 176 50" fill="none" xmlns="http://www.w3.org/2000/svg">
<g id="Group 15">
<g id="Travel Insurer">
<path d="M7.70619 49.6273H0V32.2472H7.70619V49.6273Z" fill="#3A3A3A"/>
<path d="M17.0282 49.6273H9.57059V32.2472H17.4632L21.2666 38.0447C21.6395 38.6158 22.0496 39.311 22.7457 40.6766L23.0067 40.6145C22.8451 39.311 22.783 38.3054 22.783 37.2129V32.2472H30.2406V49.6273H22.3852L18.644 43.8795C18.2463 43.2712 17.7118 42.3277 17.0779 41.0242L16.8293 41.0862C16.966 42.4642 17.0282 43.4822 17.0282 44.5498V49.6273Z" fill="#3A3A3A"/>
<path d="M41.7998 49.9998C35.7343 49.9998 31.7694 47.939 31.8688 44.2271L39.5626 43.7677C39.6123 45.1333 40.6066 45.6547 42.3592 45.6547C43.7637 45.6547 44.4224 45.394 44.4224 44.7485C44.4224 44.0905 43.8631 43.8671 40.8055 43.3457L37.7479 42.8242C34.7027 42.3028 32.0552 40.8007 32.0552 37.4985C32.0552 33.7245 35.8711 31.8748 41.8496 31.8748C48.1139 31.8748 51.6812 34.2335 51.5196 37.6102L44.5964 38.144C44.4846 36.9398 43.714 36.2198 41.6756 36.2198C40.1716 36.2198 39.4258 36.5922 39.4258 37.1633C39.4258 37.6971 39.6123 37.9206 42.6699 38.4171L45.7275 38.9137C48.7727 39.4103 52.054 40.2048 52.054 43.9167C52.054 47.8272 48.0767 49.9998 41.7998 49.9998Z" fill="#3A3A3A"/>
<path d="M63.837 49.9998C56.9388 49.9998 53.6077 48.1004 53.6077 43.3829V32.2472H61.3139V42.7373C61.3139 44.5374 62.1342 45.2823 63.837 45.2823C65.4653 45.2823 66.2359 44.5374 66.2359 42.7373V32.2472H73.9421V43.3829C73.9421 48.1004 70.6608 49.9998 63.837 49.9998Z" fill="#3A3A3A"/>
<path d="M83.4505 49.6273H75.7443V32.2472H87.8629C93.0708 32.2472 95.5816 34.01 95.5816 37.6723V37.7219C95.5816 40.391 94.4008 41.6573 91.9398 42.1166V42.3773C93.4064 42.7001 94.177 43.1843 94.6121 44.8726L95.0471 46.561C95.4821 48.2493 95.7059 48.8204 96.2652 49.2549L96.2155 49.6273H88.037C87.7511 49.1432 87.5771 48.6342 87.3036 47.1445L87.0302 45.6547C86.7567 44.165 86.3963 43.7057 85.0663 43.7057H83.4505V49.6273ZM83.4505 36.5922V39.7331H85.9364C87.1793 39.7331 87.7884 39.4848 87.7884 38.2185V38.1689C87.7884 36.8529 87.1793 36.5922 85.9364 36.5922H83.4505Z" fill="#3A3A3A"/>
<path d="M114.424 49.6273H97.3217V32.2472H114.176V36.7164H105.028V38.8516H113.666V42.9484H105.028V45.1582H114.424V49.6273Z" fill="#3A3A3A"/>
<path d="M123.324 49.6273H115.618V32.2472H127.736C132.944 32.2472 135.455 34.01 135.455 37.6723V37.7219C135.455 40.391 134.274 41.6573 131.813 42.1166V42.3773C133.28 42.7001 134.05 43.1843 134.485 44.8726L134.92 46.561C135.355 48.2493 135.579 48.8204 136.138 49.2549L136.089 49.6273H127.91C127.624 49.1432 127.45 48.6342 127.177 47.1445L126.903 45.6547C126.63 44.165 126.27 43.7057 124.94 43.7057H123.324V49.6273ZM123.324 36.5922V39.7331H125.81C127.053 39.7331 127.662 39.4848 127.662 38.2185V38.1689C127.662 36.8529 127.053 36.5922 125.81 36.5922H123.324Z" fill="#3A3A3A"/>
</g>
<g id="Travel Insurer_2">
<path d="M13.2798 17.5H5.4977V5.25H0V0H18.7775V5.25H13.2798V17.5Z" fill="#0071E3"/>
<path d="M27.6893 17.5H19.9072V0H32.1452C37.4044 0 39.9399 1.775 39.9399 5.4625V5.5125C39.9399 8.2 38.7475 9.475 36.2622 9.9375V10.2C37.7433 10.525 38.5215 11.0125 38.9608 12.7125L39.4002 14.4125C39.8395 16.1125 40.0654 16.6875 40.6302 17.125L40.58 17.5H32.3209C32.0322 17.0125 31.8565 16.5 31.5804 15L31.3042 13.5C31.0281 12 30.6641 11.5375 29.321 11.5375H27.6893V17.5ZM27.6893 4.375V7.5375H30.1997C31.4549 7.5375 32.0699 7.2875 32.0699 6.0125V5.9625C32.0699 4.6375 31.4549 4.375 30.1997 4.375H27.6893Z" fill="#0071E3"/>
<path d="M48.6885 17.5H41.0695L47.245 0H56.4455L62.6336 17.5H54.6004L54.1109 15.725H49.178L48.6885 17.5ZM50.9353 8.575L50.2073 11.7125H53.1193L52.3787 8.575C52.1528 7.6 51.9896 6.7375 51.7888 5.375H51.5378C51.3369 6.7375 51.1612 7.6 50.9353 8.575Z" fill="#0071E3"/>
<path d="M76.2774 17.5H66.9388L60.7508 0H68.9095L70.7797 7.1C71.0935 8.2875 71.3696 9.6375 71.6081 11.4375H71.8592C72.1227 9.6375 72.3989 8.2875 72.7127 7.1L74.5578 0H82.3148L76.2774 17.5Z" fill="#0071E3"/>
<path d="M100.59 17.5H83.319V0H100.339V4.5H91.1011V6.65H99.8246V10.775H91.1011V13H100.59V17.5Z" fill="#0071E3"/>
<path d="M118.326 17.5H101.795V0H109.577V12.375H118.326V17.5Z" fill="#0071E3"/>
</g>
<path id="Vector" d="M173.919 24.8404C173.913 23.0786 172.599 21.6648 171.005 21.7062L162.283 21.9329L155.258 6.61949L150.882 6.63364L154.271 22.141L145.294 22.3742L142.925 18.7536L138.97 18.7663L141.683 24.9443L139.01 31.1396L142.966 31.1268L145.311 27.491L154.29 27.6664L151.001 43.1953L155.378 43.1812L162.302 27.8229L171.026 27.9933C172.62 28.0245 173.924 26.6022 173.919 24.8404Z" fill="#0071E3"/>
<path id="Vector 2" d="M81.9437 23.2837L0 25.0003L81.9437 26.7169L142.801 26.8387C143.818 26.8408 144.643 26.0171 144.643 25.0003C144.643 23.9835 143.818 23.1599 142.801 23.1619L81.9437 23.2837Z" fill="url(#paint0_linear_1863_310)"/>
</g>
<defs>
<linearGradient id="paint0_linear_1863_310" x1="129.061" y1="24.8265" x2="0.000636156" y2="25.2129" gradientUnits="userSpaceOnUse">
<stop stop-color="#0071E3"/>
<stop offset="1" stop-color="#0071E3" stop-opacity="0"/>
</linearGradient>
</defs>
</svg>
