<svg xmlns="http://www.w3.org/2000/svg" width="198" height="62" viewBox="0 0 198 62" fill="none">
<path d="M78.7802 6.27979H5.33984V38.2085H78.7802V6.27979Z" fill="white"/>
<path d="M13.042 13.6204V12.6475H17.5062L22.233 24.676H22.5831L27.3099 12.6475H31.8616V13.6204L25.2091 30.0711H19.8696L13.042 13.6204Z" fill="black"/>
<path d="M35.3631 10.8789C36.7637 10.8789 37.5515 11.6749 37.5515 13.09C37.5515 14.5052 36.7637 15.3012 35.3631 15.3012C33.9626 15.3012 33.1748 14.5052 33.1748 13.09C33.2623 11.6749 34.0501 10.8789 35.3631 10.8789ZM33.2623 16.6278H37.5515V29.8062H33.2623V16.6278Z" fill="black"/>
<path d="M53.22 21.6691H48.6683C48.4932 20.8731 47.5303 20.0771 46.4799 20.0771C45.4295 20.0771 44.7293 20.5194 44.7293 21.05C44.7293 23.0843 53.5701 21.05 53.5701 26.003C53.5701 28.391 51.0317 30.1599 46.9176 30.1599C43.5913 30.1599 40.6152 28.5679 39.6523 25.7376V24.9416H44.2041C44.3791 25.9145 45.6046 26.5336 46.7425 26.5336C48.1431 26.5336 48.6683 26.0914 48.6683 25.5607C48.6683 23.9687 40.0025 25.7376 40.0025 20.6078C40.0025 18.2198 42.5409 16.1855 46.3049 16.1855C50.0688 16.1855 52.3447 18.2198 53.1325 20.6078L53.22 21.6691Z" fill="black"/>
<path d="M57.7723 10.8789C59.1728 10.8789 59.9606 11.6749 59.9606 13.09C59.9606 14.5052 59.1728 15.3012 57.7723 15.3012C56.3718 15.3012 55.584 14.5052 55.584 13.09C55.584 11.6749 56.3718 10.8789 57.7723 10.8789ZM55.584 16.6278H59.8731V29.8062H55.584V16.6278Z" fill="black"/>
<path d="M67.9259 16.6275H70.6394V20.7844H67.9259V23.9684C67.9259 25.2067 68.5386 26.0027 69.6765 26.0027C69.8516 26.0027 70.2893 26.0027 70.4643 26.0027V30.1596C69.8516 30.1596 68.8887 30.1596 68.276 30.1596C64.7747 30.1596 63.5492 27.3293 63.5492 23.9684V20.7844H61.9736V16.6275H63.5492V14.0626L67.8384 12.6475L67.9259 16.6275Z" fill="black"/>
<path d="M165.701 28.2139H29.499V60.1425H165.701V28.2139Z" fill="#FEF300"/>
<path d="M37.9893 44.8418V35.6436H42.541V45.1956C42.541 47.7605 43.6789 48.9988 46.3049 48.9988C48.8434 48.8219 50.0688 47.5836 50.0688 45.1956V35.6436H54.6206V44.8418C54.6206 50.4139 51.6444 53.2441 46.3924 53.2441C41.0529 53.2441 37.9893 50.4139 37.9893 44.8418Z" fill="black"/>
<path d="M67.9257 42.8076V43.2498L74.7533 52.0059V52.9788H69.8514L64.7745 46.1685L62.4111 48.2028V52.8019H57.8594V35.6436H62.4111V42.8076L69.2387 35.6436H73.7904V36.6165L67.9257 42.8076Z" fill="black"/>
<path d="M76.7665 35.6436H86.3951C89.8965 35.6436 92.4349 37.6778 92.4349 41.0387C92.4349 43.4267 91.0344 45.1956 88.9336 45.9916V46.1685L93.0477 52.0059V52.9788H88.1458L84.0318 47.053H81.0556V53.0672H76.5039V35.6436H76.7665ZM81.3182 39.8005V42.6307H86.6578C87.6206 42.6307 88.2334 42.0116 88.2334 41.2156C88.2334 40.2427 87.6206 39.8005 86.6578 39.8005H81.3182Z" fill="black"/>
<path d="M100.925 35.6436H106.265L113.092 52.0059V52.9788H108.541L107.403 50.1486H99.7873L98.6494 52.9788H94.0977V52.0059L100.925 35.6436ZM101.363 46.257H105.915L103.726 40.8618H103.289L101.363 46.257Z" fill="black"/>
<path d="M115.281 35.6436H119.833V52.8019H115.281V35.6436Z" fill="black"/>
<path d="M128.412 41.2156H128.061V52.8019H123.51V35.6436H129.987L137.077 47.2299H137.252V35.6436H141.804V52.8019H135.502L128.412 41.2156Z" fill="black"/>
<path d="M145.655 35.6436H159.573V39.6236H149.944V42.0116H158.96V45.9916H149.944V48.9988H159.573V52.9788H145.655V35.6436Z" fill="black"/>
<path d="M170.165 42.1885C178.83 42.1885 185.833 35.0245 185.833 26.1799C185.833 17.3354 178.83 10.1714 170.165 10.1714C161.499 10.1714 154.496 17.3354 154.496 26.1799C154.496 35.0245 161.499 42.1885 170.165 42.1885Z" fill="#056EFF"/>
<path d="M156.422 27.2412H157.997V28.6563H156.422V27.2412Z" fill="white"/>
<path d="M160.799 24.4107H161.586V25.8258H160.799V26.7987C160.799 27.241 160.974 27.4179 161.411 27.4179H161.586V28.833C161.411 28.833 160.974 28.833 160.799 28.833C159.661 28.833 159.223 27.8601 159.223 26.7987V25.8258H158.61V24.4107H159.223V23.4378L160.624 22.9956V24.4107H160.799Z" fill="white"/>
<path d="M162.374 26.6218C162.374 25.2067 163.337 24.4106 164.737 24.4106C166.138 24.4106 167.101 25.2067 167.101 26.6218C167.101 28.0369 166.138 28.8329 164.737 28.8329C163.337 28.8329 162.374 28.0369 162.374 26.6218ZM163.687 26.6218C163.687 27.2409 164.037 27.5947 164.65 27.5947C165.263 27.5947 165.613 27.1524 165.613 26.6218C165.613 26.0027 165.263 25.6489 164.65 25.6489C164.125 25.6489 163.687 26.0027 163.687 26.6218Z" fill="white"/>
<path d="M172.353 28.8332H170.952V28.2141C170.602 28.6564 170.164 28.8332 169.552 28.8332C168.414 28.8332 167.626 28.0372 167.626 26.6221C167.626 25.207 168.414 24.411 169.552 24.411C170.164 24.411 170.515 24.5879 170.952 25.0301V22.6421H172.353V28.8332ZM169.202 26.6221C169.202 27.2412 169.552 27.595 170.164 27.595C170.777 27.595 171.127 27.1528 171.127 26.6221C171.127 26.003 170.777 25.6492 170.164 25.6492C169.639 25.6492 169.202 26.003 169.202 26.6221Z" fill="white"/>
<path d="M178.042 28.8329H176.642V28.2138C176.292 28.656 175.854 28.8329 175.241 28.8329C174.103 28.8329 173.315 28.0369 173.315 26.6218C173.315 25.2067 174.103 24.4106 175.241 24.4106C175.854 24.4106 176.204 24.5875 176.642 25.0298V24.4106H178.042V28.8329ZM176.642 26.6218C176.642 26.0027 176.292 25.6489 175.679 25.6489C175.066 25.6489 174.716 26.0911 174.716 26.6218C174.716 27.2409 175.066 27.5947 175.679 27.5947C176.292 27.5947 176.642 27.064 176.642 26.6218Z" fill="white"/>
<path d="M180.231 24.4107L181.193 26.9756L182.156 24.4107H183.557V24.5876L181.981 28.7445C181.631 29.5405 181.193 30.1596 179.618 30.1596V28.7445C179.968 28.7445 180.231 28.7445 180.406 28.7445L178.83 24.7645V24.3223H180.231V24.4107Z" fill="white"/>
<path d="M195.899 18.927C197.387 14.4163 195.724 9.72873 192.836 6.7216C189.422 3.09535 184.958 2.91846 183.907 2.91846C181.719 2.91846 179.881 3.36068 178.48 3.9798C177.167 4.51047 176.292 5.21803 175.767 5.57181C176.817 6.36782 177.605 7.87138 178.13 8.93272C178.393 9.37495 178.83 10.5247 179.706 12.7359C180.756 15.3892 180.756 15.5661 181.194 16.1852C181.806 17.1581 182.682 18.6617 184.345 19.5461C185.57 20.1652 186.183 19.8999 187.671 20.6959C188.109 20.9613 188.546 21.2266 188.897 21.4919C188.371 19.1039 189.072 16.8928 190.647 16.0083C190.822 15.9199 190.997 15.8314 191.348 15.743C192.485 17.9541 192.31 19.6346 192.223 20.2537C191.873 22.1995 190.56 24.1453 190.472 24.3222C189.947 25.0297 189.422 25.5604 189.597 25.7373C189.772 25.9142 191.085 25.2066 191.61 24.8528C194.586 22.8186 195.812 19.1924 195.899 18.927ZM191.348 15.743C191.523 15.6545 191.785 15.5661 192.135 15.5661C192.398 15.5661 192.573 15.5661 192.748 15.5661" fill="#E93745"/>
<path d="M191.348 15.743C190.997 15.8314 190.822 15.9199 190.647 16.0083C189.072 16.8928 188.371 19.1039 188.897 21.4919C188.546 21.2266 188.109 20.9613 187.671 20.6959C186.183 19.8999 185.57 20.1652 184.345 19.5461C182.682 18.6617 181.806 17.1581 181.194 16.1852C180.756 15.5661 180.756 15.3892 179.706 12.7359C178.83 10.5247 178.393 9.37495 178.13 8.93272C177.605 7.87138 176.817 6.36782 175.767 5.57181C176.292 5.21803 177.167 4.51047 178.48 3.9798C179.881 3.36068 181.719 2.91846 183.907 2.91846C184.958 2.91846 189.422 3.09535 192.836 6.7216C195.724 9.72873 197.387 14.4163 195.899 18.927C195.812 19.1924 194.586 22.8186 191.61 24.8528C191.085 25.2066 189.772 25.9142 189.597 25.7373C189.422 25.5604 189.947 25.0297 190.472 24.3222C190.56 24.1453 191.873 22.1995 192.223 20.2537C192.31 19.6346 192.485 17.9541 191.348 15.743ZM191.348 15.743C191.523 15.6545 191.785 15.5661 192.135 15.5661C192.398 15.5661 192.573 15.5661 192.748 15.5661" stroke="black" stroke-width="0.75" stroke-miterlimit="10" stroke-linecap="round" stroke-linejoin="round"/>
<path d="M188.634 26.0912C186.709 28.037 183.557 27.3294 183.207 27.241C182.595 27.0641 181.894 26.7987 178.918 24.5876C176.555 22.7303 175.329 21.8458 174.279 20.7845C171.915 18.308 170.69 16.0969 169.99 14.5933C169.99 14.5049 169.902 14.5049 169.902 14.4164C169.64 13.9742 168.239 10.8786 169.377 9.2866C169.552 9.02127 169.902 8.4906 170.427 8.57904C170.953 8.57904 171.303 9.19816 171.39 9.2866C171.565 9.10971 171.653 8.84438 171.828 8.66749C171.915 8.57904 172.003 8.4906 172.091 8.40215C172.178 8.22526 172.266 8.13682 172.266 8.04837C172.703 7.16392 173.754 6.27947 174.717 6.45636C175.154 6.54481 175.504 6.81014 175.767 7.16392C175.942 7.42926 176.205 7.78304 176.38 8.04837C177.78 10.5248 178.13 12.2937 178.656 13.6204C179.881 16.6275 182.332 19.4578 185.396 20.3422C186.446 20.696 187.321 20.8729 187.759 20.5191C188.197 20.7845 188.634 21.0498 188.984 21.3151C189.335 21.6689 189.685 22.0227 189.86 22.5534C190.21 24.4107 188.722 26.0027 188.634 26.0912Z" fill="#FFFFFD"/>
<ellipse cx="171.127" cy="8.93274" rx="0.328249" ry="0.331669" fill="black"/>
<path d="M187.671 20.6075C187.233 21.0497 186.358 20.7844 185.308 20.4306C182.244 19.5461 179.705 16.7159 178.567 13.7088C178.042 12.2936 177.605 10.6132 176.292 8.13673C176.117 7.78295 175.941 7.51761 175.679 7.25227C175.416 6.89849 175.066 6.63316 174.628 6.54471C173.666 6.36782 172.615 7.25227 172.178 8.13673C171.302 9.81718 172.528 11.5861 172.178 11.763C172.178 11.5861 171.74 9.72874 171.127 8.84429C171.04 8.49051 170.952 7.6945 171.39 6.89849C171.915 5.74871 173.053 4.86426 174.103 4.86426C174.716 4.86426 175.329 5.12959 175.854 5.57182C176.904 6.36782 177.692 7.87139 178.217 8.93273C178.48 9.37496 178.918 10.5247 179.793 12.7359C180.843 15.3892 180.843 15.5661 181.281 16.1852C181.894 17.1581 182.769 18.6617 184.432 19.5461C185.658 20.0768 186.27 19.723 187.671 20.6075Z" fill="#D8E8EF"/>
<path d="M169.901 14.4166C168.939 12.2055 168.764 10.3481 169.114 9.64057C169.201 9.55213 169.376 9.19835 169.726 8.84457C169.989 8.57923 170.164 8.40234 170.427 8.40234C170.689 8.40234 170.864 8.57923 171.127 8.84457C171.302 9.1099 171.477 9.37524 171.565 9.72902C171.74 10.1712 171.915 10.6135 172.002 10.9673C171.302 9.99435 170.777 9.55213 170.427 9.72902C169.901 9.81747 169.726 11.4095 169.901 14.4166Z" fill="#D8E8EF"/>
<path d="M188.634 26.0911C186.708 28.0369 183.557 27.3293 183.206 27.2409C182.594 27.064 181.893 26.7986 178.917 24.5875C176.554 22.7302 175.329 21.8457 174.278 20.7844C171.915 18.3079 170.689 16.0968 169.989 14.5932C169.989 14.5048 169.901 14.5048 169.901 14.4163C168.939 12.2052 168.764 10.3479 169.114 9.64029C169.201 9.55185 169.376 9.19807 169.726 8.84429C169.989 8.57895 170.164 8.40206 170.427 8.40206C170.689 8.40206 170.864 8.57895 171.127 8.84429C171.039 8.49051 170.952 7.6945 171.39 6.89849C171.915 5.74871 173.053 4.86426 174.103 4.86426C174.716 4.86426 175.329 5.12959 175.854 5.57182C176.904 6.36782 177.692 7.87139 178.217 8.93273C178.48 9.37496 178.917 10.5247 179.793 12.7359C180.843 15.3892 180.843 15.5661 181.281 16.1852C181.894 17.1581 182.769 18.6617 184.432 19.5461C185.657 20.1653 186.27 19.8999 187.758 20.6959C188.196 20.9613 188.634 21.2266 188.984 21.4919C189.334 21.8457 189.684 22.1995 189.859 22.7302C190.209 24.4106 188.721 26.0026 188.634 26.0911Z" stroke="black" stroke-width="0.75" stroke-miterlimit="10"/>
<path d="M191.61 27.5949C191.435 29.01 190.385 30.2483 188.984 30.5136C186.971 30.9558 184.608 29.01 184.783 26.7105C184.958 24.9416 186.708 23.2611 188.722 23.6149C190.647 23.8802 191.785 25.826 191.61 27.5949Z" fill="#FFFFFD" stroke="black" stroke-width="0.75" stroke-miterlimit="10"/>
<path d="M191.61 26.622C191.085 25.7376 190.297 25.03 189.247 24.9416C187.233 24.5878 185.483 26.2682 185.308 28.0371C185.308 28.214 185.308 28.3909 185.308 28.5678C184.957 28.0371 184.782 27.3296 184.87 26.7105C185.045 24.9416 186.796 23.2611 188.809 23.6149C190.297 23.8802 191.347 25.2069 191.61 26.622Z" fill="#D8E8EF"/>
<path d="M191.61 27.5949C191.435 29.01 190.385 30.2483 188.984 30.5136C186.971 30.9558 184.608 29.01 184.783 26.7105C184.958 24.9416 186.708 23.2611 188.722 23.6149C190.647 23.8802 191.785 25.826 191.61 27.5949Z" stroke="black" stroke-width="0.75" stroke-miterlimit="10"/>
<path opacity="0.18" d="M196.25 13.09C196.162 12.7362 193.624 6.19126 186.971 4.95303C181.807 3.98013 177.955 6.81038 177.255 7.34105C176.817 6.72193 176.38 6.10282 175.854 5.66059C176.38 5.21836 177.343 4.59925 178.568 4.06858C179.969 3.44946 181.807 2.91879 183.995 3.00724C185.045 3.00724 189.51 3.27257 192.923 6.81038C194.499 8.40239 195.725 10.6135 196.25 13.09Z" fill="#004056"/>
<path opacity="0.18" d="M192.661 15.5665C192.486 15.478 192.223 15.478 191.96 15.478C191.698 15.478 191.435 15.6549 191.348 15.6549C191.61 16.1856 191.96 16.8931 192.135 17.7776C192.311 18.4852 192.311 19.0158 192.311 19.5465C192.311 19.6349 192.398 19.6349 192.486 19.6349C192.923 19.7234 193.536 16.0087 192.661 15.5665Z" fill="#004056"/>
</svg>