<svg width="123" height="66" viewBox="0 0 123 66" fill="none" xmlns="http://www.w3.org/2000/svg">
<path d="M105.322 66C104.047 66 102.922 65.7277 101.947 65.183C100.979 64.6306 100.219 63.8749 99.6656 62.916C99.1204 61.9493 98.8477 60.8446 98.8477 59.6017C98.8477 58.2438 99.1165 57.0624 99.6541 56.0574C100.192 55.0524 100.933 54.2737 101.877 53.7213C102.822 53.1613 103.909 52.8813 105.138 52.8813C106.443 52.8813 107.553 53.1881 108.467 53.8019C109.381 54.4156 110.056 55.2787 110.494 56.3911C110.932 57.5035 111.086 58.8116 110.955 60.3152H107.856V59.1645C107.856 57.8986 107.653 56.9895 107.246 56.4371C106.846 55.8771 106.19 55.5971 105.276 55.5971C104.208 55.5971 103.421 55.9231 102.914 56.5752C102.415 57.2197 102.165 58.1748 102.165 59.4406C102.165 60.5991 102.415 61.4967 102.914 62.1334C103.421 62.7625 104.162 63.0771 105.138 63.0771C105.752 63.0771 106.278 62.9428 106.716 62.6743C107.153 62.4058 107.488 62.0184 107.718 61.512L110.851 62.4096C110.383 63.545 109.642 64.4273 108.628 65.0564C107.622 65.6855 106.52 66 105.322 66ZM101.198 60.3152V57.9907H109.446V60.3152H101.198Z" fill="#E40505"/>
<path d="M94.2868 65.6549V59.786C94.2868 59.5021 94.2715 59.1416 94.2407 58.7043C94.21 58.2593 94.114 57.8143 93.9527 57.3694C93.7915 56.9244 93.5265 56.5523 93.1579 56.2531C92.7969 55.9539 92.2824 55.8043 91.6142 55.8043C91.3454 55.8043 91.0574 55.8465 90.7503 55.9309C90.4431 56.0153 90.1551 56.1803 89.8863 56.4257C89.6175 56.6636 89.3948 57.0165 89.2181 57.4845C89.0492 57.9524 88.9647 58.5738 88.9647 59.3487L87.1676 58.4971C87.1676 57.5151 87.3673 56.5945 87.7666 55.7353C88.166 54.876 88.765 54.1818 89.5637 53.6524C90.3701 53.1231 91.3838 52.8584 92.6049 52.8584C93.5803 52.8584 94.3751 53.0233 94.9895 53.3532C95.6039 53.6831 96.0801 54.1012 96.418 54.6075C96.7636 55.1139 97.0093 55.6432 97.1552 56.1956C97.3012 56.7403 97.3895 57.239 97.4202 57.6916C97.4509 58.1442 97.4663 58.4741 97.4663 58.6812V65.6549H94.2868ZM85.7852 65.6549V53.2266H88.573V57.3464H88.9647V65.6549H85.7852Z" fill="#E40505"/>
<path d="M77.6532 66C76.4013 66 75.3031 65.72 74.3585 65.1599C73.4139 64.5999 72.6766 63.8289 72.1467 62.8469C71.6245 61.8572 71.3634 60.7218 71.3634 59.4406C71.3634 58.1441 71.6321 57.0049 72.1697 56.0229C72.7073 55.0332 73.4484 54.2622 74.3931 53.7098C75.3377 53.1575 76.4244 52.8813 77.6532 52.8813C78.905 52.8813 80.0032 53.1613 80.9478 53.7213C81.9001 54.2814 82.6412 55.0562 83.1711 56.0459C83.701 57.0279 83.966 58.1595 83.966 59.4406C83.966 60.7295 83.6972 61.8688 83.1596 62.8584C82.6297 63.8404 81.8886 64.6114 80.9363 65.1714C79.9917 65.7238 78.8973 66 77.6532 66ZM77.6532 63.0771C78.6592 63.0771 79.408 62.7395 79.8995 62.0644C80.3987 61.3816 80.6483 60.507 80.6483 59.4406C80.6483 58.3359 80.3949 57.4537 79.888 56.7939C79.3888 56.1341 78.6439 55.8042 77.6532 55.8042C76.9696 55.8042 76.409 55.9577 75.9713 56.2645C75.5335 56.5714 75.2071 56.9972 74.9921 57.5419C74.7847 58.0866 74.681 58.7195 74.681 59.4406C74.681 60.553 74.9306 61.4391 75.4298 62.0989C75.9367 62.751 76.6778 63.0771 77.6532 63.0771Z" fill="#E40505"/>
<path d="M65.345 65.6546V53.2723C65.345 52.9578 65.3527 52.6011 65.368 52.2021C65.3834 51.8032 65.4448 51.4004 65.5524 50.9938C65.6676 50.5872 65.8749 50.219 66.1744 49.8891C66.5584 49.4595 66.9731 49.1679 67.4186 49.0145C67.8717 48.8534 68.3094 48.769 68.7318 48.7613C69.1542 48.746 69.5152 48.7383 69.8147 48.7383H71.3583V51.27H69.9299C69.4384 51.27 69.0736 51.3966 68.8355 51.6498C68.5974 51.8953 68.4784 52.1906 68.4784 52.5358V65.6546H65.345ZM63.3866 55.6429V53.2263H71.3583V55.6429H63.3866Z" fill="#E40505"/>
<path d="M55.0235 66C54.1327 66 53.3762 65.8312 52.7541 65.4937C52.1398 65.1484 51.6713 64.692 51.3487 64.1243C51.0339 63.5489 50.8764 62.916 50.8764 62.2255C50.8764 61.6501 50.9647 61.1246 51.1414 60.6489C51.318 60.1733 51.6022 59.7552 51.9938 59.3946C52.3932 59.0264 52.9269 58.7195 53.5951 58.474C54.0559 58.3052 54.605 58.1556 55.2424 58.0252C55.8798 57.8948 56.6017 57.772 57.4081 57.657C58.2145 57.5342 59.1015 57.3999 60.0692 57.2542L58.9403 57.8756C58.9403 57.1391 58.7636 56.5983 58.4103 56.253C58.0571 55.9078 57.4657 55.7352 56.6363 55.7352C56.1755 55.7352 55.6955 55.8464 55.1963 56.0689C54.6971 56.2914 54.3477 56.6865 54.148 57.2542L51.3142 56.3566C51.629 55.3286 52.2204 54.4923 53.0882 53.8479C53.956 53.2035 55.1387 52.8813 56.6363 52.8813C57.7345 52.8813 58.7099 53.0501 59.5623 53.3876C60.4148 53.7252 61.0599 54.3082 61.4976 55.1368C61.7434 55.5971 61.8893 56.0574 61.9354 56.5177C61.9815 56.978 62.0045 57.492 62.0045 58.0597V65.6548H59.2628V63.1001L59.6545 63.6294C59.0478 64.4656 58.3911 65.0717 57.6846 65.4476C56.9857 65.8159 56.0987 66 55.0235 66ZM55.6917 63.5374C56.2677 63.5374 56.7515 63.4376 57.1432 63.2382C57.5425 63.031 57.8574 62.797 58.0878 62.5362C58.3259 62.2754 58.4871 62.0567 58.5716 61.8803C58.7329 61.5427 58.8251 61.1514 58.8481 60.7065C58.8788 60.2538 58.8942 59.8779 58.8942 59.5787L59.8158 59.8089C58.8865 59.9623 58.1339 60.0927 57.5579 60.2001C56.9819 60.2999 56.5173 60.3919 56.164 60.4763C55.8107 60.5607 55.4997 60.6528 55.2309 60.7525C54.9237 60.8753 54.6741 61.0095 54.4821 61.1553C54.2978 61.2934 54.1595 61.4468 54.0674 61.6156C53.9829 61.7844 53.9407 61.9723 53.9407 62.1795C53.9407 62.4633 54.0098 62.7088 54.148 62.916C54.294 63.1154 54.4975 63.2689 54.7586 63.3763C55.0197 63.4837 55.3307 63.5374 55.6917 63.5374Z" fill="#E40505"/>
<path d="M42.9047 65.9996C41.7604 65.9996 40.7582 65.712 39.898 65.1366C39.0379 64.5612 38.3659 63.7787 37.8821 62.789C37.4059 61.7994 37.1678 60.6831 37.1678 59.4403C37.1678 58.1744 37.4098 57.0505 37.8936 56.0685C38.3851 55.0789 39.0724 54.3002 39.9556 53.7325C40.8388 53.1648 41.8756 52.8809 43.066 52.8809C44.2487 52.8809 45.2432 53.1686 46.0496 53.744C46.856 54.3194 47.4665 55.1019 47.8812 56.0916C48.2959 57.0812 48.5033 58.1975 48.5033 59.4403C48.5033 60.6831 48.2921 61.7994 47.8697 62.789C47.455 63.7787 46.8329 64.5612 46.0035 65.1366C45.1741 65.712 44.1411 65.9996 42.9047 65.9996ZM43.4116 63.2148C44.1104 63.2148 44.6672 63.0575 45.0819 62.743C45.5043 62.4284 45.8077 61.9873 45.992 61.4196C46.1763 60.8519 46.2685 60.1921 46.2685 59.4403C46.2685 58.6884 46.1763 58.0287 45.992 57.461C45.8077 56.8933 45.512 56.4521 45.105 56.1376C44.7056 55.823 44.1795 55.6658 43.5268 55.6658C42.8279 55.6658 42.2519 55.8384 41.7988 56.1836C41.3534 56.5212 41.0231 56.9776 40.8081 57.553C40.5931 58.1207 40.4855 58.7498 40.4855 59.4403C40.4855 60.1384 40.5892 60.7752 40.7966 61.3506C41.0039 61.9183 41.3226 62.3709 41.7527 62.7085C42.1828 63.046 42.7357 63.2148 43.4116 63.2148ZM46.2685 65.6544V57.1388H45.8768V49.0834H49.0332V65.6544H46.2685Z" fill="#E40505"/>
<path d="M29.7042 66C28.4524 66 27.3542 65.72 26.4096 65.1599C25.465 64.5999 24.7277 63.8289 24.1978 62.8469C23.6756 61.8572 23.4144 60.7218 23.4144 59.4406C23.4144 58.1441 23.6832 57.0049 24.2208 56.0229C24.7584 55.0332 25.4995 54.2622 26.4441 53.7098C27.3888 53.1575 28.4755 52.8813 29.7042 52.8813C30.956 52.8813 32.0543 53.1613 32.9989 53.7213C33.9512 54.2814 34.6923 55.0562 35.2222 56.0459C35.7521 57.0279 36.0171 58.1595 36.0171 59.4406C36.0171 60.7295 35.7483 61.8688 35.2107 62.8584C34.6808 63.8404 33.9397 64.6114 32.9874 65.1714C32.0427 65.7238 30.9484 66 29.7042 66ZM29.7042 63.0771C30.7103 63.0771 31.4591 62.7395 31.9506 62.0644C32.4498 61.3816 32.6994 60.507 32.6994 59.4406C32.6994 58.3359 32.4459 57.4537 31.9391 56.7939C31.4399 56.1341 30.6949 55.8042 29.7042 55.8042C29.0207 55.8042 28.4601 55.9577 28.0223 56.2645C27.5846 56.5714 27.2582 56.9972 27.0432 57.5419C26.8358 58.0866 26.7321 58.7195 26.7321 59.4406C26.7321 60.553 26.9817 61.4391 27.4809 62.0989C27.9878 62.751 28.7289 63.0771 29.7042 63.0771Z" fill="#E40505"/>
<path d="M15.5157 65.6546L11 53.2264H14.1334L17.0824 61.8341L20.0315 53.2264H23.1649L18.6491 65.6546H15.5157Z" fill="#E40505"/>
<path fill-rule="evenodd" clip-rule="evenodd" d="M61.3143 43.6614C73.3837 43.6614 83.168 33.8874 83.168 21.8307C83.168 12.7453 77.6123 4.95594 69.709 1.66884C65.3464 4.31785 63.4484 8.36847 62.9333 10.2649C68.623 11.0522 73.0035 15.9303 73.0035 21.8307C73.0035 28.2795 67.7704 33.5076 61.3143 33.5076C54.8583 33.5076 49.6251 28.2795 49.6251 21.8307C49.6251 5.65897 62.2484 1.58505 69.3377 1.51811C66.8542 0.53843 64.1473 0 61.3143 0C49.2449 0 39.4606 9.77404 39.4606 21.8307C39.4606 33.8874 49.2449 43.6614 61.3143 43.6614Z" fill="#E40505"/>
</svg>
