<svg width="31" height="30" viewBox="0 0 31 30" fill="none" xmlns="http://www.w3.org/2000/svg">
<g id="Group">
<path id="Vector" d="M5.14455 10.3555H1.37891C0.893516 10.3555 0.5 10.749 0.5 11.2344V20.6485C0.5 21.1338 0.893516 21.5274 1.37891 21.5274H5.14455C5.62994 21.5274 6.02346 21.1338 6.02346 20.6485V11.2344C6.02346 10.749 5.62994 10.3555 5.14455 10.3555Z" fill="white"/>
<path id="Vector_2" d="M21.6172 20.5235C22.1026 20.5235 22.4961 20.13 22.4961 19.6446V17.6993H22.5586C23.044 17.6993 23.4375 17.3057 23.4375 16.8204C23.4375 16.335 23.044 15.9415 22.5586 15.9415H22.4961V11.1719C22.4961 10.8165 22.282 10.496 21.9536 10.3599C21.6253 10.2239 21.2473 10.299 20.9958 10.5504C20.9958 10.5504 18.2517 13.2935 16.9507 14.5936C16.3663 15.1811 16.0312 15.9928 16.0312 16.8204C16.0312 17.3057 16.4248 17.6993 16.9102 17.6993H20.7383V19.6446C20.7383 20.13 21.1318 20.5235 21.6172 20.5235ZM18.0999 15.9415C18.1298 15.9044 18.1615 15.8689 18.1951 15.8351C18.8534 15.1773 19.883 14.1482 20.7383 13.2932V15.9415H18.0999Z" fill="white"/>
<path id="Vector_3" d="M14.496 19.6445C14.496 19.1591 14.1025 18.7656 13.6171 18.7656H10.0999C10.1297 18.7286 10.1615 18.693 10.1951 18.6593C11.4943 17.361 14.2385 14.6177 14.2385 14.6177C14.4034 14.4528 14.4961 14.2292 14.4961 13.9961V13.5254C14.4961 11.743 13.0461 10.293 11.2637 10.293C9.4644 10.293 8.03125 11.7504 8.03125 13.5244V13.5254C8.03125 14.0107 8.42477 14.4038 8.91016 14.4038C9.39555 14.4038 9.78906 14.0098 9.78906 13.5244C9.78906 12.7181 10.4383 12.0508 11.2637 12.0508C12.0768 12.0508 12.7383 12.7123 12.7383 13.5254V13.6319C12.0256 14.3444 10.0099 16.3593 8.95065 17.4179C8.36629 18.0054 8.03125 18.817 8.03125 19.6445C8.03125 20.1299 8.42477 20.5234 8.91016 20.5234H13.6172C14.1025 20.5234 14.496 20.1299 14.496 19.6445Z" fill="white"/>
<path id="Vector_4" d="M15.4992 1.75781C19.9105 1.75781 23.6274 4.78758 24.6785 8.87549C25.0329 8.69807 25.4322 8.59764 25.8547 8.59764H26.4203C25.2307 3.67102 20.7859 0 15.4992 0C10.2124 0 5.76764 3.67102 4.57812 8.59764H5.14373C5.56625 8.59764 5.96551 8.69807 6.31988 8.87549C7.37094 4.78758 11.0879 1.75781 15.4992 1.75781Z" fill="white"/>
<path id="Vector_5" d="M24.5077 22.9135C23.6291 24.9389 21.6103 26.3594 19.2656 26.3594H18.1175C17.7495 25.2663 16.7156 24.4766 15.5 24.4766C13.9772 24.4766 12.7383 25.7155 12.7383 27.2383C12.7383 28.7611 13.9772 30 15.5 30C16.7155 30 17.7495 29.2103 18.1175 28.1172H19.2656C22.4561 28.1172 25.1852 26.1061 26.2532 23.2852H25.8554C25.3632 23.2852 24.9023 23.1492 24.5077 22.9135Z" fill="white"/>
<path id="Vector_6" d="M29.6211 10.3555H25.8555C25.3701 10.3555 24.9766 10.749 24.9766 11.2344V20.6485C24.9766 21.1338 25.3701 21.5274 25.8555 21.5274H29.6211C30.1065 21.5274 30.5 21.1338 30.5 20.6485V11.2344C30.5 10.749 30.1065 10.3555 29.6211 10.3555Z" fill="white"/>
</g>
</svg>
