<svg viewBox="0 0 81 80" fill="none" xmlns="http://www.w3.org/2000/svg">
  <circle cx="40.5" cy="40" r="40" fill="white"/>
  <g clip-path="url(#clip0_295_653)">
  <path d="M28.7808 23.724H22.1836C21.4639 23.724 20.8815 24.3063 20.8815 25.026C20.8815 25.7457 21.4639 26.3281 22.1836 26.3281H28.7808C29.5005 26.3281 30.0829 25.7457 30.0829 25.026C30.0829 24.3063 29.5005 23.724 28.7808 23.724Z" fill="#C1F20D"/>
  <path d="M28.7808 34.1406H22.1836C21.4639 34.1406 20.8815 34.723 20.8815 35.4427C20.8815 36.1624 21.4639 36.7448 22.1836 36.7448H28.7808C29.5005 36.7448 30.0829 36.1624 30.0829 35.4427C30.0829 34.723 29.5005 34.1406 28.7808 34.1406Z" fill="#C1F20D"/>
  <path d="M26.1766 28.9323H19.5794C18.8597 28.9323 18.2773 29.5147 18.2773 30.2344C18.2773 30.9541 18.8597 31.5365 19.5794 31.5365H26.1766C26.8964 31.5365 27.4787 30.9541 27.4787 30.2344C27.4787 29.5147 26.8964 28.9323 26.1766 28.9323Z" fill="#C1F20D"/>
  <path d="M60.1176 35.4427H52.2183V30.2344C52.2183 27.9474 49.4207 26.7432 47.7721 28.3939L37.3563 38.8098C36.339 39.8271 36.339 41.475 37.3563 42.4923L43.3275 48.4635L36.0542 55.7369C35.0369 56.7542 35.0369 58.4021 36.0542 59.4193C37.0714 60.4365 38.7194 60.4366 39.7366 59.4193L48.8512 50.3048C49.8685 49.2875 49.8685 47.6396 48.8512 46.6223L42.8799 40.651L47.01 36.521V38.0469C47.01 39.485 48.176 40.651 49.6141 40.651H60.1176C61.5557 40.651 62.7218 39.485 62.7218 38.0469C62.7218 36.6088 61.5557 35.4427 60.1176 35.4427Z" fill="#C1F20D"/>
  <path d="M42.5951 22.2083C41.56 21.5204 40.1867 21.6565 39.3093 22.5338L32.1478 29.6953C31.1306 30.7126 31.1306 32.3605 32.1478 33.3778C33.1651 34.395 34.8131 34.395 35.8304 33.3777L41.4825 27.7256L43.3865 29.0971L45.9304 26.5532C46.3559 26.1277 46.8578 25.7974 47.4067 25.5395L42.5951 22.2083Z" fill="#C1F20D"/>
  <path d="M35.515 44.3335C34.8552 43.6737 34.4148 42.8616 34.1826 41.9835L20.4292 55.7369C19.4119 56.7542 19.4119 58.4021 20.4292 59.4193C21.4464 60.4365 23.0944 60.4366 24.1116 59.4193L37.3562 46.1747L35.515 44.3335Z" fill="#C1F20D"/>
  <path d="M53.5204 27.6302C55.6778 27.6302 57.4266 25.8813 57.4266 23.724C57.4266 21.5666 55.6778 19.8177 53.5204 19.8177C51.363 19.8177 49.6141 21.5666 49.6141 23.724C49.6141 25.8813 51.363 27.6302 53.5204 27.6302Z" fill="#C1F20D"/>
  </g>
  <defs>
  <clipPath id="clip0_295_653">
  <rect width="44.4444" height="44.4444" fill="white" transform="translate(18.2773 17.7778)"/>
  </clipPath>
  </defs>
</svg>
