<svg viewBox="0 0 32 32" fill="none" xmlns="http://www.w3.org/2000/svg">
<circle cx="16" cy="16" r="16" fill="white"/>
<g clip-path="url(#clip0_492_3696)">
<path d="M17.0423 11.834H16.5215V12.8757H17.0423C17.3297 12.8757 17.5632 12.6422 17.5632 12.3548C17.5632 12.0675 17.3297 11.834 17.0423 11.834Z" fill="#25CFF0"/>
<path d="M11.9346 13.9169H12.7751L12.3548 12.7959L11.9346 13.9169Z" fill="#25CFF0"/>
<path d="M22.7502 11.4898C22.5835 9.63563 21.021 8.15299 19.1252 8.15299C18.5003 8.15299 17.896 8.31963 17.3439 8.62174C16.4585 7.65296 15.2398 7.11133 13.9169 7.11133C11.4481 7.11133 9.41688 9.06268 9.25025 11.4898C8.00022 11.9159 7.11133 13.1004 7.11133 14.4377C7.11133 16.1386 8.51629 17.5627 10.2711 17.5627H21.7294C23.4644 17.5627 24.8891 16.1449 24.8891 14.4377C24.8891 13.0627 23.9793 11.9065 22.7502 11.4898ZM14.1 15.9672C13.8268 16.0681 13.529 15.9291 13.4291 15.6625L13.1652 14.9585H11.5436L11.2796 15.6625C11.1784 15.9321 10.8768 16.0658 10.6088 15.9671C10.3397 15.8659 10.2034 15.5658 10.3041 15.2963L11.8666 11.1296C12.0192 10.7237 12.6896 10.7237 12.8422 11.1296L14.4047 15.2963C14.5054 15.5658 14.369 15.8659 14.1 15.9672ZM17.0419 13.9169H16.521V15.4794C16.521 15.7673 16.2881 16.0002 16.0002 16.0002C15.7123 16.0002 15.4794 15.7673 15.4794 15.4794V11.3127C15.4794 11.0248 15.7123 10.7919 16.0002 10.7919H17.0419C17.9035 10.7919 18.6044 11.4928 18.6044 12.3544C18.6044 13.216 17.9035 13.9169 17.0419 13.9169ZM20.6877 15.4794C20.6877 15.7673 20.4548 16.0002 20.1669 16.0002C19.879 16.0002 19.646 15.7673 19.646 15.4794V11.3127C19.646 11.0248 19.879 10.7919 20.1669 10.7919C20.4548 10.7919 20.6877 11.0248 20.6877 11.3127V15.4794Z" fill="#25CFF0"/>
<path d="M9.87649 21.018L10.3973 21.9201C10.5411 22.1692 10.8596 22.2546 11.1088 22.1108L11.6458 21.8007C12.4821 22.7794 13.6409 23.4712 14.959 23.7137V24.3684C14.959 24.656 15.1921 24.8892 15.4798 24.8892H16.5215C16.8091 24.8892 17.0423 24.656 17.0423 24.3684V23.7137C18.3603 23.4712 19.5192 22.7794 20.3554 21.8007L20.8925 22.1108C21.1416 22.2546 21.4601 22.1692 21.6039 21.9201L22.1248 21.018C22.2686 20.7689 22.1833 20.4504 21.9341 20.3065L21.3959 19.9958C21.5519 19.5556 21.6378 19.0859 21.6836 18.6045H19.594C19.3393 20.3691 17.8358 21.7295 16.0006 21.7295C14.1655 21.7295 12.662 20.3691 12.4073 18.6045H10.3177C10.3635 19.0859 10.4493 19.5556 10.6054 19.9958L10.0671 20.3065C9.81802 20.4504 9.7327 20.7689 9.87649 21.018Z" fill="#25CFF0"/>
</g>
<defs>
<clipPath id="clip0_492_3696">
<rect width="17.7778" height="17.7778" fill="white" transform="translate(7.11133 7.11133)"/>
</clipPath>
</defs>
</svg>
