<svg width="29" height="30" viewBox="0 0 29 30" fill="none" xmlns="http://www.w3.org/2000/svg">
<g id="diamond">
<path id="Vector" d="M14.066 23.7229C14.0665 22.2401 14.4665 20.7848 15.2241 19.5101C15.9818 18.2355 17.0689 17.1886 18.3712 16.4796C19.6735 15.7706 21.1428 15.4257 22.6246 15.4811C24.1063 15.5366 25.5457 15.9904 26.7914 16.7947C26.8002 16.1836 26.8049 15.5314 26.8049 14.8277C26.8049 11.2096 26.6818 8.95137 26.4387 6.6123H26.4732C26.3388 5.3089 25.841 4.06945 25.0366 3.0351C24.2323 2.00074 23.1536 1.21305 21.9234 0.761719C21.8584 0.737109 21.7934 0.713672 21.7277 0.691406C21.2416 0.527995 20.739 0.418548 20.2289 0.365039L20.1803 0.359766C18.2344 0.159961 17.9221 0 13.8188 0C9.71543 0 9.05156 0.159961 7.10742 0.362695L7.05879 0.367969C6.52335 0.424199 5.99622 0.54217 5.48789 0.719531V0.693164C4.22041 1.12411 3.10307 1.90943 2.26832 2.95604C1.43356 4.00266 0.916395 5.26667 0.778125 6.59824C0.534375 8.94199 0.410156 11.2025 0.410156 14.8277C0.410156 18.4529 0.534375 20.7135 0.778125 23.0572C0.944568 24.6566 1.65601 26.15 2.79309 27.287C3.93016 28.424 5.42368 29.1353 7.02305 29.3016L7.07168 29.3068C9.01758 29.5096 9.3293 29.6695 13.4326 29.6695C14.792 29.6695 15.7764 29.652 16.5492 29.6209C15.7622 28.8536 15.1369 27.9363 14.7104 26.9233C14.2839 25.9103 14.0648 24.822 14.066 23.7229ZM7.21055 7.80176H20.0022C20.3723 7.80176 20.7273 7.94881 20.9891 8.21055C21.2508 8.4723 21.3979 8.8273 21.3979 9.19746C21.3979 9.56762 21.2508 9.92263 20.9891 10.1844C20.7273 10.4461 20.3723 10.5932 20.0022 10.5932H7.21348C6.84331 10.5932 6.48831 10.4461 6.22657 10.1844C5.96482 9.92263 5.81777 9.56762 5.81777 9.19746C5.81777 8.8273 5.96482 8.4723 6.22657 8.21055C6.48831 7.94881 6.84331 7.80176 7.21348 7.80176H7.21055ZM7.21055 16.5656C6.84526 16.5581 6.49746 16.4078 6.24176 16.1468C5.98607 15.8858 5.84286 15.535 5.84286 15.1696C5.84286 14.8043 5.98607 14.4535 6.24176 14.1925C6.49746 13.9315 6.84526 13.7811 7.21055 13.7736H14.5061C14.6918 13.7698 14.8764 13.8031 15.0491 13.8716C15.2218 13.94 15.3791 14.0422 15.5118 14.1722C15.6445 14.3022 15.7499 14.4574 15.8219 14.6287C15.8939 14.8 15.9309 14.9839 15.9309 15.1696C15.9309 15.3554 15.8939 15.5393 15.8219 15.7106C15.7499 15.8818 15.6445 16.037 15.5118 16.167C15.3791 16.297 15.2218 16.3992 15.0491 16.4677C14.8764 16.5361 14.6918 16.5694 14.5061 16.5656H7.21055Z" fill="white"/>
<path id="Vector_2" d="M22.3123 17.4457C21.0708 17.4457 19.8572 17.8138 18.8249 18.5036C17.7926 19.1933 16.9881 20.1737 16.513 21.3207C16.0379 22.4677 15.9136 23.7298 16.1558 24.9474C16.398 26.1651 16.9958 27.2836 17.8737 28.1614C18.7516 29.0393 19.87 29.6372 21.0877 29.8794C22.3053 30.1216 23.5675 29.9973 24.7145 29.5222C25.8615 29.0471 26.8418 28.2425 27.5316 27.2102C28.2213 26.178 28.5895 24.9643 28.5895 23.7228C28.5895 22.058 27.9281 20.4614 26.7509 19.2842C25.5737 18.107 23.9771 17.4457 22.3123 17.4457ZM24.8002 24.6416H22.1875C21.9894 24.6416 21.7993 24.5629 21.6592 24.4228C21.5191 24.2827 21.4404 24.0926 21.4404 23.8945V19.8808C21.4404 19.6827 21.5191 19.4927 21.6592 19.3526C21.7993 19.2125 21.9894 19.1338 22.1875 19.1338C22.3856 19.1338 22.5757 19.2125 22.7158 19.3526C22.8559 19.4927 22.9346 19.6827 22.9346 19.8808V23.1474H24.8002C24.9983 23.1474 25.1884 23.2261 25.3285 23.3662C25.4686 23.5064 25.5473 23.6964 25.5473 23.8945C25.5473 24.0926 25.4686 24.2827 25.3285 24.4228C25.1884 24.5629 24.9983 24.6416 24.8002 24.6416Z" fill="white"/>
</g>
</svg>
