<svg viewBox="0 0 30 30" fill="none" xmlns="http://www.w3.org/2000/svg">
  <g clip-path="url(#clip0_140_2248)">
  <path d="M7.21749 15.9646L20.8539 29.6006C21.3863 30.1331 22.2498 30.1331 22.7823 29.6005C23.3148 29.068 23.3148 28.2046 22.7822 27.6721L10.1101 15.0002L22.7823 2.32779C23.3148 1.79524 23.3148 0.931877 22.7822 0.399332C22.516 0.133061 22.167 -3.23362e-05 21.818 -3.23057e-05C21.469 -3.22752e-05 21.12 0.133061 20.8538 0.399424L7.21749 14.0361C6.96167 14.2919 6.81803 14.6387 6.81803 15.0003C6.81803 15.362 6.96167 15.7089 7.21749 15.9646Z" fill="currentColor"/>
  </g>
  <defs>
  <clipPath id="clip0_140_2248">
  <rect width="30" height="30" fill="white" transform="translate(30 30) rotate(180)"/>
  </clipPath>
  </defs>
</svg>
