<svg viewBox="0 0 81 80" fill="none" xmlns="http://www.w3.org/2000/svg">
  <circle cx="40.5" cy="40" r="40" fill="white"/>
  <g clip-path="url(#clip0_295_670)">
  <path d="M58.6029 41.1559H53.0242C52.3051 41.1559 51.7221 41.7389 51.7221 42.458V57.0139H59.905V42.458C59.905 41.7389 59.322 41.1559 58.6029 41.1559Z" fill="#313E50"/>
  <path d="M30.7094 54.0393C29.9903 54.0393 29.4073 54.6223 29.4073 55.3414V57.0139H37.5902V55.3414C37.5902 54.6223 37.0072 54.0393 36.2881 54.0393H30.7094Z" fill="#313E50"/>
  <path d="M41.8668 47.5976C41.1477 47.5976 40.5647 48.1805 40.5647 48.8996V57.0139H48.7476V48.8996C48.7476 48.1805 48.1646 47.5976 47.4455 47.5976H41.8668Z" fill="#313E50"/>
  <path d="M61.3923 59.618H26.4328V39.6318C25.5311 39.5225 24.6595 39.3148 23.8286 39.0201V60.9201C23.8286 61.6392 24.4116 62.2222 25.1307 62.2222H61.3922C63.1069 62.1631 63.1271 59.6855 61.3923 59.618Z" fill="#313E50"/>
  <path d="M54.458 32.4997L55.2309 32.7071L30.0584 47.2404C29.4355 47.6 29.2222 48.3963 29.5818 49.0191C29.8877 49.549 30.649 49.9064 31.3605 49.4957L56.5344 34.9615L56.327 35.7379C56.1414 36.4327 56.5541 37.1464 57.2488 37.332C57.9776 37.5266 58.6665 37.0706 58.8428 36.4101L59.8609 32.5999C60.0465 31.9056 59.6345 31.1924 58.9404 31.0062L55.133 29.9846C53.4513 29.599 52.8075 31.9904 54.458 32.4997Z" fill="#313E50"/>
  <path d="M37.5901 27.4479C37.5901 22.1158 33.2521 17.7778 27.92 17.7778C15.1089 18.264 15.1124 36.6338 27.9201 37.118C33.2521 37.118 37.5901 32.78 37.5901 27.4479ZM26.7105 27.5405V21.9618C26.7742 20.2369 29.251 20.2365 29.3147 21.9618V26.2384H32.1967C33.9213 26.3019 33.9222 28.7787 32.1967 28.8425H28.0126C27.2935 28.8426 26.7105 28.2596 26.7105 27.5405Z" fill="#313E50"/>
  </g>
  <defs>
  <clipPath id="clip0_295_670">
  <rect width="44.4444" height="44.4444" fill="white" transform="translate(18.2773 17.7778)"/>
  </clipPath>
  </defs>
</svg>
