<svg viewBox="0 0 40 40" fill="none" xmlns="http://www.w3.org/2000/svg">
  <path d="M38.3624 15.3063L34.0812 31.7875C33.9566 32.2648 33.6775 32.6874 33.2874 32.9893C32.8973 33.2912 32.4182 33.4554 31.9249 33.4563H8.07491C7.58164 33.4554 7.10255 33.2912 6.71245 32.9893C6.32236 32.6874 6.04323 32.2648 5.91866 31.7875L1.63741 15.3063C1.5333 14.9096 1.54074 14.4918 1.65891 14.0991C1.77707 13.7063 2.00138 13.3538 2.3071 13.0804C2.61282 12.807 2.98809 12.6233 3.39155 12.5496C3.79501 12.4758 4.211 12.5149 4.59366 12.6625L11.6874 15.3938C11.7591 15.4217 11.8379 15.4258 11.9122 15.4055C11.9865 15.3853 12.0523 15.3417 12.0999 15.2813L18.2437 7.40627C18.451 7.13786 18.7172 6.92054 19.0216 6.77103C19.3261 6.62151 19.6607 6.54376 19.9999 6.54376C20.3391 6.54376 20.6738 6.62151 20.9782 6.77103C21.2827 6.92054 21.5488 7.13786 21.7562 7.40627L27.8999 15.2813C27.9476 15.3417 28.0133 15.3853 28.0876 15.4055C28.1619 15.4258 28.2407 15.4217 28.3124 15.3938L35.4062 12.6625C35.7887 12.5214 36.2024 12.4871 36.6029 12.5634C37.0034 12.6396 37.3755 12.8235 37.6794 13.0952C37.9833 13.367 38.2075 13.7164 38.3278 14.106C38.4481 14.4955 38.4601 14.9104 38.3624 15.3063Z" fill="white"/>
</svg>
