<svg viewBox="0 0 81 80" fill="none" xmlns="http://www.w3.org/2000/svg">
  <circle cx="40.5" cy="40" r="40" fill="white"/>
  <path d="M33.0317 47.4375C30.6047 49.3438 29.0422 52.3021 29.0422 55.625V58.75H22.7922C21.063 58.75 19.6672 57.3542 19.6672 55.625V53.5417C19.6672 49.5104 22.9276 46.25 26.9588 46.25H29.0422C30.5213 46.25 31.8859 46.6875 33.0317 47.4375Z" fill="#25CFF0"/>
  <path d="M53.0005 46.25C55.5893 46.25 57.688 44.1513 57.688 41.5625C57.688 38.9737 55.5893 36.875 53.0005 36.875C50.4116 36.875 48.313 38.9737 48.313 41.5625C48.313 44.1513 50.4116 46.25 53.0005 46.25Z" fill="#25CFF0"/>
  <path d="M28.0005 46.25C30.5893 46.25 32.688 44.1513 32.688 41.5625C32.688 38.9737 30.5893 36.875 28.0005 36.875C25.4116 36.875 23.313 38.9737 23.313 41.5625C23.313 44.1513 25.4116 46.25 28.0005 46.25Z" fill="#25CFF0"/>
  <path d="M61.3338 53.5417V55.625C61.3338 57.3542 59.938 58.75 58.2088 58.75H51.9588V55.625C51.9588 52.3021 50.3963 49.3438 47.9692 47.4375C49.1151 46.6875 50.4797 46.25 51.9588 46.25H54.0422C58.0734 46.25 61.3338 49.5104 61.3338 53.5417Z" fill="#25CFF0"/>
  <path d="M40.5005 47.2917C43.6646 47.2917 46.2297 44.7266 46.2297 41.5625C46.2297 38.3984 43.6646 35.8333 40.5005 35.8333C37.3364 35.8333 34.7713 38.3984 34.7713 41.5625C34.7713 44.7266 37.3364 47.2917 40.5005 47.2917Z" fill="#25CFF0"/>
  <path d="M41.5422 47.2917H39.4588C34.864 47.2917 31.1255 51.0302 31.1255 55.625V58.75C31.1255 60.4729 32.5276 61.875 34.2505 61.875H46.7505C48.4734 61.875 49.8755 60.4729 49.8755 58.75V55.625C49.8755 51.0302 46.1369 47.2917 41.5422 47.2917Z" fill="#25CFF0"/>
  <path d="M55.6047 32.3792L53.0911 33.2729C52.3776 33.526 51.6328 32.9854 51.6536 32.2281L51.7265 29.5615L50.0994 27.4469C49.638 26.8469 49.9224 25.9708 50.6484 25.7563L53.2078 25.0021L54.7161 22.801C55.1442 22.1771 56.0651 22.1771 56.4932 22.801L58.0015 25.0021L60.5609 25.7563C61.2869 25.9698 61.5713 26.8469 61.1099 27.4469L59.4828 29.5615L59.5557 32.2281C59.5765 32.9844 58.8307 33.526 58.1182 33.2729L55.6047 32.3792Z" fill="#25CFF0"/>
  <path d="M25.3963 32.3792L22.8828 33.2729C22.1692 33.526 21.4244 32.9854 21.4453 32.2281L21.5182 29.5615L19.8911 27.4469C19.4297 26.8469 19.714 25.9708 20.4401 25.7563L22.9994 25.0021L24.5078 22.801C24.9359 22.1771 25.8567 22.1771 26.2849 22.801L27.7932 25.0021L30.3526 25.7563C31.0786 25.9698 31.363 26.8469 30.9015 27.4469L29.2744 29.5615L29.3474 32.2281C29.3682 32.9844 28.6224 33.526 27.9099 33.2729L25.3963 32.3792Z" fill="#25CFF0"/>
  <path d="M40.5005 30.0354L37.5203 31.0948C36.6744 31.3958 35.7911 30.7531 35.8161 29.8563L35.9026 26.6948L33.9734 24.1875C33.4265 23.476 33.764 22.4375 34.6244 22.1833L37.6588 21.2885L39.4474 18.6792C39.9547 17.9385 41.0474 17.9385 41.5546 18.6792L43.3432 21.2885L46.3776 22.1833C47.238 22.4375 47.5755 23.476 47.0286 24.1875L45.0994 26.6948L45.1859 29.8563C45.2109 30.7531 44.3265 31.3958 43.4817 31.0948L40.5005 30.0354Z" fill="#25CFF0"/>
</svg>
