<svg width="38" height="38" viewBox="0 0 38 38" fill="none" xmlns="http://www.w3.org/2000/svg">
  <path fill-rule="evenodd" clip-rule="evenodd" d="M2.02502 0.0928443L1.72931 0.174377L1.38309 0.372521L1.03687 0.570602L0.737538 0.890695L0.438143 1.21079L0.235772 1.63809L0.0334014 2.06532L0.0169448 18.8316L0.000488281 35.5978L0.0903321 35.942L0.180176 36.2862L0.338642 36.5562L0.497107 36.8263L0.750563 37.1123L1.00402 37.3983L1.36219 37.6135L1.72029 37.8287L2.08411 37.9143L2.44787 38L18.9997 37.9994L35.5516 37.9989L35.8375 37.9346L36.1234 37.8704L36.3458 37.7687L36.5682 37.6669L36.879 37.4412L37.1897 37.2154L37.4672 36.8385L37.7447 36.4615L37.8722 36.0402L37.9997 35.6189L37.9829 18.8421L37.966 2.06532L37.7637 1.63809L37.5613 1.21079L37.2591 0.887708L36.9569 0.564564L36.5719 0.352185L36.187 0.139807L35.8503 0.0699033L35.5136 0L18.9172 0.00565581L2.3208 0.0113752L2.02502 0.0928443Z" fill="#F0F0F1"/>
  <path fill-rule="evenodd" clip-rule="evenodd" d="M2.13586 0.0711707L1.88704 0.129508L1.48636 0.326826L1.08569 0.524144L0.7631 0.865272L0.440514 1.2064L0.237063 1.63586L0.0336755 2.06538L0.0168378 18.8422L0 35.619L0.127522 36.0402L0.255045 36.4616L0.532518 36.8385L0.809992 37.2155L1.12343 37.4456L1.43693 37.6757L1.78366 37.823L2.13045 37.9703H19H35.8695L36.2163 37.823L36.5631 37.6757L36.8766 37.4456L37.19 37.2155L37.4675 36.8385L37.7449 36.4616L37.8725 36.0402L38 35.619L37.9832 18.8389L37.9663 2.05878L37.7275 1.57543L37.4886 1.09208L37.1395 0.773L36.7905 0.453986L36.45 0.292891L36.1095 0.131732L35.8307 0.0674849L35.5518 0.00317383L18.9682 0.00800351L2.38461 0.0128332L2.13586 0.0711707Z" fill="#F0F0F1"/>
  <path fill-rule="evenodd" clip-rule="evenodd" d="M2.13586 0.0711707L1.88704 0.129508L1.48636 0.326826L1.08569 0.524144L0.7631 0.865272L0.440514 1.2064L0.237063 1.63586L0.0336755 2.06538L0.0168378 18.8422L0 35.619L0.127522 36.0402L0.255045 36.4616L0.532518 36.8385L0.809992 37.2155L1.12343 37.4456L1.43693 37.6757L1.78366 37.823L2.13045 37.9703H19H35.8695L36.2163 37.823L36.5631 37.6757L36.8766 37.4456L37.19 37.2155L37.4675 36.8385L37.7449 36.4616L37.8725 36.0402L38 35.619L37.9832 18.8389L37.9663 2.05878L37.7275 1.57543L37.4886 1.09208L37.1395 0.773L36.7905 0.453986L36.45 0.292891L36.1095 0.131732L35.8307 0.0674849L35.5518 0.00317383L18.9682 0.00800351L2.38461 0.0128332L2.13586 0.0711707ZM8.17725 5.31697L8.13487 5.35929L8.09249 5.31697L8.05017 5.27458H8.13487H8.21956L8.17725 5.31697ZM8.88011 5.31296L8.84174 5.35135L8.75837 5.31798L8.67495 5.28462L8.79675 5.2796L8.91849 5.27458L8.88011 5.31296ZM9.25741 5.38052L9.21503 5.42284L9.17265 5.38052L9.13033 5.33813H9.21503H9.29972L9.25741 5.38052ZM6.03809 6.44648V6.4745L5.9647 6.51981L5.89138 6.56519L5.93674 6.49185L5.98205 6.41845H6.01007H6.03809V6.44648ZM11.0259 6.482L11.0651 6.54555H11.0334H11.0016L10.9623 6.482L10.9231 6.41845H10.9548H10.9866L11.0259 6.482ZM11.6719 7.92245L11.6295 7.96478V7.88007V7.79536L11.6719 7.83768L11.7142 7.88007L11.6719 7.92245ZM11.7385 8.69031L11.7121 8.86507V8.51555V8.16604L11.7385 8.34079L11.765 8.51555L11.7385 8.69031ZM5.25415 8.59499L5.22212 8.67442V8.51555V8.35668L5.25415 8.43612L5.28623 8.51555L5.25415 8.59499ZM6.57817 11.121L6.61743 11.1846H6.58567H6.5539L6.51463 11.121L6.47536 11.0575H6.50713H6.5389L6.57817 11.121ZM10.4858 11.0855V11.1135L10.4124 11.1588L10.3391 11.2042L10.3845 11.1309L10.4298 11.0575H10.4578H10.4858V11.0855ZM8.05017 11.7354L8.00779 11.7777L7.96541 11.7354L7.92309 11.693H8.00779H8.09249L8.05017 11.7354ZM9.00325 11.7354L8.96087 11.7777L8.91849 11.7354L8.87617 11.693H8.96087H9.04557L9.00325 11.7354ZM24.8244 13.896L24.782 13.9383L24.7396 13.896L24.6973 13.8536H24.782H24.8667L24.8244 13.896ZM26.667 13.896L26.6246 13.9383L26.5823 13.896L26.5399 13.8536H26.6246H26.7093L26.667 13.896ZM24.4432 13.9596L24.4008 14.0019L24.3584 13.9596L24.3161 13.9172H24.4008H24.4855L24.4432 13.9596ZM27.1753 13.9596L27.133 14.0019L27.0906 13.9596L27.0483 13.9172H27.133H27.2177L27.1753 13.9596ZM8.50041 32.2989L11.28 32.3165L8.48433 32.3155L5.68863 32.3144L5.68831 23.3065L5.68799 14.2985L5.70438 23.2899L5.72084 32.2813L8.50041 32.2989ZM17.5864 32.2989L20.3025 32.3165L17.5704 32.3155L14.8382 32.3144L14.8379 23.3065L14.8376 14.2985L14.854 23.2899L14.8704 32.2813L17.5864 32.2989ZM29.8334 14.9339L29.8726 14.9975H29.8409H29.8091L29.7698 14.9339L29.7305 14.8704H29.7623H29.7941L29.8334 14.9339ZM30.151 15.1881L30.1903 15.2517H30.1585H30.1268L30.0875 15.1881L30.0482 15.1246H30.08H30.1118L30.151 15.1881ZM21.6051 15.2162V15.2442L21.5317 15.2895L21.4584 15.3349L21.5037 15.2615L21.549 15.1881H21.5771H21.6051V15.2162ZM30.7229 15.7601L30.7622 15.8236H30.7304H30.6986L30.6594 15.7601L30.6201 15.6965H30.6519H30.6836L30.7229 15.7601ZM20.9062 15.9152V15.9432L20.8328 15.9885L20.7594 16.0339L20.8048 15.9606L20.8501 15.8872H20.8781H20.9062V15.9152ZM30.9771 16.0778L31.0163 16.1414H30.9846H30.9528L30.9135 16.0778L30.8742 16.0143H30.906H30.9378L30.9771 16.0778ZM23.9728 18.728L23.8307 18.7554L23.6551 18.7289L23.4795 18.7024L23.7972 18.7015L24.1149 18.7006L23.9728 18.728ZM23.0453 18.7892L23.0029 18.8316L22.9606 18.7892L22.9182 18.7469H23.0029H23.0876L23.0453 18.7892ZM24.5702 18.7892L24.5279 18.8316L24.4855 18.7892L24.4432 18.7469H24.5279H24.6126L24.5702 18.7892ZM32.0678 18.9163L32.0254 18.9587V18.8739V18.7892L32.0678 18.8316L32.1101 18.8739L32.0678 18.9163ZM25.8344 19.4618L26.021 19.6683L25.8145 19.4817L25.608 19.295V19.2751V19.2552H25.6279H25.6478L25.8344 19.4618ZM32.1949 19.7425L32.1525 19.7848V19.7001V19.6154L32.1949 19.6577L32.2372 19.7001L32.1949 19.7425ZM32.2595 20.284L32.2261 20.3673L32.2211 20.2455L32.2161 20.1238L32.2544 20.1621L32.2928 20.2005L32.2595 20.284ZM32.3245 21.3039L32.2969 21.4477L32.2956 21.1935L32.2943 20.9393L32.3232 21.0497L32.3522 21.1602L32.3245 21.3039ZM26.667 21.5218L26.6246 21.5641V21.4794V21.3947L26.667 21.437L26.7093 21.4794L26.667 21.5218ZM20.5038 21.776L20.4614 21.8183V21.7336V21.6489L20.5038 21.6912L20.5461 21.7336L20.5038 21.776ZM26.732 22.2261L26.7029 22.3373V22.1149V21.8925L26.732 22.0037L26.7611 22.1149L26.732 22.2261ZM20.4412 22.3175L20.4079 22.4009L20.4029 22.2791L20.3978 22.1573L20.4362 22.1957L20.4746 22.2341L20.4412 22.3175ZM30.9612 32.3303L29.5474 32.3486L28.1337 32.3303L26.72 32.3119H29.5474H32.3749L30.9612 32.3303Z" fill="#F0F0F1"/>
  <path fill-rule="evenodd" clip-rule="evenodd" d="M2.13586 0.0711707L1.88704 0.129508L1.48636 0.326826L1.08569 0.524144L0.7631 0.865272L0.440514 1.2064L0.237063 1.63586L0.0336755 2.06538L0.0168378 18.8422L0 35.619L0.127522 36.0402L0.255045 36.4616L0.532518 36.8385L0.809992 37.2155L1.12343 37.4456L1.43693 37.6757L1.78366 37.823L2.13045 37.9703H19H35.8695L36.2163 37.823L36.5631 37.6757L36.8766 37.4456L37.19 37.2155L37.4675 36.8385L37.7449 36.4616L37.8725 36.0402L38 35.619L37.9832 18.8389L37.9663 2.05878L37.7275 1.57543L37.4886 1.09208L37.1395 0.773L36.7905 0.453986L36.45 0.292891L36.1095 0.131732L35.8307 0.0674849L35.5518 0.00317383L18.9682 0.00800351L2.38461 0.0128332L2.13586 0.0711707ZM8.15075 5.31665L8.07133 5.34874L7.99191 5.31665L7.91248 5.28462H8.07133H8.23018L8.15075 5.31665ZM8.97796 5.31627L8.89975 5.34792L8.78735 5.31862L8.67495 5.28932L8.86556 5.28697L9.05618 5.28462L8.97796 5.31627ZM9.25741 5.38052L9.21503 5.42284L9.17265 5.38052L9.13033 5.33813H9.21503H9.29972L9.25741 5.38052ZM7.54186 5.44406L7.49948 5.48639L7.4571 5.44406L7.41478 5.40168H7.49948H7.58418L7.54186 5.44406ZM9.51156 5.44406L9.46918 5.48639L9.4268 5.44406L9.38448 5.40168H9.46918H9.55388L9.51156 5.44406ZM7.35124 5.50761L7.30886 5.54994L7.26648 5.50761L7.22417 5.46523H7.30886H7.39356L7.35124 5.50761ZM9.70218 5.50761L9.6598 5.54994L9.61742 5.50761L9.5751 5.46523H9.6598H9.74449L9.70218 5.50761ZM6.80055 5.74744V5.77547L6.72717 5.82078L6.65384 5.86615L6.69921 5.79282L6.74451 5.71942H6.77253H6.80055V5.74744ZM6.5464 5.93809V5.96611L6.47301 6.01143L6.39969 6.0568L6.44505 5.98346L6.49036 5.91007H6.51838H6.5464V5.93809ZM10.5176 5.97361L10.5568 6.03716H10.5251H10.4933L10.454 5.97361L10.4148 5.91007H10.4465H10.4783L10.5176 5.97361ZM10.8353 6.22781L10.8745 6.29136H10.8428H10.811L10.7717 6.22781L10.7325 6.16426H10.7642H10.796L10.8353 6.22781ZM6.03809 6.44247V6.46643L5.9269 6.55368L5.8157 6.64087L5.90288 6.52966L5.99012 6.41845H6.01407H6.03809V6.44247ZM11.0658 6.52966L11.153 6.64087L11.0418 6.55368L10.9306 6.46643V6.44247V6.41845H10.9546H10.9785L11.0658 6.52966ZM5.72039 6.89132V6.91934L5.64701 6.96465L5.57368 7.01003L5.61905 6.93669L5.66435 6.86329H5.69237H5.72039V6.89132ZM5.57216 7.15987L5.52978 7.2022V7.11749V7.03278L5.57216 7.0751L5.61448 7.11749L5.57216 7.15987ZM11.4813 7.28697L11.4389 7.32929V7.24458V7.15987L11.4813 7.2022L11.5236 7.24458L11.4813 7.28697ZM5.38154 7.66826L5.33916 7.71058V7.62587V7.54116L5.38154 7.58349L5.42386 7.62587L5.38154 7.66826ZM11.6729 7.89201L11.6395 7.97539L11.6345 7.85357L11.6295 7.73181L11.6679 7.77019L11.7063 7.80858L11.6729 7.89201ZM5.318 7.92245L5.27562 7.96478V7.88007V7.79536L5.318 7.83768L5.36032 7.88007L5.318 7.92245ZM11.739 8.72208L11.7134 8.92862V8.51555V8.10249L11.739 8.30902L11.7646 8.51555L11.739 8.72208ZM5.25758 8.69031L5.23115 8.86507V8.51555V8.16604L5.25758 8.34079L5.28407 8.51555L5.25758 8.69031ZM5.31902 9.22653L5.28566 9.30991L5.28064 9.18808L5.27562 9.06633L5.314 9.10471L5.35238 9.14309L5.31902 9.22653ZM11.6719 9.25697L11.6295 9.29929V9.21459V9.12988L11.6719 9.1722L11.7142 9.21459L11.6719 9.25697ZM11.6083 9.51117L11.566 9.55349V9.46878V9.38407L11.6083 9.42639L11.6507 9.46878L11.6083 9.51117ZM11.5448 9.70181L11.5024 9.74413V9.65942V9.57471L11.5448 9.61704L11.5871 9.65942L11.5448 9.70181ZM5.75216 10.2314L5.79143 10.2949H5.75966H5.72789L5.68863 10.2314L5.64936 10.1678H5.68113H5.7129L5.75216 10.2314ZM11.3118 10.1958V10.2239L11.2384 10.2692L11.1651 10.3145L11.2105 10.2412L11.2558 10.1678H11.2838H11.3118V10.1958ZM5.87924 10.422L5.91851 10.4856H5.88674H5.85497L5.8157 10.422L5.77644 10.3585H5.80821H5.83997L5.87924 10.422ZM11.1847 10.3865V10.4145L11.1113 10.4598L11.038 10.5052L11.0834 10.4319L11.1287 10.3585H11.1567H11.1847V10.3865ZM10.9941 10.6325V10.6524L10.7876 10.8391L10.5811 11.0257L10.7677 10.8192L10.9543 10.6127H10.9742H10.9941V10.6325ZM6.2287 10.8351L6.37796 10.9939H6.34619H6.31442L6.16517 10.8351L6.01591 10.6762H6.04768H6.07945L6.2287 10.8351ZM6.61807 11.1687L6.70525 11.2799L6.59405 11.1927L6.48286 11.1055V11.0815V11.0575H6.50688H6.53083L6.61807 11.1687ZM10.4858 11.0815V11.1055L10.3746 11.1927L10.2634 11.2799L10.3506 11.1687L10.4378 11.0575H10.4618H10.4858V11.0815ZM6.9594 11.3752L6.99867 11.4388H6.9669H6.93513L6.89586 11.3752L6.8566 11.3117H6.88836H6.92013L6.9594 11.3752ZM7.16063 11.4812L7.11825 11.5235L7.07587 11.4812L7.03355 11.4388H7.11825H7.20294L7.16063 11.4812ZM7.47832 11.6083L7.43594 11.6506L7.39356 11.6083L7.35124 11.5659H7.43594H7.52064L7.47832 11.6083ZM9.5751 11.6083L9.53272 11.6506L9.49034 11.6083L9.44802 11.5659H9.53272H9.61742L9.5751 11.6083ZM7.66894 11.6718L7.62656 11.7141L7.58418 11.6718L7.54186 11.6294H7.62656H7.71125L7.66894 11.6718ZM8.02367 11.735L7.94425 11.7671L7.86483 11.735L7.7854 11.703H7.94425H8.1031L8.02367 11.735ZM9.07073 11.7314L9.03235 11.7697L8.94899 11.7364L8.86556 11.703L8.98737 11.698L9.10911 11.693L9.07073 11.7314ZM8.59673 11.7982L8.51851 11.8299L8.40611 11.8006L8.29371 11.7713L8.48433 11.7689L8.67495 11.7666L8.59673 11.7982ZM25.7522 13.8318L25.674 13.8634L25.5616 13.8341L25.4492 13.8048L25.6398 13.8025L25.8304 13.8001L25.7522 13.8318ZM24.7979 13.8957L24.7185 13.9278L24.6391 13.8957L24.5596 13.8637H24.7185H24.8773L24.7979 13.8957ZM26.8324 13.8953L26.7541 13.927L26.6417 13.8977L26.5293 13.8684L26.72 13.866L26.9106 13.8637L26.8324 13.8953ZM24.4471 13.9556L24.4087 13.9939L24.3254 13.9606L24.2419 13.9272L24.3637 13.9222L24.4855 13.9172L24.4471 13.9556ZM27.2759 13.9592L27.1965 13.9913L27.1171 13.9592L27.0376 13.9272H27.1965H27.3553L27.2759 13.9592ZM24.0619 14.0231L24.0196 14.0654L23.9772 14.0231L23.9349 13.9807H24.0196H24.1043L24.0619 14.0231ZM27.6201 14.0231L27.5777 14.0654L27.5353 14.0231L27.493 13.9807H27.5777H27.6624L27.6201 14.0231ZM27.8743 14.0867L27.8319 14.129L27.7895 14.0867L27.7472 14.0443H27.8319H27.9166L27.8743 14.0867ZM23.6172 14.1502L23.5748 14.1925L23.5324 14.1502L23.4901 14.1078H23.5748H23.6595L23.6172 14.1502ZM28.1284 14.1502L28.086 14.1925L28.0437 14.1502L28.0013 14.1078H28.086H28.1707L28.1284 14.1502ZM23.4265 14.2138L23.3842 14.2561L23.3418 14.2138L23.2995 14.1714H23.3842H23.4689L23.4265 14.2138ZM8.50022 14.2826L5.72039 14.2998V23.2906V32.2813L8.50022 32.2986L11.28 32.3158L8.46845 32.331L5.65686 32.3462V23.333V14.3196L5.69924 14.2773L5.74155 14.2349L8.51083 14.2501L11.28 14.2653L8.50022 14.2826ZM20.1928 15.4712L20.2102 16.6758L20.2881 16.7254L20.3661 16.7749L20.2549 16.7759L20.1437 16.7768V15.5377V14.2985H17.5068H14.87V23.2899V32.2813L17.6498 32.2986L20.4296 32.3158L17.618 32.331L14.8064 32.3462V23.333V14.3196L14.8495 14.2766L14.8925 14.2335L17.534 14.2501L20.1755 14.2667L20.1928 15.4712ZM28.7003 14.3408L28.6579 14.3832L28.6155 14.3408L28.5732 14.2985H28.6579H28.7426L28.7003 14.3408ZM29.018 14.4679L28.9756 14.5103L28.9332 14.4679L28.8909 14.4256H28.9756H29.0603L29.018 14.4679ZM29.325 14.6162L29.3643 14.6798H29.3325H29.3008L29.2615 14.6162L29.2222 14.5527H29.254H29.2858L29.325 14.6162ZM22.304 14.7078V14.7358L22.2306 14.7811L22.1573 14.8265L22.2027 14.7531L22.248 14.6798H22.276H22.304V14.7078ZM29.8334 14.9339L29.8726 14.9975H29.8409H29.8091L29.7698 14.9339L29.7305 14.8704H29.7623H29.7941L29.8334 14.9339ZM21.9228 14.962V14.99L21.8494 15.0353L21.7761 15.0807L21.8214 15.0073L21.8667 14.9339H21.8948H21.9228V14.962ZM30.0875 15.1246L30.2025 15.2517H30.1707H30.139L30.024 15.1246L29.909 14.9975H29.9407H29.9725L30.0875 15.1246ZM21.6686 15.1486V15.1726L21.5574 15.2598L21.4462 15.347L21.5334 15.2358L21.6207 15.1246H21.6446H21.6686V15.1486ZM30.7864 15.8236L30.9014 15.9507H30.8697H30.8379L30.7229 15.8236L30.6079 15.6965H30.6397H30.6714L30.7864 15.8236ZM20.9062 15.9112V15.9352L20.795 16.0224L20.6838 16.1096L20.7709 15.9984L20.8582 15.8872H20.8821H20.9062V15.9112ZM30.9771 16.0778L31.0163 16.1414H30.9846H30.9528L30.9135 16.0778L30.8742 16.0143H30.906H30.9378L30.9771 16.0778ZM20.652 16.2329V16.261L20.5786 16.3063L20.5053 16.3516L20.5507 16.2783L20.596 16.2049H20.624H20.652V16.2329ZM20.5249 16.4236V16.4516L20.4515 16.4969L20.3782 16.5423L20.4236 16.469L20.4689 16.3956H20.4969H20.5249V16.4236ZM31.6866 17.5183L31.6442 17.5606V17.4759V17.3912L31.6866 17.4335L31.7289 17.4759L31.6866 17.5183ZM31.7501 17.7089L31.7077 17.7512V17.6665V17.5818L31.7501 17.6241L31.7924 17.6665L31.7501 17.7089ZM31.8137 17.8996L31.7713 17.9419V17.8572V17.7725L31.8137 17.8148L31.856 17.8572L31.8137 17.8996ZM31.8772 18.0902L31.8348 18.1325V18.0478V17.9631L31.8772 18.0054L31.9195 18.0478L31.8772 18.0902ZM31.9407 18.3444L31.8984 18.3867V18.302V18.2173L31.9407 18.2596L31.9831 18.302L31.9407 18.3444ZM32.0043 18.5986L31.9619 18.6409V18.5562V18.4715L32.0043 18.5138L32.0466 18.5562L32.0043 18.5986ZM23.9728 18.728L23.8307 18.7554L23.6551 18.7289L23.4795 18.7024L23.7972 18.7015L24.1149 18.7006L23.9728 18.728ZM23.1128 18.7852L23.0744 18.8236L22.9911 18.7903L22.9076 18.7569L23.0294 18.7519L23.1512 18.7469L23.1128 18.7852ZM24.5742 18.7852L24.5358 18.8236L24.4524 18.7903L24.369 18.7569L24.4908 18.7519L24.6126 18.7469L24.5742 18.7852ZM22.7912 18.8528L22.7488 18.8951L22.7064 18.8528L22.6641 18.8104H22.7488H22.8335L22.7912 18.8528ZM24.8244 18.8528L24.782 18.8951L24.7396 18.8528L24.6973 18.8104H24.782H24.8667L24.8244 18.8528ZM32.0678 18.9163L32.0254 18.9587V18.8739V18.7892L32.0678 18.8316L32.1101 18.8739L32.0678 18.9163ZM25.015 18.9163L24.9726 18.9587L24.9303 18.9163L24.8879 18.8739H24.9726H25.0573L25.015 18.9163ZM25.4492 19.1281L25.4884 19.1917H25.4567H25.4249L25.3856 19.1281L25.3464 19.0646H25.3781H25.4099L25.4492 19.1281ZM32.1314 19.2341L32.089 19.2764V19.1917V19.107L32.1314 19.1493L32.1737 19.1917L32.1314 19.2341ZM21.7957 19.2833V19.3113L21.7223 19.3566L21.649 19.402L21.6944 19.3286L21.7397 19.2552H21.7677H21.7957V19.2833ZM25.8344 19.4618L26.021 19.6683L25.8145 19.4817L25.608 19.295V19.2751V19.2552H25.6279H25.6478L25.8344 19.4618ZM32.1946 19.716L32.1626 19.7954V19.6365V19.4777L32.1946 19.5571L32.2267 19.6365L32.1946 19.716ZM26.0846 19.7636L26.1238 19.8272H26.0921H26.0603L26.021 19.7636L25.9818 19.7001H26.0135H26.0453L26.0846 19.7636ZM21.2874 19.7917V19.8197L21.214 19.865L21.1407 19.9104L21.186 19.837L21.2313 19.7636H21.2594H21.2874V19.7917ZM26.2116 19.9543L26.2509 20.0178H26.2191H26.1874L26.1481 19.9543L26.1088 19.8907H26.1406H26.1724L26.2116 19.9543ZM32.2601 20.2549L32.2308 20.3673L32.2284 20.1767L32.2261 19.986L32.2577 20.0643L32.2894 20.1425L32.2601 20.2549ZM26.5399 20.8863L26.4976 20.9287V20.844V20.7592L26.5399 20.8016L26.5823 20.844L26.5399 20.8863ZM32.3251 21.2729L32.2987 21.4477V21.0981V20.7486L32.3251 20.9234L32.3516 21.0981L32.3251 21.2729ZM20.6944 20.9499L20.652 20.9922V20.9075V20.8228L20.6944 20.8651L20.7367 20.9075L20.6944 20.9499ZM20.6308 21.2041L20.5885 21.2464V21.1617V21.077L20.6308 21.1193L20.6732 21.1617L20.6308 21.2041ZM26.6035 21.2041L26.5611 21.2464V21.1617V21.077L26.6035 21.1193L26.6458 21.1617L26.6035 21.2041ZM20.5673 21.4583L20.5249 21.5006V21.4159V21.3312L20.5673 21.3735L20.6096 21.4159L20.5673 21.4583ZM26.6667 21.6224L26.6347 21.7019V21.543V21.3841L26.6667 21.4635L26.6988 21.543L26.6667 21.6224ZM20.5048 21.8091L20.4714 21.8925L20.4664 21.7707L20.4614 21.6489L20.4998 21.6873L20.5381 21.7257L20.5048 21.8091ZM26.7338 22.3523L26.7072 22.528L26.7064 22.2102L26.7055 21.8925L26.7329 22.0346L26.7603 22.1768L26.7338 22.3523ZM20.4428 22.5113L20.4151 22.6551L20.4139 22.4009L20.4126 22.1467L20.4415 22.2571L20.4704 22.3676L20.4428 22.5113ZM30.9612 32.3303L29.5474 32.3486L28.1337 32.3303L26.72 32.3119H29.5474H32.3749L30.9612 32.3303Z" fill="#F0F0F1"/>
  <path fill-rule="evenodd" clip-rule="evenodd" d="M2.13586 0.0711707L1.88704 0.129508L1.48636 0.326826L1.08569 0.524144L0.7631 0.865272L0.440514 1.2064L0.237063 1.63586L0.0336755 2.06538L0.0168378 18.8422L0 35.619L0.127522 36.0402L0.255045 36.4616L0.532518 36.8385L0.809992 37.2155L1.12343 37.4456L1.43693 37.6757L1.78366 37.823L2.13045 37.9703H19H35.8695L36.2163 37.823L36.5631 37.6757L36.8766 37.4456L37.19 37.2155L37.4675 36.8385L37.7449 36.4616L37.8725 36.0402L38 35.619L37.9832 18.8389L37.9663 2.05878L37.7275 1.57543L37.4886 1.09208L37.1395 0.773L36.7905 0.453986L36.45 0.292891L36.1095 0.131732L35.8307 0.0674849L35.5518 0.00317383L18.9682 0.00800351L2.38461 0.0128332L2.13586 0.0711707ZM8.15196 5.31627L8.07374 5.34792L7.96134 5.31862L7.84894 5.28932L8.03956 5.28697L8.23018 5.28462L8.15196 5.31627ZM9.00852 5.31837L8.89733 5.34747L8.78614 5.31837L8.67495 5.28932H8.89733H9.11972L9.00852 5.31837ZM7.56302 5.43345L7.34063 5.51911L7.27709 5.5188L7.21356 5.51848L7.40417 5.43116L7.59479 5.34385L7.6901 5.34582L7.7854 5.34779L7.56302 5.43345ZM9.52649 5.40905L9.72982 5.47991L9.70815 5.50158L9.68648 5.52325L9.4031 5.43491L9.11972 5.34664L9.22144 5.34239L9.32317 5.33813L9.52649 5.40905ZM7.17651 5.55197L7.15002 5.5751L6.99117 5.65079L6.83232 5.72641L6.95565 5.62759L7.07898 5.52877H7.14099H7.20294L7.17651 5.55197ZM10.013 5.62759L10.1363 5.72641L9.97749 5.65079L9.81864 5.5751L9.79215 5.55197L9.76572 5.52877H9.82767H9.88968L10.013 5.62759ZM6.80055 5.73925V5.75907L6.59405 5.90276L6.38755 6.04644L6.56584 5.88293L6.74413 5.71942H6.77234H6.80055V5.73925ZM10.2634 5.78297L10.3027 5.84652H10.2709H10.2391L10.1999 5.78297L10.1606 5.71942H10.1924H10.2241L10.2634 5.78297ZM10.4939 5.95773L10.5811 6.06894L10.4699 5.98175L10.3587 5.8945V5.87054V5.84652H10.3827H10.4067L10.4939 5.95773ZM6.09546 6.3549L5.82758 6.67265H5.79588H5.76424L5.88344 6.52966L6.00263 6.38668L6.15932 6.21192L6.31601 6.03716H6.33971H6.36334L6.09546 6.3549ZM10.8035 6.19603L10.9527 6.3549H10.921H10.8892L10.74 6.19603L10.5907 6.03716H10.6225H10.6542L10.8035 6.19603ZM11.0894 6.54555L11.2044 6.67265H11.1727H11.1409L11.0259 6.54555L10.9109 6.41845H10.9426H10.9744L11.0894 6.54555ZM5.72039 6.86329L5.65241 6.99039H5.62064H5.58887L5.65686 6.86329L5.72484 6.7362H5.75661H5.78838L5.72039 6.86329ZM11.28 6.79974L11.3193 6.86329H11.2875H11.2558L11.2165 6.79974L11.1772 6.7362H11.209H11.2408L11.28 6.79974ZM5.50551 7.28665L5.40778 7.467L5.40524 7.42233L5.4027 7.37765L5.47653 7.21554L5.55043 7.05343L5.57686 7.0798L5.60329 7.10624L5.50551 7.28665ZM11.564 7.40345V7.467L11.5024 7.37168L11.4409 7.27636V7.21281V7.14926L11.5024 7.24458L11.564 7.33991V7.40345ZM5.38256 7.63782L5.3492 7.7212L5.34418 7.59937L5.33916 7.47761L5.37754 7.516L5.41592 7.55438L5.38256 7.63782ZM11.6083 7.60471L11.566 7.64703V7.56233V7.47761L11.6083 7.51994L11.6507 7.56233L11.6083 7.60471ZM11.6716 7.89595L11.6395 7.97539V7.81652V7.65765L11.6716 7.73708L11.7036 7.81652L11.6716 7.89595ZM5.31902 7.89201L5.28566 7.97539L5.28064 7.85357L5.27562 7.73181L5.314 7.77019L5.35238 7.80858L5.31902 7.89201ZM11.7395 8.85109L11.7152 9.11926L11.7156 8.54733L11.7159 7.97539L11.7398 8.27915L11.7637 8.58291L11.7395 8.85109ZM5.25834 8.75386L5.23343 8.99217V8.51555V8.03894L5.25834 8.27725L5.28331 8.51555L5.25834 8.75386ZM5.31769 9.29402L5.28566 9.37346V9.21459V9.05571L5.31769 9.13515L5.34977 9.21459L5.31769 9.29402ZM11.6729 9.29008L11.6395 9.37346L11.6345 9.25163L11.6295 9.12988L11.6679 9.16826L11.7063 9.20664L11.6729 9.29008ZM5.38154 9.51117L5.33916 9.55349V9.46878V9.38407L5.38154 9.42639L5.42386 9.46878L5.38154 9.51117ZM11.6083 9.51117L11.566 9.55349V9.46878V9.38407L11.6083 9.42639L11.6507 9.46878L11.6083 9.51117ZM5.44508 9.70181L5.4027 9.74413V9.65942V9.57471L5.44508 9.61704L5.4874 9.65942L5.44508 9.70181ZM11.5448 9.70181L11.5024 9.74413V9.65942V9.57471L11.5448 9.61704L11.5871 9.65942L11.5448 9.70181ZM11.3832 10.0577L11.3043 10.136L11.3476 10.0221L11.391 9.90815L11.4266 9.94374L11.4622 9.97926L11.3832 10.0577ZM5.815 10.3345L5.92416 10.5012L5.8544 10.458L5.78463 10.415L5.71849 10.2913L5.65241 10.1678H5.67909H5.70578L5.815 10.3345ZM11.2502 10.2913L11.184 10.415L11.1143 10.458L11.0445 10.5012L11.1537 10.3345L11.2629 10.1678H11.2896H11.3163L11.2502 10.2913ZM6.64171 11.2054L6.70525 11.2687L6.51463 11.1369L6.32401 11.005L6.10163 10.763L5.87924 10.5211L6.2287 10.8316L6.57817 11.1421L6.64171 11.2054ZM10.8636 10.7771L10.6446 11.005L10.454 11.1374L10.2634 11.2699L10.6446 10.9123L11.0259 10.5548L11.0542 10.552L11.0826 10.5491L10.8636 10.7771ZM6.99117 11.4115V11.4432L6.86409 11.3752L6.73701 11.3072V11.2755V11.2437L6.86409 11.3117L6.99117 11.3797V11.4115ZM10.2316 11.2786V11.3091L9.98003 11.4375L9.72842 11.5659L9.67822 11.563L9.62803 11.5602L9.91395 11.407L10.1999 11.2539L10.2158 11.251L10.2316 11.2481V11.2786ZM7.40417 11.563L7.72187 11.687L7.62656 11.6883L7.53125 11.6897L7.27709 11.5694L7.02294 11.4491L7.05471 11.444L7.08648 11.4389L7.40417 11.563ZM9.53272 11.6294L9.43741 11.691L9.3421 11.6875L9.2468 11.684L9.37387 11.6294L9.50095 11.5748L9.56449 11.5713L9.62803 11.5678L9.53272 11.6294ZM8.02488 11.7347L7.94667 11.7663L7.83427 11.737L7.72187 11.7077L7.91248 11.7054L8.1031 11.703L8.02488 11.7347ZM9.10383 11.735L9.02441 11.7671L8.94499 11.735L8.86556 11.703H9.02441H9.18326L9.10383 11.735ZM8.65995 11.8013L8.51781 11.8286L8.34226 11.8022L8.16664 11.7756L8.48433 11.7747L8.80202 11.7738L8.65995 11.8013ZM26.0391 13.8367L25.7394 13.8604L25.4037 13.837L25.0679 13.8136L25.7033 13.8133L26.3387 13.813L26.0391 13.8367ZM24.7991 13.8953L24.7209 13.927L24.6085 13.8977L24.4961 13.8684L24.6867 13.866L24.8773 13.8637L24.7991 13.8953ZM26.8629 13.8974L26.7517 13.9265L26.6405 13.8974L26.5293 13.8684H26.7517H26.9741L26.8629 13.8974ZM24.4167 13.9592L24.3373 13.9913L24.2578 13.9592L24.1784 13.9272H24.3373H24.4961L24.4167 13.9592ZM27.3407 13.9589L27.2624 13.9905L27.15 13.9612L27.0376 13.9319L27.2283 13.9296L27.4189 13.9272L27.3407 13.9589ZM24.0659 14.0191L24.0275 14.0575L23.9441 14.0241L23.8607 13.9908L23.9825 13.9857L24.1043 13.9807L24.0659 14.0191ZM27.6876 14.0191L27.6492 14.0575L27.5658 14.0241L27.4824 13.9908L27.6042 13.9857L27.726 13.9807L27.6876 14.0191ZM23.8078 14.0867L23.7654 14.129L23.723 14.0867L23.6807 14.0443H23.7654H23.8501L23.8078 14.0867ZM27.9417 14.0827L27.9034 14.121L27.82 14.0877L27.7366 14.0543L27.8584 14.0493L27.9801 14.0443L27.9417 14.0827ZM23.543 14.1714L23.4159 14.226L23.3524 14.2294L23.2889 14.2329L23.3842 14.1714L23.4795 14.1098L23.5748 14.1133L23.6701 14.1168L23.543 14.1714ZM28.1959 14.1462L28.1575 14.1846L28.0742 14.1512L27.9907 14.1179L28.1125 14.1128L28.2343 14.1078L28.1959 14.1462ZM28.3826 14.2138L28.3402 14.2561L28.2978 14.2138L28.2555 14.1714H28.3402H28.4249L28.3826 14.2138ZM11.28 23.2906V32.3144L8.46845 32.331L5.65686 32.3476V23.2906V14.2336L8.46845 14.2502L11.28 14.2667V23.2906ZM20.1928 15.4712L20.2102 16.6758L20.2881 16.7254L20.3661 16.7749L20.2549 16.7759L20.1437 16.7768V15.5377V14.2985H17.5068H14.87V23.2899V32.2813L17.6498 32.2986L20.4296 32.3158L17.618 32.331L14.8064 32.3462V23.2899V14.2335L17.4909 14.2501L20.1755 14.2667L20.1928 15.4712ZM23.2359 14.2773L23.1936 14.3196L23.1512 14.2773L23.1089 14.2349H23.1936H23.2783L23.2359 14.2773ZM28.7863 14.3382L29.0444 14.4414L29.0192 14.4666L28.9941 14.4918L28.7148 14.3679L28.4355 14.2439L28.4819 14.2394L28.5283 14.2349L28.7863 14.3382ZM5.72039 23.2906V32.2827H8.48433H11.2483V23.2906V14.2985H8.48433H5.72039V23.2906ZM23.0612 14.3196L23.0347 14.3407L22.5264 14.6104L22.0181 14.8801L22.0851 14.8114L22.152 14.7428L22.5616 14.5221L22.9712 14.3013L23.0294 14.2999L23.0876 14.2985L23.0612 14.3196ZM29.611 14.7783V14.8101L29.4204 14.7115L29.2297 14.613V14.5812V14.5494L29.4204 14.648L29.611 14.7465V14.7783ZM30.4393 15.44L30.7911 15.7918L30.9372 16.0143L31.0833 16.2367L30.8734 15.9825L30.6636 15.7283L30.4073 15.472L30.151 15.2157L29.8969 15.0058L29.6427 14.7959L29.8651 14.942L30.0875 15.0882L30.4393 15.44ZM21.9863 14.8916V14.9127L21.7163 15.1186L21.4462 15.3245L21.6951 15.0974L21.9439 14.8704H21.9652H21.9863V14.8916ZM21.4145 15.3341V15.353L21.1444 15.6042L20.8744 15.8554L21.1256 15.5853L21.3767 15.3152H21.3956H21.4145V15.3341ZM20.6763 16.189L20.4473 16.4909L20.41 16.5227L20.3728 16.5544L20.489 16.3638L20.6053 16.1731L20.735 16.0302L20.8648 15.8872H20.8851H20.9053L20.6763 16.189ZM31.1994 16.3956L31.2674 16.5227H31.2357H31.2039L31.1359 16.3956L31.0679 16.2685H31.0997H31.1315L31.1994 16.3956ZM31.4413 16.8738L31.4057 16.9094L31.3624 16.7955L31.319 16.6815L31.3979 16.7599L31.4769 16.8383L31.4413 16.8738ZM31.6422 17.317V17.3806L31.5807 17.2852L31.5191 17.1899V17.1264V17.0628L31.5807 17.1581L31.6422 17.2535V17.317ZM31.8271 17.8572L31.8252 17.9525L31.7395 17.7301L31.6539 17.5077L31.6542 17.4441L31.6545 17.3806L31.7418 17.5712L31.8291 17.7619L31.8271 17.8572ZM31.8772 18.0902L31.8348 18.1325V18.0478V17.9631L31.8772 18.0054L31.9195 18.0478L31.8772 18.0902ZM31.9418 18.314L31.9084 18.3973L31.9034 18.2755L31.8984 18.1538L31.9367 18.1921L31.9751 18.2305L31.9418 18.314ZM32.0053 18.5682L31.9719 18.6515L31.9669 18.5297L31.9619 18.4079L32.0003 18.4463L32.0387 18.4847L32.0053 18.5682ZM23.9728 18.728L23.8307 18.7554L23.6551 18.7289L23.4795 18.7024L23.7972 18.7015L24.1149 18.7006L23.9728 18.728ZM32.0675 18.8898L32.0355 18.9693V18.8104V18.6515L32.0675 18.731L32.0996 18.8104L32.0675 18.8898ZM23.2412 18.7906L23.13 18.8197L23.0188 18.7906L22.9076 18.7616H23.13H23.3524L23.2412 18.7906ZM24.545 18.7885L24.4667 18.8202L24.3543 18.7909L24.2419 18.7616L24.4326 18.7592L24.6232 18.7569L24.545 18.7885ZM22.8586 18.8488L22.8203 18.8872L22.7369 18.8538L22.6535 18.8204L22.7753 18.8154L22.897 18.8104L22.8586 18.8488ZM25.1396 18.9634L25.4654 19.1151L25.5171 19.201L25.5689 19.287L25.463 19.2012L25.3571 19.1152L24.9902 18.9643L24.6232 18.8134L24.7185 18.8126L24.8138 18.8117L25.1396 18.9634ZM22.6005 18.9163L22.5582 18.9587L22.5158 18.9163L22.4735 18.8739H22.5582H22.6429L22.6005 18.9163ZM22.3675 19.001L22.2722 19.0626H22.2087H22.1452L22.2405 19.001L22.3358 18.9395H22.3993H22.4629L22.3675 19.001ZM22.1134 19.0941V19.1237L21.9704 19.193L21.8275 19.2622L21.9508 19.1634L22.0741 19.0646H22.0938H22.1134V19.0941ZM32.1324 19.2036L32.099 19.287L32.094 19.1652L32.089 19.0434L32.1274 19.0818L32.1657 19.1202L32.1324 19.2036ZM21.7957 19.2772V19.2991L21.6527 19.4201L21.5098 19.5412L21.6308 19.3982L21.7519 19.2552H21.7738H21.7957V19.2772ZM26.0004 19.6524L26.125 19.8272H26.1024H26.0797L25.8317 19.5253L25.5836 19.2235L25.7298 19.3506L25.8759 19.4777L26.0004 19.6524ZM32.1963 19.6842L32.1673 19.7954V19.573V19.3506L32.1963 19.4618L32.2254 19.573L32.1963 19.6842ZM21.4145 19.6585V19.6804L21.2715 19.8014L21.1285 19.9225L21.2496 19.7795L21.3706 19.6365H21.3925H21.4145V19.6585ZM32.2609 20.2244L32.2333 20.3673V20.0814V19.7954L32.2609 19.9384L32.2884 20.0814L32.2609 20.2244ZM26.307 20.1677V20.2296L26.2838 20.2032L26.2606 20.1767L26.185 20.0178L26.1093 19.8589L26.2082 19.9823L26.307 20.1056V20.1677ZM21.0968 20.0814L21.0288 20.2085H20.997H20.9652L21.0332 20.0814L21.1012 19.9543H21.133H21.1648L21.0968 20.0814ZM26.4129 20.505L26.3705 20.5474V20.4627V20.3779L26.4129 20.4203L26.4552 20.4627L26.4129 20.505ZM20.8215 20.6321L20.7791 20.6745V20.5898V20.505L20.8215 20.5474L20.8638 20.5898L20.8215 20.6321ZM32.3259 21.2094L32.3009 21.4477V20.971V20.4944L32.3259 20.7327L32.3508 20.971L32.3259 21.2094ZM26.4764 20.6957L26.434 20.738V20.6533V20.5686L26.4764 20.6109L26.5187 20.6533L26.4764 20.6957ZM20.7209 20.9142L20.6601 21.0664L20.656 20.9921L20.652 20.9179L20.6917 20.8147L20.7312 20.7114L20.7565 20.7367L20.7818 20.762L20.7209 20.9142ZM26.541 20.9194L26.5076 21.0028L26.5026 20.881L26.4976 20.7592L26.5359 20.7976L26.5743 20.836L26.541 20.9194ZM20.6319 21.2372L20.5985 21.3206L20.5935 21.1987L20.5885 21.077L20.6268 21.1154L20.6652 21.1537L20.6319 21.2372ZM26.6032 21.3047L26.5711 21.3841V21.2252V21.0664L26.6032 21.1458L26.6353 21.2252L26.6032 21.3047ZM20.567 21.5589L20.535 21.6383V21.4794V21.3206L20.567 21.4L20.5991 21.4794L20.567 21.5589ZM26.6684 21.7177L26.6394 21.829V21.6065V21.3841L26.6684 21.4953L26.6975 21.6065L26.6684 21.7177ZM20.5052 21.9719L20.4761 22.0831V21.8607V21.6383L20.5052 21.7495L20.5343 21.8607L20.5052 21.9719ZM29.5474 32.2827H32.3424L32.3592 27.31L32.3761 22.3373L32.3755 27.3259L32.3749 32.3144H29.5474H26.72L26.7194 27.1352L26.7188 21.956L26.7356 27.1194L26.7525 32.2827H29.5474ZM20.4433 22.671L20.4169 22.8457V22.4962V22.1467L20.4433 22.3215L20.4698 22.4962L20.4433 22.671Z" fill="#F0F0F1"/>
  <path fill-rule="evenodd" clip-rule="evenodd" d="M2.13586 0.0711707L1.88704 0.129508L1.48636 0.326826L1.08569 0.524144L0.7631 0.865272L0.440514 1.2064L0.237063 1.63586L0.0336755 2.06538L0.0168378 18.8422L0 35.619L0.127522 36.0402L0.255045 36.4616L0.532518 36.8385L0.809992 37.2155L1.12343 37.4456L1.43693 37.6757L1.78366 37.823L2.13045 37.9703H19H35.8695L36.2163 37.823L36.5631 37.6757L36.8766 37.4456L37.19 37.2155L37.4675 36.8385L37.7449 36.4616L37.8725 36.0402L38 35.619L37.9832 18.8389L37.9663 2.05878L37.7275 1.57543L37.4886 1.09208L37.1395 0.773L36.7905 0.453986L36.45 0.292891L36.1095 0.131732L35.8307 0.0674849L35.5518 0.00317383L18.9682 0.00800351L2.38461 0.0128332L2.13586 0.0711707ZM9.15924 5.30242L9.57999 5.39164L9.95602 5.58146L10.332 5.77134L10.6745 6.07898L11.017 6.38668L11.2607 6.76339L11.5043 7.14011L11.6353 7.55775L11.7664 7.97539L11.7706 8.48384L11.7748 8.99229L11.6648 9.37352L11.5547 9.75475L11.3637 10.1149L11.1726 10.4751L10.8401 10.8042L10.5077 11.1334L10.2408 11.3126L9.974 11.4918L9.5786 11.629L9.18326 11.7661L8.67495 11.7996L8.16664 11.8332L7.73642 11.7319L7.30613 11.6306L7.03749 11.4944L6.76878 11.3583L6.46329 11.1163L6.1578 10.8742L5.91578 10.5687L5.67376 10.2631L5.54522 10.0089L5.41674 9.75475L5.31438 9.40955L5.21208 9.06442V8.51009V7.95582L5.36496 7.50386L5.51783 7.0519L5.72058 6.73594L5.92327 6.42004L6.27579 6.09779L6.62836 5.77553L7.01061 5.58254L7.39286 5.38954L7.77975 5.30534L8.16664 5.22114L8.45256 5.2172L8.73849 5.21326L9.15924 5.30242ZM7.94425 5.3359L7.65833 5.38897L7.3013 5.52388L6.94428 5.65879L6.59806 5.9067L6.2519 6.15466L6.01788 6.44025L5.78387 6.7259L5.61664 7.05889L5.4494 7.39189L5.36324 7.71541L5.27715 8.03894L5.27639 8.51809L5.27562 8.99725L5.37303 9.37123L5.47043 9.74521L5.64307 10.0626L5.8157 10.3799L6.08657 10.6813L6.35743 10.9827L6.69019 11.2017L7.02294 11.4207L7.39413 11.5582L7.76539 11.6956L8.22014 11.7331L8.67495 11.7707L9.05618 11.6994L9.43741 11.6282L9.88218 11.4151L10.327 11.2022L10.6401 10.9238L10.9532 10.6455L11.1983 10.2663L11.4433 9.88712L11.5762 9.4494L11.7092 9.01167L11.6781 8.3664L11.6471 7.7212L11.478 7.30534L11.3088 6.88947L10.9956 6.50234L10.6824 6.1152L10.2918 5.85433L9.90125 5.59353L9.50305 5.4705L9.10485 5.34747L8.66751 5.31519L8.23018 5.28291L7.94425 5.3359ZM27.4979 13.9437L27.9581 14.0377L28.4973 14.2236L29.0365 14.4095L29.481 14.6737L29.9255 14.9378L30.3133 15.2968L30.701 15.6558L30.9744 16.0416L31.2478 16.4273L31.4164 16.763L31.5849 17.0987L31.7375 17.5256L31.8901 17.9525L32.0178 18.4609L32.1455 18.9693L32.2567 19.7319L32.3679 20.4944L32.3909 26.4203L32.4139 32.3462H29.5546H26.6954L26.672 26.9287L26.6487 21.5112L26.5105 20.9866L26.3722 20.4618L26.2071 20.1361L26.0421 19.8103L25.7605 19.5092L25.479 19.2081L25.1128 19.0438L24.7467 18.8795L24.2841 18.8077L23.8215 18.7359L23.2773 18.8084L22.7331 18.8807L22.312 19.0485L21.891 19.2162L21.5239 19.5819L21.1567 19.9477L20.9696 20.3481L20.7825 20.7486L20.6413 21.257L20.5 21.7654L20.478 27.0558L20.4559 32.3462H17.6312H14.8064V23.2906V14.2349H17.5055H20.2046L20.2218 15.49L20.239 16.7451L20.4189 16.4389L20.5989 16.1327L21.021 15.6852L21.4431 15.2377L21.8259 14.9648L22.2087 14.6918L22.6535 14.4691L23.0982 14.2464L23.4947 14.1131L23.8912 13.9798L24.3843 13.8862L24.8773 13.7926L25.9575 13.8211L27.0376 13.8497L27.4979 13.9437ZM24.411 13.9526L23.9446 14.0377L23.5214 14.176L23.0982 14.3143L22.5921 14.5748L22.0859 14.8353L21.6313 15.1967L21.1766 15.5581L20.8776 15.9252L20.5786 16.2923L20.4405 16.5341L20.3025 16.7759L20.2231 16.7763L20.1437 16.7768V15.5377V14.2985H17.5068H14.87V23.2906V32.2827H17.6312H20.3924L20.4148 27.024L20.4372 21.7654L20.5504 21.3206L20.6636 20.8757L20.9077 20.3673L21.1517 19.8589L21.3943 19.6102L21.6369 19.3615L21.9228 19.179L22.2087 18.9965L22.6217 18.8654L23.0347 18.7342L23.7336 18.7284L24.4326 18.7226L24.7903 18.8296L25.1482 18.9367L25.4575 19.1489L25.7669 19.3612L26.0023 19.671L26.2379 19.9809L26.3758 20.3497L26.5136 20.7184L26.6121 21.1148L26.7105 21.5112L26.7338 26.8969L26.7571 32.2827H29.5547H32.3524L32.3251 26.3886L32.2977 20.4944L32.1973 19.786L32.0968 19.0776L31.9705 18.5455L31.8442 18.0134L31.6503 17.4823L31.4565 16.9512L31.256 16.594L31.0555 16.2367L30.7432 15.8426L30.4309 15.4484L30.0368 15.1395L29.6427 14.8305L29.3899 14.6852L29.1372 14.5398L28.691 14.3645L28.2449 14.1892L27.8001 14.0864L27.3553 13.9835L26.8583 13.9186L26.3613 13.8536L25.6193 13.8605L24.8773 13.8673L24.411 13.9526ZM11.3118 23.2906V32.3462H8.48433H5.65686V23.2906V14.2349H8.48433H11.3118V23.2906ZM5.72039 23.2906V32.2827H8.48433H11.2483V23.2906V14.2985H8.48433H5.72039V23.2906Z" fill="#F0F0F1"/>
  <path fill-rule="evenodd" clip-rule="evenodd" d="M7.94451 5.33571L7.65858 5.38878L7.30156 5.52369L6.94453 5.6586L6.59831 5.90651L6.25215 6.15447L6.01814 6.44006L5.78413 6.72571L5.61689 7.0587L5.44966 7.3917L5.3635 7.71522L5.2774 8.03875L5.27664 8.5179L5.27588 8.99706L5.37328 9.37104L5.47069 9.74502L5.64332 10.0624L5.81596 10.3797L6.08682 10.6811L6.35769 10.9825L6.69044 11.2015L7.02319 11.4205L7.39439 11.558L7.76564 11.6954L8.22039 11.7329L8.6752 11.7705L9.05643 11.6992L9.43767 11.628L9.88244 11.4149L10.3272 11.202L10.6403 10.9237L10.9534 10.6453L11.1985 10.2661L11.4435 9.88693L11.5764 9.44921L11.7094 9.01148L11.6784 8.36621L11.6474 7.72101L11.4782 7.30514L11.309 6.88928L10.9958 6.50215L10.6826 6.11501L10.2921 5.85414L9.9015 5.59334L9.5033 5.47031L9.10511 5.34728L8.66777 5.315L8.23043 5.28271L7.94451 5.33571ZM24.4112 13.9524L23.9449 14.0375L23.5217 14.1758L23.0985 14.3142L22.5924 14.5746L22.0861 14.8351L21.6315 15.1965L21.1768 15.5579L20.8778 15.925L20.5788 16.2921L20.4408 16.5339L20.3028 16.7757L20.2234 16.7762L20.1439 16.7767V15.5375V14.2983H17.5071H14.8702V23.2904V32.2825H17.6314H20.3926L20.4151 27.0238L20.4375 21.7652L20.5507 21.3204L20.6638 20.8755L20.9079 20.3671L21.152 19.8588L21.3945 19.61L21.6371 19.3613L21.923 19.1788L22.209 18.9963L22.622 18.8652L23.035 18.734L23.7339 18.7282L24.4328 18.7224L24.7906 18.8294L25.1484 18.9365L25.4578 19.1487L25.7671 19.361L26.0026 19.6708L26.2381 19.9807L26.376 20.3495L26.5139 20.7183L26.6123 21.1146L26.7107 21.511L26.7341 26.8967L26.7574 32.2825H29.555H32.3527L32.3253 26.3884L32.298 20.4942L32.1975 19.7858L32.097 19.0774L31.9707 18.5453L31.8444 18.0132L31.6506 17.4821L31.4568 16.951L31.2562 16.5938L31.0557 16.2365L30.7434 15.8424L30.4311 15.4482L30.0371 15.1393L29.643 14.8303L29.3902 14.685L29.1374 14.5396L28.6912 14.3643L28.2451 14.189L27.8004 14.0862L27.3556 13.9833L26.8586 13.9184L26.3615 13.8534L25.6196 13.8603L24.8776 13.8672L24.4112 13.9524ZM5.72065 23.2904V32.2825H8.48459H11.2485V23.2904V14.2983H8.48459H5.72065V23.2904Z" fill="#F0F0F1"/>
  <path fill-rule="evenodd" clip-rule="evenodd" d="M7.94451 5.33571L7.65858 5.38878L7.30156 5.52369L6.94453 5.6586L6.59831 5.90651L6.25215 6.15447L6.01814 6.44006L5.78413 6.72571L5.61689 7.0587L5.44966 7.3917L5.3635 7.71522L5.2774 8.03875L5.27664 8.5179L5.27588 8.99706L5.37328 9.37104L5.47069 9.74502L5.64332 10.0624L5.81596 10.3797L6.08682 10.6811L6.35769 10.9825L6.69044 11.2015L7.02319 11.4205L7.39439 11.558L7.76564 11.6954L8.22039 11.7329L8.6752 11.7705L9.05643 11.6992L9.43767 11.628L9.88244 11.4149L10.3272 11.202L10.6403 10.9237L10.9534 10.6453L11.1985 10.2661L11.4435 9.88693L11.5764 9.44921L11.7094 9.01148L11.6784 8.36621L11.6474 7.72101L11.4782 7.30514L11.309 6.88928L10.9958 6.50215L10.6826 6.11501L10.2921 5.85414L9.9015 5.59334L9.5033 5.47031L9.10511 5.34728L8.66777 5.315L8.23043 5.28271L7.94451 5.33571ZM24.4112 13.9524L23.9449 14.0375L23.5217 14.1758L23.0985 14.3142L22.5924 14.5746L22.0861 14.8351L21.6315 15.1965L21.1768 15.5579L20.8778 15.925L20.5788 16.2921L20.4408 16.5339L20.3028 16.7757L20.2234 16.7762L20.1439 16.7767V15.5375V14.2983H17.5071H14.8702V23.2904V32.2825H17.6314H20.3926L20.4151 27.0238L20.4375 21.7652L20.5507 21.3204L20.6638 20.8755L20.9079 20.3671L21.152 19.8588L21.3945 19.61L21.6371 19.3613L21.923 19.1788L22.209 18.9963L22.622 18.8652L23.035 18.734L23.7339 18.7282L24.4328 18.7224L24.7906 18.8294L25.1484 18.9365L25.4578 19.1487L25.7671 19.361L26.0026 19.6708L26.2381 19.9807L26.376 20.3495L26.5139 20.7183L26.6123 21.1146L26.7107 21.511L26.7341 26.8967L26.7574 32.2825H29.555H32.3527L32.3253 26.3884L32.298 20.4942L32.1975 19.7858L32.097 19.0774L31.9707 18.5453L31.8444 18.0132L31.6506 17.4821L31.4568 16.951L31.2562 16.5938L31.0557 16.2365L30.7434 15.8424L30.4311 15.4482L30.0371 15.1393L29.643 14.8303L29.3902 14.685L29.1374 14.5396L28.6912 14.3643L28.2451 14.189L27.8004 14.0862L27.3556 13.9833L26.8586 13.9184L26.3615 13.8534L25.6196 13.8603L24.8776 13.8672L24.4112 13.9524ZM5.72065 23.2904V32.2825H8.48459H11.2485V23.2904V14.2983H8.48459H5.72065V23.2904Z" fill="#3A435E"/>
</svg>
