<svg viewBox="0 0 34 40" fill="none" xmlns="http://www.w3.org/2000/svg">
  <path d="M32.9617 4.73695L17.3367 0.0494531C17.117 -0.0164844 16.8829 -0.0164844 16.6632 0.0494531L1.0382 4.73695C0.542578 4.88563 0.203125 5.34188 0.203125 5.85938V17.8277C0.203125 28.0275 6.89359 37.0197 16.6633 39.9505C16.883 40.0165 17.1171 40.0165 17.3368 39.9505C27.1064 37.0197 33.7969 28.0275 33.7969 17.8277V5.85938C33.7969 5.34188 33.4574 4.88563 32.9617 4.73695Z" fill="white"/>
  <path d="M28.2742 8.22431L17.3367 4.94368C17.1171 4.87782 16.883 4.87782 16.6634 4.94368L5.72586 8.22431C5.23016 8.37298 4.89062 8.82923 4.89062 9.34681V17.8275C4.89062 25.4712 9.47664 32.1985 16.5741 34.9661C16.8478 35.0728 17.1521 35.0728 17.4258 34.9661C24.5234 32.1985 29.1094 25.4712 29.1094 17.8274V9.34681C29.1094 8.82923 28.7699 8.37298 28.2742 8.22431ZM24.4219 20.2734C24.4219 20.9206 23.8972 21.4453 23.25 21.4453H19.9297V24.7656C19.9297 25.4128 19.405 25.9375 18.7578 25.9375H15.2422C14.595 25.9375 14.0703 25.4128 14.0703 24.7656V21.4453H10.75C10.1028 21.4453 9.57812 20.9206 9.57812 20.2734V16.7578C9.57812 16.1106 10.1028 15.5859 10.75 15.5859H14.0703V12.2656C14.0703 11.6184 14.595 11.0938 15.2422 11.0938H18.7578C19.405 11.0938 19.9297 11.6184 19.9297 12.2656V15.5859H23.25C23.8972 15.5859 24.4219 16.1106 24.4219 16.7578V20.2734Z" fill="#25CFF0"/>
</svg>
