<svg viewBox="0 0 24 24" xmlns="http://www.w3.org/2000/svg">
  <g clip-path="url(#clip0_156_2618)">
  <path d="M6 4.79961C6 4.13689 6.53728 3.59961 7.2 3.59961H22.8C23.4627 3.59961 24 4.13689 24 4.79961C24 5.46233 23.4627 5.99961 22.8 5.99961H7.2C6.53728 5.99961 6 5.46228 6 4.79961ZM22.8 10.7996H1.2C0.537281 10.7996 0 11.3369 0 11.9996C0 12.6623 0.537281 13.1996 1.2 13.1996H22.8C23.4627 13.1996 24 12.6623 24 11.9996C24 11.3369 23.4627 10.7996 22.8 10.7996ZM22.8 17.9996H12C11.3373 17.9996 10.8 18.5369 10.8 19.1996C10.8 19.8623 11.3373 20.3996 12 20.3996H22.8C23.4627 20.3996 24 19.8623 24 19.1996C24 18.5369 23.4627 17.9996 22.8 17.9996Z" fill="currentColor"/>
  </g>
  <defs>
  <clipPath id="clip0_156_2618">
  <rect width="24" height="24" fill="currentColor"/>
  </clipPath>
  </defs>
</svg>
