<svg viewBox="0 0 40 40" fill="none" xmlns="http://www.w3.org/2000/svg">
  <path d="M39.8552 21.7187C39.5551 18.2838 39.0609 17.6149 38.8742 17.3633C38.445 16.7819 37.7582 16.4019 37.0314 16.0033C36.9903 15.9811 36.9548 15.9495 36.9277 15.911C36.9007 15.8724 36.8828 15.828 36.8754 15.7812C36.868 15.7344 36.8715 15.6865 36.8854 15.6412C36.8993 15.596 36.9233 15.5546 36.9556 15.5205C37.0902 15.3813 37.1936 15.214 37.2588 15.0302C37.3239 14.8463 37.3493 14.6502 37.3331 14.4554C37.3018 14.11 37.1443 13.7892 36.8919 13.5567C36.6395 13.3241 36.3106 13.1968 35.9704 13.2H34.6702C34.6145 13.2003 34.5588 13.204 34.5035 13.211C34.4656 13.1943 34.4263 13.1809 34.386 13.1711C33.6159 11.511 32.5616 9.23814 30.3763 8.12889C27.135 6.48499 21.1641 6.39999 19.9972 6.39999C18.8304 6.39999 12.8595 6.48499 9.62238 8.12634C7.43706 9.23559 6.38273 11.5085 5.61262 13.1685L5.60595 13.1821C5.56754 13.1877 5.52982 13.1973 5.49344 13.211C5.43814 13.204 5.38247 13.2003 5.32675 13.2H4.02405C3.68391 13.1968 3.35502 13.3241 3.10261 13.5567C2.8502 13.7892 2.6927 14.11 2.66135 14.4554C2.64655 14.6498 2.67307 14.8451 2.73909 15.028C2.80511 15.211 2.90909 15.3772 3.04391 15.5154C3.07616 15.5495 3.10019 15.5909 3.11411 15.6361C3.12802 15.6814 3.13143 15.7293 3.12408 15.7761C3.11672 15.8229 3.0988 15.8673 3.07173 15.9059C3.04465 15.9444 3.00917 15.976 2.96807 15.9982C2.24129 16.3994 1.55119 16.7793 1.12529 17.3582C0.9386 17.6132 0.445194 18.2787 0.144317 21.7136C-0.0223745 23.6465 -0.0473781 25.6474 0.0834745 26.936C0.357681 29.6135 0.871924 31.2319 0.893594 31.299C0.972504 31.5434 1.11776 31.7599 1.3125 31.9235C1.50723 32.087 1.74346 32.1909 1.99376 32.223V32.24C1.99376 32.6007 2.13425 32.9466 2.38434 33.2017C2.63442 33.4567 2.97361 33.6 3.32729 33.6H7.99464C8.34831 33.6 8.6875 33.4567 8.93759 33.2017C9.18767 32.9466 9.32817 32.6007 9.32817 32.24C10.0458 32.24 10.545 32.1091 11.0743 31.9697C11.8384 31.7597 12.6194 31.62 13.4079 31.5523C15.9508 31.305 18.4795 31.22 19.9972 31.22C21.4841 31.22 24.1245 31.305 26.6716 31.5523C27.4632 31.6202 28.2473 31.7604 29.0144 31.9714C29.5211 32.104 30.002 32.2264 30.668 32.2391C30.668 32.5998 30.8085 32.9458 31.0586 33.2008C31.3086 33.4559 31.6478 33.5991 32.0015 33.5991H36.6689C37.0225 33.5991 37.3617 33.4559 37.6118 33.2008C37.8619 32.9458 38.0024 32.5998 38.0024 32.2391V32.2289C38.2533 32.1974 38.4902 32.0939 38.6856 31.9303C38.881 31.7667 39.0267 31.5498 39.1059 31.305C39.1275 31.2378 39.6418 29.6194 39.916 26.9419C40.0469 25.6525 40.0235 23.655 39.8552 21.7187ZM8.02298 14.3313C8.68974 12.8863 9.45235 11.2509 10.8101 10.5616C12.772 9.56539 16.8384 9.11659 19.9972 9.11659C23.156 9.11659 27.2225 9.56199 29.1844 10.5616C30.5421 11.2509 31.3014 12.8872 31.9715 14.3313L32.0548 14.5158C32.1036 14.6208 32.1251 14.7368 32.1174 14.8527C32.1097 14.9686 32.073 15.0806 32.0108 15.1779C31.9487 15.2753 31.8631 15.3547 31.7622 15.4087C31.6614 15.4628 31.5486 15.4895 31.4348 15.4865C28.6652 15.41 22.831 15.1652 19.9972 15.1652C17.1635 15.1652 11.3293 15.4159 8.55555 15.4924C8.44168 15.4955 8.32894 15.4687 8.22809 15.4147C8.12724 15.3607 8.04164 15.2812 7.97946 15.1839C7.91727 15.0865 7.88058 14.9746 7.87288 14.8586C7.86518 14.7427 7.88673 14.6267 7.93546 14.5217C7.96463 14.4588 7.99547 14.3951 8.02298 14.3313ZM9.01729 21.0999C7.58358 21.2759 6.1407 21.3627 4.69665 21.36C3.81319 21.36 2.90222 21.105 2.73303 20.3026C2.61718 19.7628 2.62968 19.4594 2.69219 19.1542C2.7447 18.895 2.82804 18.7063 3.24477 18.64C4.32827 18.47 4.93419 18.6833 6.70778 19.2163C7.88379 19.569 8.73225 20.0391 9.21565 20.4114C9.45819 20.595 9.329 21.0744 9.01729 21.0999ZM27.4683 28.0699C26.3715 28.1974 24.1779 28.1506 20.0222 28.1506C15.8666 28.1506 13.6738 28.1974 12.577 28.0699C11.4451 27.9415 10.0024 26.8501 10.9876 25.8777C11.6435 25.2368 13.1737 24.7574 15.2115 24.488C17.2493 24.2185 18.112 24.08 20.0139 24.08C21.9159 24.08 22.691 24.165 24.8163 24.4888C26.9416 24.8127 28.5477 25.298 29.0402 25.8786C29.9387 26.919 28.5993 27.9347 27.4683 28.075V28.0699ZM37.2614 20.3017C37.0948 21.1075 36.1779 21.3591 35.2978 21.3591C33.8261 21.3595 32.3557 21.2726 30.8938 21.099C30.6388 21.0744 30.5205 20.6179 30.7788 20.4105C31.2547 20.0289 32.1124 19.5682 33.2867 19.2154C35.0603 18.6825 36.0829 18.4691 36.9614 18.6468C37.1756 18.6901 37.2889 18.9247 37.3023 19.0718C37.3611 19.4812 37.3472 19.8981 37.2614 20.3026V20.3017Z" fill="white"/>
</svg>
