<svg viewBox="0 0 81 80" fill="none" xmlns="http://www.w3.org/2000/svg">
  <circle cx="40.5" cy="40" r="40" fill="white"/>
  <g clip-path="url(#clip0_295_647)">
  <path d="M61.6814 44.229L57.3158 41.7047C57.3726 41.1382 57.4013 40.5681 57.4013 40C57.4013 39.4319 57.3726 38.8618 57.3158 38.2953L61.6814 35.771C62.5105 35.2916 62.7946 34.2299 62.3158 33.3995L57.1154 24.3784C56.637 23.5486 55.5763 23.2634 54.7474 23.743L50.382 26.2672C49.4569 25.5977 48.471 25.0265 47.4337 24.5589V19.5139C47.4337 18.555 46.6576 17.7778 45.7002 17.7778H35.2994C34.342 17.7778 33.5658 18.555 33.5658 19.5139V24.5588C32.5285 25.0264 31.5426 25.5976 30.6176 26.2671L26.2521 23.7429C25.423 23.2634 24.3628 23.5479 23.8842 24.3784L18.6837 33.3994C18.205 34.2298 18.4891 35.2915 19.3182 35.7709L23.6837 38.2952C23.627 38.8617 23.5983 39.4317 23.5983 40C23.5983 40.5683 23.627 41.1383 23.6837 41.7048L19.3182 44.2291C18.4891 44.7085 18.205 45.7702 18.6837 46.6006L23.8842 55.6217C24.3629 56.4521 25.423 56.7364 26.2521 56.2572L30.6176 53.733C31.5426 54.4024 32.5285 54.9737 33.5658 55.4412V60.4861C33.5658 61.445 34.342 62.2222 35.2994 62.2222H45.7002C46.6576 62.2222 47.4337 61.445 47.4337 60.4861V55.4411C48.471 54.9736 49.4569 54.4023 50.382 53.7329L54.7474 56.2571C55.5778 56.7372 56.6376 56.4504 57.1154 55.6217L62.3158 46.6006C62.7946 45.7702 62.5105 44.7084 61.6814 44.229ZM54.9797 52.382L51.1054 50.1418C50.4744 49.777 49.6831 49.8463 49.125 50.315C47.9223 51.3249 46.57 52.1084 45.1059 52.6436C44.4218 52.8936 43.9667 53.5451 43.9667 54.2745V58.75H37.0328V54.2744C37.0328 53.5451 36.5776 52.8936 35.8936 52.6435C34.4295 52.1082 33.0773 51.3249 31.8747 50.3149C31.3165 49.8462 30.5251 49.7769 29.8941 50.1417L26.0198 52.3819L22.5529 46.3679L26.425 44.129C27.055 43.7647 27.3908 43.0452 27.2659 42.3274C27.1328 41.5622 27.0652 40.7792 27.0652 39.9999C27.0652 39.2207 27.1328 38.4377 27.2659 37.6725C27.3908 36.9547 27.055 36.2351 26.425 35.8709L22.5529 33.632L26.0198 27.618L29.8941 29.8582C30.525 30.223 31.3164 30.1538 31.8747 29.685C33.0773 28.675 34.4296 27.8916 35.8936 27.3564C36.5777 27.1064 37.0328 26.4549 37.0328 25.7255V21.25H43.9667V25.7256C43.9667 26.4549 44.4218 27.1064 45.1059 27.3565C46.57 27.8917 47.9223 28.6752 49.125 29.6851C49.6833 30.1539 50.4746 30.2232 51.1054 29.8582L54.9797 27.618L58.4467 33.6321L54.5746 35.871C53.9446 36.2352 53.6087 36.9548 53.7336 37.6725C53.8668 38.4379 53.9343 39.221 53.9343 40C53.9343 40.779 53.8668 41.5621 53.7336 42.3275C53.6088 43.0453 53.9447 43.7647 54.5746 44.129L58.4467 46.3679L54.9797 52.382ZM42.2342 36.994L46.7734 34.3733C47.6037 33.8939 48.6656 34.1784 49.1449 35.0088C49.6243 35.8391 49.3398 36.9009 48.5095 37.3803L43.972 40C43.972 41.9146 42.4144 43.4722 40.4998 43.4722C38.5852 43.4722 37.0276 41.9146 37.0276 40C37.0276 38.0854 38.5852 36.5278 40.4998 36.5278C41.1313 36.5278 41.7235 36.6981 42.2342 36.994ZM49.3616 44.5927C47.6328 47.9174 44.2371 49.9826 40.4998 49.9826C34.9954 49.9826 30.5171 45.5044 30.5171 40C30.5171 34.4956 34.9954 30.0174 40.4998 30.0174C41.4586 30.0174 42.2359 30.7946 42.2359 31.7535C42.2359 32.7123 41.4586 33.4896 40.4998 33.4896C36.9099 33.4896 33.9894 36.4101 33.9894 40C33.9894 43.5898 36.9099 46.5104 40.4998 46.5104C42.9368 46.5104 45.152 45.1617 46.281 42.9908C46.7234 42.1401 47.7717 41.8092 48.6224 42.2515C49.473 42.6937 49.8039 43.742 49.3616 44.5927Z" fill="#006BA6"/>
  </g>
  <defs>
  <clipPath id="clip0_295_647">
  <rect width="44.4444" height="44.4444" fill="white" transform="translate(18.2773 17.7778)"/>
  </clipPath>
  </defs>
</svg>
