<svg viewBox="0 0 40 40" fill="none" xmlns="http://www.w3.org/2000/svg">
  <path d="M38.5667 20.5893C38.1924 21.9106 37.4439 23.0558 36.4606 23.8127C35.6753 24.4181 34.7837 24.7348 33.9067 24.7348C33.5765 24.7348 33.2536 24.6907 32.9344 24.6005C31.7749 24.2688 30.8356 23.3478 30.3586 22.0731C29.922 20.911 29.8926 19.5438 30.2669 18.2221C30.6448 16.9008 31.3933 15.7556 32.373 14.9987C33.4518 14.1673 34.736 13.8799 35.8992 14.2109C37.0587 14.5427 38.0017 15.4636 38.4787 16.7384C38.9116 17.9005 38.9446 19.2676 38.5667 20.5893ZM14.0339 17.2495C15.4136 17.2495 16.7309 16.4816 17.6481 15.1416C18.481 13.9267 18.9397 12.3353 18.9397 10.6599C18.9397 8.98306 18.481 7.39173 17.6481 6.17681C16.7308 4.8372 15.4135 4.06915 14.0339 4.06915C12.6506 4.06915 11.3334 4.83712 10.416 6.17681C9.58682 7.39173 9.12815 8.98306 9.12815 10.6599C9.12815 12.3353 9.58682 13.9267 10.416 15.1416C11.3334 16.4816 12.6506 17.2495 14.0339 17.2495ZM25.9664 17.2495C27.3498 17.2495 28.667 16.4816 29.5843 15.1416C30.4135 13.9267 30.8722 12.3353 30.8722 10.6599C30.8722 8.98306 30.4135 7.39173 29.5843 6.17681C28.667 4.8372 27.3497 4.06915 25.9664 4.06915C24.5867 4.06915 23.2695 4.83712 22.3522 6.17681C21.5193 7.39173 21.0606 8.98306 21.0606 10.6599C21.0606 12.3353 21.5193 13.9267 22.3522 15.1416C23.2695 16.4816 24.5867 17.2495 25.9664 17.2495ZM9.73354 18.223C9.35565 16.901 8.60713 15.7558 7.62737 14.9988C6.54862 14.1674 5.2644 13.88 4.10119 14.211C2.93807 14.5427 1.99869 15.4637 1.52166 16.7384C1.08869 17.9005 1.05573 19.2677 1.43362 20.5894C1.80791 21.9107 2.55643 23.0559 3.53971 23.8128C4.32494 24.4182 5.21659 24.7349 6.09354 24.7349C6.4201 24.7349 6.74666 24.6908 7.06221 24.6006C8.22533 24.2688 9.16471 23.3479 9.64166 22.0731C10.0785 20.9111 10.1078 19.5439 9.73354 18.223ZM27.1992 21.445C25.1885 19.3315 22.6346 18.1684 20.0002 18.1684C17.3656 18.1684 14.8081 19.3315 12.8047 21.445C10.8893 23.4606 9.55377 26.2573 9.04002 29.3214C8.71346 31.276 9.30783 33.1573 10.6765 34.4823C12.1002 35.8612 13.9605 36.2799 15.7805 35.6326C17.1271 35.1519 18.5471 34.9083 20.0002 34.9083C21.4532 34.9083 22.8732 35.152 24.2199 35.6326C24.7813 35.8322 25.3464 35.9309 25.9004 35.9309C27.1442 35.9309 28.3368 35.4363 29.3201 34.4823C30.6924 33.1574 31.2868 31.2761 30.9603 29.3214C30.4466 26.2572 29.111 23.4605 27.1992 21.445Z" fill="white"/>
</svg>
