<svg width="31" height="30" viewBox="0 0 31 30" fill="none" xmlns="http://www.w3.org/2000/svg">
<g id="Group">
<path id="Vector" d="M7.58984 15C7.58984 19.3593 11.1407 22.9102 15.5 22.9102C19.8593 22.9102 23.4102 19.3593 23.4102 15C23.4102 10.6407 19.8593 7.08984 15.5 7.08984C11.1407 7.08984 7.58984 10.6407 7.58984 15ZM19.6308 13.8574L14.6211 18.8848L11.3692 15.6152L12.5996 14.3848L14.6211 16.3886L18.4004 12.627L19.6308 13.8574Z" fill="white"/>
<path id="Vector_2" d="M15.5 30C23.7441 30 30.5 23.2441 30.5 15H26.9844C26.9844 21.293 21.793 26.4258 15.5 26.4258C9.20697 26.4258 4.07422 21.293 4.07422 15C4.07422 8.70697 9.20697 3.57422 15.5 3.57422C18.0665 3.57422 20.4395 4.41791 22.3379 5.85938L21.002 7.19531L27.207 8.42578L25.9766 2.22064L24.8516 3.34564C22.2852 1.28906 19.0332 0 15.5 0C7.25586 0 0.5 6.75586 0.5 15C0.5 23.2441 7.25586 30 15.5 30Z" fill="white"/>
</g>
</svg>
