<svg viewBox="0 0 81 80" fill="none" xmlns="http://www.w3.org/2000/svg">
  <circle cx="40.5" cy="40" r="40" fill="white"/>
  <path d="M24.6901 52.1039V41.2804H20.8652C20.1911 41.2804 19.6445 41.8269 19.6445 42.5011V59.5909C19.6445 60.2651 20.1911 60.8116 20.8652 60.8116H37.9551C38.6293 60.8116 39.1758 60.2651 39.1758 59.5909V55.7661H28.3522C26.333 55.7661 24.6901 54.1232 24.6901 52.1039Z" fill="#313E50"/>
  <path d="M60.0908 19.145H28.3525C27.6784 19.145 27.1318 19.6915 27.1318 20.3657V52.1039C27.1318 52.7781 27.6784 53.3246 28.3525 53.3246H60.0908C60.765 53.3246 61.3115 52.7781 61.3115 52.1039V20.3657C61.3115 19.6915 60.765 19.145 60.0908 19.145ZM55.2711 31.6597C55.2711 32.3336 54.7246 32.8804 54.0504 32.8804C53.3759 32.8804 52.8297 32.3336 52.8297 31.6597V29.3124L42.6231 39.519C42.385 39.7573 42.0725 39.8766 41.7599 39.8766C41.4476 39.8766 41.1353 39.7573 40.8968 39.519C40.42 39.0424 40.42 38.2693 40.8968 37.7927L51.1609 27.5286H48.6915C48.0173 27.5286 47.4708 26.9824 47.4708 26.3079C47.4708 25.6338 48.0173 25.0872 48.6915 25.0872H54.0504C54.7246 25.0872 55.2711 25.6338 55.2711 26.3079V31.6597Z" fill="#313E50"/>
</svg>
