<svg width="45" height="45" viewBox="0 0 45 45" fill="none" xmlns="http://www.w3.org/2000/svg">
<g id="tap-2 1">
<g id="Group">
<g id="Group_2">
<g id="Group_3">
<path id="Vector" d="M42.3176 20.1264L35.2659 12.3811C33.9142 11.0255 31.5667 11.0161 30.1906 12.3923C29.7462 12.8367 29.4425 13.371 29.285 13.941C27.9163 12.891 25.8276 13.0054 24.5658 14.2672C24.1214 14.7116 23.8177 15.2459 23.6564 15.814C22.2914 14.764 20.201 14.8841 18.941 16.1421C18.5041 16.579 18.2042 17.1021 18.0411 17.6552L14.7187 14.3328C13.3219 12.9378 11.0532 12.9341 9.64134 14.344C8.24455 15.739 8.24455 18.0114 9.64134 19.4082L22.4058 32.1726L14.8386 33.3613C12.7912 33.6539 11.2482 35.4314 11.2482 37.4994C11.2482 39.0499 12.51 40.3117 14.0606 40.3117H31.7392C34.4916 40.3117 37.0809 39.2393 39.0345 37.2894L41.9819 34.3402C43.9281 32.3958 44.9986 29.8085 44.9986 27.0579C44.9986 24.4893 44.0462 22.0276 42.3176 20.1264ZM40.6545 33.0164L37.7071 35.9656C36.1115 37.5593 33.991 38.4368 31.7392 38.4368H14.0606C13.5449 38.4368 13.1231 38.0167 13.1231 37.4993C13.1231 36.3593 13.9743 35.3787 15.1142 35.2138L24.517 33.7363C24.8657 33.6819 25.1526 33.4363 25.2633 33.1007C25.372 32.767 25.2839 32.3976 25.0345 32.1483L10.9669 18.0808C10.3032 17.4152 10.3032 16.3334 10.9782 15.6565C11.3119 15.3247 11.7488 15.1578 12.1857 15.1578C12.6226 15.1578 13.0594 15.3247 13.3932 15.6584L18.8979 21.1632C18.911 21.1782 18.9278 21.1932 18.9429 21.2082L22.7752 25.0386C23.1408 25.4043 23.7352 25.4043 24.1008 25.0386C24.4664 24.673 24.4664 24.0787 24.1008 23.713L20.2366 19.8488C19.6047 19.1813 19.616 18.122 20.2797 17.4565C20.9247 16.8152 22.0459 16.8115 22.6909 17.4565L24.534 19.3014C24.5452 19.3126 24.5546 19.3239 24.5659 19.3333L26.5233 21.2889C26.8889 21.6545 27.4833 21.6545 27.8489 21.2889C28.2145 20.9233 28.2145 20.3289 27.8489 19.9633L25.869 17.9852C25.2296 17.3177 25.2372 16.2509 25.9046 15.5816C26.5476 14.9403 27.6707 14.9366 28.3157 15.5816L30.2732 17.5465C30.275 17.5483 30.275 17.5502 30.2769 17.5502L30.2788 17.5521C30.294 17.5597 30.2902 17.5578 30.2863 17.5559C30.2863 17.5559 30.2863 17.5577 30.2881 17.5577C30.29 17.5596 30.29 17.5596 30.29 17.5596C30.2918 17.5614 30.2918 17.5614 30.2918 17.5614H30.2936C30.2955 17.5614 30.2955 17.5614 30.2955 17.5614C30.6667 17.9064 31.2442 17.897 31.6004 17.5371C31.9642 17.1714 31.9642 16.579 31.5986 16.2134L31.4861 16.1009C30.8523 15.4334 30.8617 14.3722 31.5273 13.7066C32.1723 13.0654 33.3235 13.0935 33.9084 13.6747L40.9282 21.39C42.3437 22.9462 43.1218 24.958 43.1218 27.0598C43.1219 29.3078 42.2444 31.4246 40.6545 33.0164Z" fill="#C1F20D"/>
</g>
</g>
</g>
<g id="Group_4">
<g id="Group_5">
<path id="Vector_2" d="M19.8687 13.4141C18.5019 10.3917 15.4889 8.43802 12.1872 8.43802C7.53547 8.43802 3.75 12.2235 3.75 16.8752C3.75 20.1751 5.70364 23.1899 8.72414 24.5568C8.84973 24.613 8.98104 24.6393 9.1104 24.6393C9.46854 24.6393 9.80788 24.433 9.96537 24.0881C10.1773 23.6156 9.96915 23.0606 9.49667 22.8468C7.14551 21.7837 5.62498 19.4402 5.62498 16.8753C5.62498 13.2567 8.56858 10.313 12.1872 10.313C14.7521 10.313 17.0958 11.8335 18.1589 14.1847C18.3726 14.6572 18.9257 14.8671 19.4001 14.6534C19.8707 14.4416 20.0806 13.8847 19.8687 13.4141Z" fill="#C1F20D"/>
</g>
</g>
<g id="Group_6">
<g id="Group_7">
<path id="Vector_3" d="M23.9521 13.7423C22.5366 8.41183 17.6974 4.68823 12.187 4.68823C5.46728 4.68823 0 10.1555 0 16.8753C0 22.3857 3.7236 27.2248 9.05588 28.6404C9.13647 28.6629 9.21715 28.6723 9.2959 28.6723C9.71213 28.6723 10.0908 28.3967 10.2015 27.9767C10.3346 27.4761 10.0384 26.9624 9.53592 26.8293C5.0267 25.6312 1.87498 21.5382 1.87498 16.8753C1.87498 11.1886 6.50232 6.56321 12.187 6.56321C16.8481 6.56321 20.9429 9.71308 22.141 14.2241C22.2722 14.7229 22.7692 15.0229 23.2885 14.8897C23.7871 14.7566 24.0834 14.2429 23.9521 13.7423Z" fill="#C1F20D"/>
</g>
</g>
</g>
</svg>
