<svg viewBox="0 0 40 40" fill="none" xmlns="http://www.w3.org/2000/svg">
  <path d="M35.0296 10.5433L17.6239 26.825C14.1374 30.3451 11.472 31.247 9.84311 31.3885C6.40363 31.167 10.1162 25.4656 11.2432 24.099C11.27 24.067 11.2947 24.0333 11.3172 23.9981C12.1451 22.9346 12.8316 22.2211 12.8518 22.201L29.1402 5.03085C31.4556 2.97125 33.5556 2.5001 34.9959 2.50012C35.8889 2.50479 36.8129 2.57345 37.0824 3.4895C38.1459 7.52793 35.1575 10.4222 35.0296 10.5433ZM11.297 32.4922L14.1845 36.8739C14.356 37.1291 14.6073 37.3201 14.899 37.4172C15.1907 37.5142 15.5064 37.5117 15.7965 37.4101C16.0867 37.3085 16.335 37.1135 16.5024 36.8557C16.6699 36.5979 16.7471 36.2918 16.722 35.9854L16.1297 29.9547C14.7104 31.1238 13.0652 31.9876 11.297 32.4922ZM3.94708 23.5134C3.69286 23.498 3.44051 23.5655 3.22795 23.7058C3.0154 23.8461 2.85412 24.0516 2.76837 24.2914C2.68263 24.5312 2.67704 24.7924 2.75245 25.0356C2.82786 25.2789 2.98019 25.4911 3.18655 25.6404L7.31244 28.5413C7.82741 26.8957 8.61955 25.3501 9.65473 23.9711L3.94708 23.5134ZM14.1912 5.93949C14.2599 5.71073 14.2361 5.46417 14.1249 5.25277C14.0138 5.04136 13.8242 4.88198 13.5968 4.80884C13.3694 4.73571 13.1225 4.75466 12.9089 4.86162C12.6954 4.96858 12.5323 5.15502 12.4547 5.3809L11.9634 6.90198L13.8547 6.97605L14.1912 5.93949ZM4.34416 11.1625L17.7989 15.0327L23.7825 8.72602C22.1321 8.66216 15.9995 8.41456 14.2383 8.33564C12.1637 8.25949 6.99594 8.04622 4.86244 7.9587C4.46518 7.94636 4.07701 8.07902 3.77039 8.33191C3.46377 8.5848 3.25968 8.94065 3.19621 9.333C3.13274 9.72535 3.21423 10.1274 3.42547 10.4641C3.63672 10.8007 3.96327 11.049 4.34416 11.1625ZM21.4402 5.93949C21.5107 5.71111 21.4883 5.46417 21.3781 5.25214C21.2678 5.04011 21.0784 4.88005 20.851 4.8066C20.6235 4.73316 20.3763 4.75225 20.1629 4.85973C19.9494 4.96722 19.7869 5.15445 19.7104 5.3809L19.1249 7.1914L21.0162 7.26547L21.4402 5.93949ZM34.895 25.4519C34.4203 25.1479 33.5337 25.6517 32.9228 25.8019L33.0103 27.6865L34.7536 27.1211C34.924 27.0662 35.0743 26.9621 35.1857 26.822C35.2971 26.6818 35.3646 26.5119 35.3797 26.3335C35.3948 26.1552 35.3569 25.9763 35.2706 25.8194C35.1844 25.6626 35.0537 25.5347 34.895 25.4519ZM31.7113 28.5413C31.6245 26.6972 31.4566 23.2384 31.3815 21.3865C31.319 20.0413 31.1939 17.3628 31.1325 16.0356L24.8258 21.9317L28.8238 35.5749C28.9398 35.9519 29.1888 36.2739 29.5243 36.4812C29.8599 36.6885 30.2593 36.767 30.6483 36.702C31.0374 36.637 31.3896 36.433 31.6396 36.1279C31.8896 35.8228 32.0203 35.4373 32.0075 35.0431L31.718 28.7163C31.7056 28.6588 31.7034 28.5996 31.7113 28.5413ZM34.895 18.1894C34.6775 18.0811 34.4264 18.0617 34.195 18.1356L32.593 18.6471L32.6805 20.5317L34.7603 19.8654C34.9299 19.8082 35.079 19.7025 35.1891 19.5615C35.2992 19.4204 35.3656 19.2502 35.3799 19.0718C35.3942 18.8934 35.3559 18.7147 35.2697 18.5579C35.1835 18.4011 35.0532 18.2729 34.895 18.1894Z" fill="white"/>
</svg>
