<svg viewBox="0 0 32 32" fill="none" xmlns="http://www.w3.org/2000/svg">
<circle cx="16" cy="16" r="16" fill="white"/>
<path fill-rule="evenodd" clip-rule="evenodd" d="M15.4393 9.64646C15.4393 9.26373 15.2873 8.89665 15.0167 8.62578C14.7458 8.35516 14.3787 8.20312 13.996 8.20312H9.66599C9.28327 8.20312 8.91618 8.35516 8.64531 8.62578C8.37469 8.89665 8.22266 9.26373 8.22266 9.64646V13.9765C8.22266 14.3592 8.37469 14.7263 8.64531 14.9971C8.91618 15.2678 9.28327 15.4198 9.66599 15.4198H13.996C14.3787 15.4198 14.7458 15.2678 15.0167 14.9971C15.2873 14.7263 15.4393 14.3592 15.4393 13.9765V9.64646Z" fill="#006BA6"/>
<path fill-rule="evenodd" clip-rule="evenodd" d="M15.4393 17.9795C15.4393 17.5967 15.2873 17.2297 15.0167 16.9588C14.7458 16.6882 14.3787 16.5361 13.996 16.5361H9.66599C9.28327 16.5361 8.91618 16.6882 8.64531 16.9588C8.37469 17.2297 8.22266 17.5967 8.22266 17.9795V22.3095C8.22266 22.6922 8.37469 23.0593 8.64531 23.3301C8.91618 23.6008 9.28327 23.7528 9.66599 23.7528H13.996C14.3787 23.7528 14.7458 23.6008 15.0167 23.3301C15.2873 23.0593 15.4393 22.6922 15.4393 22.3095V17.9795Z" fill="#006BA6"/>
<path fill-rule="evenodd" clip-rule="evenodd" d="M23.7723 17.9795C23.7723 17.5967 23.6203 17.2297 23.3497 16.9588C23.0788 16.6882 22.7117 16.5361 22.329 16.5361H17.999C17.6163 16.5361 17.2492 16.6882 16.9783 16.9588C16.7077 17.2297 16.5557 17.5967 16.5557 17.9795V22.3095C16.5557 22.6922 16.7077 23.0593 16.9783 23.3301C17.2492 23.6008 17.6163 23.7528 17.999 23.7528H22.329C22.7117 23.7528 23.0788 23.6008 23.3497 23.3301C23.6203 23.0593 23.7723 22.6922 23.7723 22.3095V17.9795Z" fill="#006BA6"/>
<path fill-rule="evenodd" clip-rule="evenodd" d="M21.1744 8.61915C20.6153 8.06055 19.709 8.06055 19.1499 8.61915C18.5248 9.24472 17.5971 10.1719 16.972 10.7975C16.413 11.3566 16.413 12.2629 16.972 12.8215C17.5971 13.447 18.5248 14.3742 19.1499 14.9998C19.709 15.5589 20.6153 15.5589 21.1744 14.9998C21.7995 14.3742 22.7271 13.447 23.3522 12.8215C23.9113 12.2629 23.9113 11.3566 23.3522 10.7975C22.7271 10.1719 21.7995 9.24472 21.1744 8.61915Z" fill="#006BA6"/>
</svg>
